G04 EAGLE Gerber RS-274X export*
G75*
%MOMM*%
%FSLAX34Y34*%
%LPD*%
%INBottom Copper*%
%IPPOS*%
%AMOC8*
5,1,8,0,0,1.08239X$1,22.5*%
G01*
%ADD10C,1.879600*%
%ADD11C,2.032000*%
%ADD12C,1.651000*%
%ADD13R,1.651000X1.651000*%
%ADD14C,0.609600*%
%ADD15C,0.600000*%

G36*
X176808Y10934D02*
X176808Y10934D01*
X176880Y10936D01*
X176929Y10954D01*
X176980Y10962D01*
X177043Y10996D01*
X177111Y11021D01*
X177151Y11053D01*
X177198Y11078D01*
X177247Y11130D01*
X177303Y11174D01*
X177331Y11218D01*
X177367Y11256D01*
X177397Y11321D01*
X177436Y11381D01*
X177449Y11432D01*
X177471Y11479D01*
X177478Y11550D01*
X177496Y11620D01*
X177492Y11672D01*
X177498Y11723D01*
X177482Y11794D01*
X177477Y11865D01*
X177456Y11913D01*
X177445Y11964D01*
X177409Y12025D01*
X177380Y12091D01*
X177336Y12147D01*
X177319Y12175D01*
X177301Y12190D01*
X177276Y12222D01*
X176334Y13163D01*
X176334Y13164D01*
X87406Y102092D01*
X87348Y102133D01*
X87296Y102183D01*
X87249Y102205D01*
X87207Y102235D01*
X87138Y102256D01*
X87073Y102287D01*
X87021Y102292D01*
X86971Y102308D01*
X86900Y102306D01*
X86829Y102314D01*
X86778Y102303D01*
X86726Y102301D01*
X86658Y102277D01*
X86588Y102261D01*
X86544Y102235D01*
X86495Y102217D01*
X86439Y102172D01*
X86377Y102135D01*
X86343Y102096D01*
X86303Y102063D01*
X86264Y102003D01*
X86217Y101948D01*
X86198Y101900D01*
X86170Y101856D01*
X86152Y101787D01*
X86125Y101720D01*
X86117Y101649D01*
X86109Y101618D01*
X86111Y101594D01*
X86107Y101553D01*
X86107Y96584D01*
X84212Y92009D01*
X80711Y88508D01*
X77222Y87063D01*
X77161Y87025D01*
X77096Y86996D01*
X77057Y86961D01*
X77013Y86934D01*
X76967Y86878D01*
X76915Y86830D01*
X76890Y86784D01*
X76856Y86744D01*
X76831Y86677D01*
X76796Y86614D01*
X76787Y86563D01*
X76768Y86515D01*
X76765Y86443D01*
X76752Y86372D01*
X76760Y86321D01*
X76758Y86269D01*
X76778Y86200D01*
X76788Y86129D01*
X76812Y86083D01*
X76826Y86033D01*
X76867Y85974D01*
X76900Y85910D01*
X76937Y85873D01*
X76967Y85831D01*
X77024Y85788D01*
X77075Y85738D01*
X77138Y85703D01*
X77164Y85684D01*
X77186Y85677D01*
X77222Y85657D01*
X80711Y84212D01*
X84212Y80711D01*
X86107Y76136D01*
X86107Y71184D01*
X84212Y66609D01*
X80711Y63108D01*
X76136Y61213D01*
X71184Y61213D01*
X66609Y63108D01*
X63108Y66609D01*
X61213Y71184D01*
X61213Y76136D01*
X63108Y80711D01*
X66609Y84212D01*
X70098Y85657D01*
X70159Y85695D01*
X70224Y85724D01*
X70262Y85759D01*
X70307Y85786D01*
X70353Y85842D01*
X70405Y85890D01*
X70430Y85936D01*
X70464Y85976D01*
X70489Y86043D01*
X70524Y86106D01*
X70533Y86157D01*
X70552Y86205D01*
X70555Y86277D01*
X70568Y86348D01*
X70560Y86399D01*
X70562Y86451D01*
X70542Y86520D01*
X70532Y86591D01*
X70508Y86637D01*
X70494Y86687D01*
X70453Y86746D01*
X70420Y86810D01*
X70383Y86847D01*
X70353Y86889D01*
X70296Y86932D01*
X70245Y86982D01*
X70182Y87017D01*
X70156Y87036D01*
X70134Y87043D01*
X70098Y87063D01*
X66609Y88508D01*
X63108Y92009D01*
X61663Y95498D01*
X61625Y95559D01*
X61596Y95624D01*
X61561Y95662D01*
X61534Y95707D01*
X61478Y95753D01*
X61430Y95805D01*
X61384Y95830D01*
X61344Y95864D01*
X61277Y95889D01*
X61214Y95924D01*
X61163Y95933D01*
X61115Y95952D01*
X61043Y95955D01*
X60972Y95968D01*
X60921Y95960D01*
X60869Y95962D01*
X60800Y95942D01*
X60729Y95932D01*
X60683Y95908D01*
X60633Y95894D01*
X60574Y95853D01*
X60510Y95820D01*
X60473Y95783D01*
X60431Y95753D01*
X60388Y95696D01*
X60338Y95645D01*
X60303Y95582D01*
X60284Y95556D01*
X60277Y95534D01*
X60257Y95498D01*
X58812Y92009D01*
X55311Y88508D01*
X50736Y86613D01*
X45784Y86613D01*
X41209Y88508D01*
X37708Y92009D01*
X35813Y96584D01*
X35813Y101536D01*
X37708Y106111D01*
X41209Y109612D01*
X44698Y111057D01*
X44759Y111095D01*
X44824Y111124D01*
X44862Y111159D01*
X44907Y111186D01*
X44953Y111242D01*
X45005Y111290D01*
X45030Y111336D01*
X45064Y111376D01*
X45089Y111443D01*
X45124Y111506D01*
X45133Y111557D01*
X45152Y111605D01*
X45155Y111677D01*
X45168Y111748D01*
X45160Y111799D01*
X45162Y111851D01*
X45142Y111920D01*
X45132Y111991D01*
X45108Y112037D01*
X45094Y112087D01*
X45053Y112146D01*
X45020Y112210D01*
X44983Y112247D01*
X44953Y112289D01*
X44896Y112332D01*
X44845Y112382D01*
X44782Y112417D01*
X44756Y112436D01*
X44734Y112443D01*
X44698Y112463D01*
X41209Y113908D01*
X37708Y117409D01*
X35813Y121984D01*
X35813Y126936D01*
X37708Y131511D01*
X41209Y135012D01*
X44698Y136457D01*
X44759Y136495D01*
X44824Y136524D01*
X44862Y136559D01*
X44907Y136586D01*
X44953Y136642D01*
X45005Y136690D01*
X45030Y136736D01*
X45064Y136776D01*
X45089Y136843D01*
X45124Y136906D01*
X45133Y136957D01*
X45152Y137005D01*
X45155Y137077D01*
X45168Y137148D01*
X45160Y137199D01*
X45162Y137251D01*
X45142Y137320D01*
X45132Y137391D01*
X45108Y137437D01*
X45094Y137487D01*
X45053Y137546D01*
X45020Y137610D01*
X44983Y137647D01*
X44953Y137689D01*
X44896Y137732D01*
X44845Y137782D01*
X44782Y137817D01*
X44756Y137836D01*
X44734Y137843D01*
X44698Y137863D01*
X41209Y139308D01*
X37708Y142809D01*
X35813Y147384D01*
X35813Y152336D01*
X37708Y156911D01*
X41209Y160412D01*
X44698Y161857D01*
X44759Y161895D01*
X44824Y161924D01*
X44862Y161959D01*
X44907Y161986D01*
X44953Y162042D01*
X45005Y162090D01*
X45030Y162136D01*
X45064Y162176D01*
X45089Y162243D01*
X45124Y162306D01*
X45133Y162357D01*
X45152Y162405D01*
X45155Y162477D01*
X45168Y162548D01*
X45160Y162599D01*
X45162Y162651D01*
X45142Y162720D01*
X45132Y162791D01*
X45108Y162837D01*
X45094Y162887D01*
X45053Y162946D01*
X45020Y163010D01*
X44983Y163047D01*
X44953Y163089D01*
X44896Y163132D01*
X44845Y163182D01*
X44782Y163217D01*
X44756Y163236D01*
X44734Y163243D01*
X44698Y163263D01*
X41209Y164708D01*
X37708Y168209D01*
X35813Y172784D01*
X35813Y177736D01*
X37708Y182311D01*
X41209Y185812D01*
X44698Y187257D01*
X44759Y187295D01*
X44824Y187324D01*
X44862Y187359D01*
X44907Y187386D01*
X44953Y187442D01*
X45005Y187490D01*
X45030Y187536D01*
X45064Y187576D01*
X45089Y187643D01*
X45124Y187706D01*
X45133Y187757D01*
X45152Y187805D01*
X45155Y187877D01*
X45168Y187948D01*
X45160Y187999D01*
X45162Y188051D01*
X45142Y188120D01*
X45132Y188191D01*
X45108Y188237D01*
X45094Y188287D01*
X45053Y188346D01*
X45020Y188410D01*
X44983Y188447D01*
X44953Y188489D01*
X44896Y188532D01*
X44845Y188582D01*
X44782Y188617D01*
X44756Y188636D01*
X44734Y188643D01*
X44698Y188663D01*
X41209Y190108D01*
X37708Y193609D01*
X35813Y198184D01*
X35813Y203136D01*
X37708Y207711D01*
X41209Y211212D01*
X44698Y212657D01*
X44759Y212695D01*
X44824Y212724D01*
X44862Y212759D01*
X44907Y212786D01*
X44953Y212842D01*
X45005Y212890D01*
X45030Y212936D01*
X45064Y212976D01*
X45089Y213043D01*
X45124Y213106D01*
X45133Y213157D01*
X45152Y213205D01*
X45155Y213277D01*
X45168Y213348D01*
X45160Y213399D01*
X45162Y213451D01*
X45142Y213520D01*
X45132Y213591D01*
X45108Y213637D01*
X45094Y213687D01*
X45053Y213746D01*
X45020Y213810D01*
X44983Y213847D01*
X44953Y213889D01*
X44896Y213932D01*
X44845Y213982D01*
X44782Y214017D01*
X44756Y214036D01*
X44734Y214043D01*
X44698Y214063D01*
X41209Y215508D01*
X37708Y219009D01*
X35813Y223584D01*
X35813Y228536D01*
X37708Y233111D01*
X41209Y236612D01*
X44698Y238057D01*
X44759Y238095D01*
X44824Y238124D01*
X44862Y238159D01*
X44907Y238186D01*
X44953Y238242D01*
X45005Y238290D01*
X45030Y238336D01*
X45064Y238376D01*
X45089Y238443D01*
X45124Y238506D01*
X45133Y238557D01*
X45152Y238605D01*
X45155Y238677D01*
X45168Y238748D01*
X45160Y238799D01*
X45162Y238851D01*
X45142Y238920D01*
X45132Y238991D01*
X45108Y239037D01*
X45094Y239087D01*
X45053Y239146D01*
X45020Y239210D01*
X44983Y239247D01*
X44953Y239289D01*
X44896Y239332D01*
X44845Y239382D01*
X44782Y239417D01*
X44756Y239436D01*
X44734Y239443D01*
X44698Y239463D01*
X41209Y240908D01*
X37708Y244409D01*
X37101Y245874D01*
X37053Y245952D01*
X37012Y246033D01*
X36989Y246056D01*
X36972Y246083D01*
X36901Y246142D01*
X36836Y246205D01*
X36800Y246225D01*
X36782Y246240D01*
X36752Y246252D01*
X36689Y246286D01*
X36579Y246332D01*
X18367Y264544D01*
X17446Y266767D01*
X17446Y373948D01*
X18367Y376171D01*
X69928Y427733D01*
X69981Y427806D01*
X70041Y427876D01*
X70053Y427906D01*
X70072Y427932D01*
X70099Y428019D01*
X70133Y428104D01*
X70137Y428145D01*
X70144Y428167D01*
X70143Y428200D01*
X70151Y428271D01*
X70151Y471125D01*
X70133Y471239D01*
X70115Y471356D01*
X70113Y471361D01*
X70112Y471367D01*
X70057Y471470D01*
X70004Y471575D01*
X69999Y471579D01*
X69996Y471585D01*
X69912Y471665D01*
X69828Y471747D01*
X69822Y471751D01*
X69818Y471754D01*
X69801Y471762D01*
X69681Y471828D01*
X69149Y472048D01*
X65648Y475549D01*
X64203Y479038D01*
X64165Y479099D01*
X64136Y479164D01*
X64101Y479202D01*
X64074Y479247D01*
X64018Y479293D01*
X63970Y479345D01*
X63924Y479370D01*
X63884Y479404D01*
X63817Y479429D01*
X63754Y479464D01*
X63703Y479473D01*
X63655Y479492D01*
X63583Y479495D01*
X63512Y479508D01*
X63461Y479500D01*
X63409Y479502D01*
X63340Y479482D01*
X63269Y479472D01*
X63223Y479448D01*
X63173Y479434D01*
X63114Y479393D01*
X63050Y479360D01*
X63013Y479323D01*
X62971Y479293D01*
X62928Y479236D01*
X62878Y479185D01*
X62843Y479122D01*
X62824Y479096D01*
X62817Y479074D01*
X62797Y479038D01*
X61352Y475549D01*
X57851Y472048D01*
X53276Y470153D01*
X48324Y470153D01*
X43749Y472048D01*
X40248Y475549D01*
X38803Y479038D01*
X38765Y479099D01*
X38736Y479164D01*
X38701Y479202D01*
X38674Y479247D01*
X38618Y479293D01*
X38570Y479345D01*
X38524Y479370D01*
X38484Y479404D01*
X38417Y479429D01*
X38354Y479464D01*
X38303Y479473D01*
X38255Y479492D01*
X38183Y479495D01*
X38112Y479508D01*
X38061Y479500D01*
X38009Y479502D01*
X37940Y479482D01*
X37869Y479472D01*
X37823Y479448D01*
X37773Y479434D01*
X37714Y479393D01*
X37650Y479360D01*
X37613Y479323D01*
X37571Y479293D01*
X37528Y479236D01*
X37478Y479185D01*
X37443Y479122D01*
X37424Y479096D01*
X37417Y479074D01*
X37397Y479038D01*
X35952Y475549D01*
X32451Y472048D01*
X27876Y470153D01*
X22924Y470153D01*
X18349Y472048D01*
X14848Y475549D01*
X12953Y480124D01*
X12953Y485076D01*
X14848Y489651D01*
X18349Y493152D01*
X22924Y495047D01*
X27876Y495047D01*
X32451Y493152D01*
X35952Y489651D01*
X37397Y486162D01*
X37435Y486101D01*
X37464Y486036D01*
X37499Y485997D01*
X37526Y485953D01*
X37582Y485907D01*
X37630Y485855D01*
X37676Y485830D01*
X37716Y485796D01*
X37783Y485771D01*
X37846Y485736D01*
X37897Y485727D01*
X37945Y485708D01*
X38017Y485705D01*
X38088Y485692D01*
X38139Y485700D01*
X38191Y485698D01*
X38260Y485718D01*
X38331Y485728D01*
X38377Y485752D01*
X38427Y485766D01*
X38486Y485807D01*
X38550Y485840D01*
X38587Y485877D01*
X38629Y485907D01*
X38672Y485964D01*
X38722Y486015D01*
X38757Y486078D01*
X38776Y486104D01*
X38783Y486126D01*
X38803Y486162D01*
X40248Y489651D01*
X43749Y493152D01*
X48324Y495047D01*
X53276Y495047D01*
X57851Y493152D01*
X61352Y489651D01*
X62797Y486162D01*
X62835Y486101D01*
X62864Y486036D01*
X62899Y485997D01*
X62926Y485953D01*
X62982Y485907D01*
X63030Y485855D01*
X63076Y485830D01*
X63116Y485796D01*
X63183Y485771D01*
X63246Y485736D01*
X63297Y485727D01*
X63345Y485708D01*
X63417Y485705D01*
X63488Y485692D01*
X63539Y485700D01*
X63591Y485698D01*
X63660Y485718D01*
X63731Y485728D01*
X63777Y485752D01*
X63827Y485766D01*
X63886Y485807D01*
X63950Y485840D01*
X63987Y485877D01*
X64029Y485907D01*
X64072Y485964D01*
X64122Y486015D01*
X64157Y486078D01*
X64176Y486104D01*
X64183Y486126D01*
X64203Y486162D01*
X65648Y489651D01*
X69149Y493152D01*
X73724Y495047D01*
X78676Y495047D01*
X83251Y493152D01*
X86752Y489651D01*
X88197Y486162D01*
X88235Y486101D01*
X88264Y486036D01*
X88299Y485997D01*
X88326Y485953D01*
X88382Y485907D01*
X88430Y485855D01*
X88476Y485830D01*
X88516Y485796D01*
X88583Y485771D01*
X88646Y485736D01*
X88697Y485727D01*
X88745Y485708D01*
X88817Y485705D01*
X88888Y485692D01*
X88939Y485700D01*
X88991Y485698D01*
X89060Y485718D01*
X89131Y485728D01*
X89177Y485752D01*
X89227Y485766D01*
X89286Y485807D01*
X89350Y485840D01*
X89387Y485877D01*
X89429Y485907D01*
X89472Y485964D01*
X89522Y486015D01*
X89557Y486078D01*
X89576Y486104D01*
X89583Y486126D01*
X89603Y486162D01*
X91048Y489651D01*
X94549Y493152D01*
X99124Y495047D01*
X104076Y495047D01*
X108651Y493152D01*
X112152Y489651D01*
X113597Y486162D01*
X113635Y486101D01*
X113664Y486036D01*
X113699Y485997D01*
X113726Y485953D01*
X113782Y485907D01*
X113830Y485855D01*
X113876Y485830D01*
X113916Y485796D01*
X113983Y485771D01*
X114046Y485736D01*
X114097Y485727D01*
X114145Y485708D01*
X114217Y485705D01*
X114288Y485692D01*
X114339Y485700D01*
X114391Y485698D01*
X114460Y485718D01*
X114531Y485728D01*
X114577Y485752D01*
X114627Y485766D01*
X114686Y485807D01*
X114750Y485840D01*
X114787Y485877D01*
X114829Y485907D01*
X114872Y485964D01*
X114922Y486015D01*
X114957Y486078D01*
X114976Y486104D01*
X114983Y486126D01*
X115003Y486162D01*
X116448Y489651D01*
X119949Y493152D01*
X124524Y495047D01*
X129476Y495047D01*
X134051Y493152D01*
X137552Y489651D01*
X138997Y486162D01*
X139035Y486101D01*
X139064Y486036D01*
X139099Y485997D01*
X139126Y485953D01*
X139182Y485907D01*
X139230Y485855D01*
X139276Y485830D01*
X139316Y485796D01*
X139383Y485771D01*
X139446Y485736D01*
X139497Y485727D01*
X139545Y485708D01*
X139617Y485705D01*
X139688Y485692D01*
X139739Y485700D01*
X139791Y485698D01*
X139860Y485718D01*
X139931Y485728D01*
X139977Y485752D01*
X140027Y485766D01*
X140086Y485807D01*
X140150Y485840D01*
X140187Y485877D01*
X140229Y485907D01*
X140272Y485964D01*
X140322Y486015D01*
X140357Y486078D01*
X140376Y486104D01*
X140383Y486126D01*
X140403Y486162D01*
X141848Y489651D01*
X145349Y493152D01*
X149924Y495047D01*
X154876Y495047D01*
X159451Y493152D01*
X162952Y489651D01*
X164397Y486162D01*
X164435Y486101D01*
X164464Y486036D01*
X164499Y485997D01*
X164526Y485953D01*
X164582Y485907D01*
X164630Y485855D01*
X164676Y485830D01*
X164716Y485796D01*
X164783Y485771D01*
X164846Y485736D01*
X164897Y485727D01*
X164945Y485708D01*
X165017Y485705D01*
X165088Y485692D01*
X165139Y485700D01*
X165191Y485698D01*
X165260Y485718D01*
X165331Y485728D01*
X165377Y485752D01*
X165427Y485766D01*
X165486Y485807D01*
X165550Y485840D01*
X165587Y485877D01*
X165629Y485907D01*
X165672Y485964D01*
X165722Y486015D01*
X165757Y486078D01*
X165776Y486104D01*
X165783Y486126D01*
X165803Y486162D01*
X167248Y489651D01*
X170749Y493152D01*
X175324Y495047D01*
X180276Y495047D01*
X184851Y493152D01*
X188352Y489651D01*
X189797Y486162D01*
X189835Y486101D01*
X189864Y486036D01*
X189899Y485997D01*
X189926Y485953D01*
X189982Y485907D01*
X190030Y485855D01*
X190076Y485830D01*
X190116Y485796D01*
X190183Y485771D01*
X190246Y485736D01*
X190297Y485727D01*
X190345Y485708D01*
X190417Y485705D01*
X190488Y485692D01*
X190539Y485700D01*
X190591Y485698D01*
X190660Y485718D01*
X190731Y485728D01*
X190777Y485752D01*
X190827Y485766D01*
X190886Y485807D01*
X190950Y485840D01*
X190987Y485877D01*
X191029Y485907D01*
X191072Y485964D01*
X191122Y486015D01*
X191157Y486078D01*
X191176Y486104D01*
X191183Y486126D01*
X191203Y486162D01*
X192648Y489651D01*
X196149Y493152D01*
X200724Y495047D01*
X205676Y495047D01*
X210251Y493152D01*
X213752Y489651D01*
X215647Y485076D01*
X215647Y480124D01*
X213752Y475549D01*
X210251Y472048D01*
X205676Y470153D01*
X200724Y470153D01*
X196149Y472048D01*
X192648Y475549D01*
X191203Y479038D01*
X191165Y479099D01*
X191136Y479164D01*
X191101Y479202D01*
X191074Y479247D01*
X191018Y479293D01*
X190970Y479345D01*
X190924Y479370D01*
X190884Y479404D01*
X190817Y479429D01*
X190754Y479464D01*
X190703Y479473D01*
X190655Y479492D01*
X190583Y479495D01*
X190512Y479508D01*
X190461Y479500D01*
X190409Y479502D01*
X190340Y479482D01*
X190269Y479472D01*
X190223Y479448D01*
X190173Y479434D01*
X190114Y479393D01*
X190050Y479360D01*
X190013Y479323D01*
X189971Y479293D01*
X189928Y479236D01*
X189878Y479185D01*
X189843Y479122D01*
X189824Y479096D01*
X189817Y479074D01*
X189797Y479038D01*
X188352Y475549D01*
X184851Y472048D01*
X180276Y470153D01*
X175239Y470153D01*
X175168Y470142D01*
X175096Y470140D01*
X175047Y470122D01*
X174996Y470114D01*
X174933Y470080D01*
X174865Y470055D01*
X174825Y470023D01*
X174779Y469998D01*
X174729Y469946D01*
X174673Y469902D01*
X174645Y469858D01*
X174609Y469820D01*
X174579Y469755D01*
X174540Y469695D01*
X174528Y469644D01*
X174506Y469597D01*
X174498Y469526D01*
X174480Y469456D01*
X174484Y469404D01*
X174479Y469353D01*
X174494Y469282D01*
X174499Y469211D01*
X174520Y469163D01*
X174531Y469112D01*
X174568Y469051D01*
X174596Y468985D01*
X174640Y468929D01*
X174657Y468901D01*
X174675Y468886D01*
X174700Y468854D01*
X180484Y463070D01*
X182293Y461261D01*
X183214Y459038D01*
X183214Y421860D01*
X183224Y421795D01*
X183225Y421730D01*
X183248Y421650D01*
X183253Y421617D01*
X183262Y421602D01*
X183262Y310870D01*
X183277Y310774D01*
X183287Y310677D01*
X183297Y310653D01*
X183301Y310627D01*
X183347Y310541D01*
X183387Y310452D01*
X183404Y310433D01*
X183417Y310410D01*
X183487Y310343D01*
X183553Y310271D01*
X183576Y310258D01*
X183595Y310240D01*
X183683Y310199D01*
X183769Y310152D01*
X183794Y310148D01*
X183818Y310137D01*
X183915Y310126D01*
X184011Y310109D01*
X184037Y310112D01*
X184062Y310110D01*
X184158Y310130D01*
X184254Y310144D01*
X184277Y310156D01*
X184303Y310162D01*
X184386Y310212D01*
X184473Y310256D01*
X184492Y310275D01*
X184514Y310288D01*
X184577Y310362D01*
X184645Y310431D01*
X184661Y310460D01*
X184674Y310475D01*
X184686Y310506D01*
X184726Y310578D01*
X185962Y313562D01*
X189678Y317278D01*
X194533Y319289D01*
X199787Y319289D01*
X204642Y317278D01*
X208358Y313562D01*
X210369Y308707D01*
X210369Y303453D01*
X208358Y298598D01*
X204642Y294882D01*
X199787Y292871D01*
X194533Y292871D01*
X189678Y294882D01*
X185962Y298598D01*
X184726Y301582D01*
X184675Y301664D01*
X184629Y301750D01*
X184610Y301768D01*
X184597Y301791D01*
X184522Y301853D01*
X184451Y301920D01*
X184427Y301931D01*
X184407Y301947D01*
X184316Y301982D01*
X184228Y302023D01*
X184202Y302026D01*
X184178Y302036D01*
X184080Y302040D01*
X183984Y302050D01*
X183958Y302045D01*
X183932Y302046D01*
X183838Y302019D01*
X183743Y301998D01*
X183721Y301985D01*
X183696Y301978D01*
X183616Y301922D01*
X183532Y301872D01*
X183515Y301852D01*
X183494Y301837D01*
X183435Y301759D01*
X183372Y301685D01*
X183362Y301661D01*
X183347Y301640D01*
X183317Y301547D01*
X183280Y301457D01*
X183277Y301425D01*
X183271Y301406D01*
X183271Y301373D01*
X183262Y301290D01*
X183262Y285792D01*
X182334Y283551D01*
X180606Y281823D01*
X180587Y281812D01*
X180527Y281786D01*
X180462Y281734D01*
X180433Y281717D01*
X180421Y281702D01*
X180396Y281681D01*
X145046Y246332D01*
X142823Y245411D01*
X85135Y245411D01*
X85021Y245392D01*
X84905Y245375D01*
X84899Y245373D01*
X84893Y245372D01*
X84790Y245317D01*
X84685Y245264D01*
X84681Y245259D01*
X84675Y245256D01*
X84595Y245172D01*
X84513Y245088D01*
X84509Y245082D01*
X84506Y245078D01*
X84498Y245061D01*
X84432Y244941D01*
X84212Y244409D01*
X80711Y240908D01*
X77222Y239463D01*
X77161Y239425D01*
X77096Y239396D01*
X77058Y239361D01*
X77013Y239334D01*
X76968Y239278D01*
X76915Y239230D01*
X76890Y239184D01*
X76856Y239144D01*
X76831Y239077D01*
X76796Y239014D01*
X76787Y238963D01*
X76768Y238915D01*
X76765Y238843D01*
X76752Y238772D01*
X76760Y238721D01*
X76758Y238669D01*
X76778Y238600D01*
X76788Y238529D01*
X76812Y238483D01*
X76826Y238433D01*
X76867Y238374D01*
X76900Y238310D01*
X76937Y238273D01*
X76967Y238231D01*
X77024Y238188D01*
X77075Y238138D01*
X77138Y238103D01*
X77164Y238084D01*
X77186Y238077D01*
X77222Y238057D01*
X80711Y236612D01*
X84212Y233111D01*
X86107Y228536D01*
X86107Y223584D01*
X84212Y219009D01*
X80711Y215508D01*
X77222Y214063D01*
X77161Y214025D01*
X77096Y213996D01*
X77058Y213961D01*
X77013Y213934D01*
X76968Y213878D01*
X76915Y213830D01*
X76890Y213784D01*
X76856Y213744D01*
X76831Y213677D01*
X76796Y213614D01*
X76787Y213563D01*
X76768Y213515D01*
X76765Y213443D01*
X76752Y213372D01*
X76760Y213321D01*
X76758Y213269D01*
X76778Y213200D01*
X76788Y213129D01*
X76812Y213083D01*
X76826Y213033D01*
X76867Y212974D01*
X76900Y212910D01*
X76937Y212873D01*
X76967Y212831D01*
X77024Y212788D01*
X77075Y212738D01*
X77138Y212703D01*
X77164Y212684D01*
X77186Y212677D01*
X77222Y212657D01*
X80711Y211212D01*
X84212Y207711D01*
X85484Y204639D01*
X85546Y204539D01*
X85606Y204439D01*
X85611Y204435D01*
X85614Y204430D01*
X85703Y204355D01*
X85793Y204279D01*
X85799Y204277D01*
X85803Y204273D01*
X85911Y204231D01*
X86021Y204187D01*
X86028Y204186D01*
X86033Y204185D01*
X86051Y204184D01*
X86188Y204169D01*
X197519Y204169D01*
X197609Y204183D01*
X197700Y204191D01*
X197730Y204203D01*
X197762Y204208D01*
X197843Y204251D01*
X197927Y204287D01*
X197959Y204313D01*
X197979Y204324D01*
X198002Y204347D01*
X198057Y204392D01*
X222168Y228503D01*
X222221Y228576D01*
X222281Y228646D01*
X222293Y228676D01*
X222312Y228702D01*
X222339Y228789D01*
X222373Y228874D01*
X222377Y228915D01*
X222384Y228937D01*
X222383Y228970D01*
X222391Y229041D01*
X222391Y275540D01*
X222381Y275605D01*
X222380Y275670D01*
X222357Y275750D01*
X222352Y275783D01*
X222343Y275798D01*
X222343Y278233D01*
X223271Y280474D01*
X247680Y304882D01*
X247733Y304956D01*
X247793Y305026D01*
X247805Y305056D01*
X247824Y305082D01*
X247851Y305169D01*
X247885Y305254D01*
X247889Y305295D01*
X247896Y305317D01*
X247895Y305349D01*
X247903Y305421D01*
X247903Y496244D01*
X247885Y496359D01*
X247867Y496475D01*
X247865Y496481D01*
X247864Y496487D01*
X247809Y496590D01*
X247756Y496695D01*
X247751Y496699D01*
X247748Y496705D01*
X247663Y496785D01*
X247580Y496867D01*
X247574Y496870D01*
X247570Y496874D01*
X247553Y496882D01*
X247433Y496948D01*
X246949Y497148D01*
X243448Y500649D01*
X242003Y504138D01*
X241965Y504199D01*
X241936Y504264D01*
X241901Y504302D01*
X241874Y504347D01*
X241818Y504393D01*
X241770Y504445D01*
X241724Y504470D01*
X241684Y504504D01*
X241617Y504529D01*
X241554Y504564D01*
X241503Y504573D01*
X241455Y504592D01*
X241383Y504595D01*
X241312Y504608D01*
X241261Y504600D01*
X241209Y504602D01*
X241140Y504582D01*
X241069Y504572D01*
X241023Y504548D01*
X240973Y504534D01*
X240914Y504493D01*
X240850Y504460D01*
X240813Y504423D01*
X240771Y504393D01*
X240728Y504336D01*
X240678Y504285D01*
X240643Y504222D01*
X240624Y504196D01*
X240617Y504174D01*
X240597Y504138D01*
X239152Y500649D01*
X235651Y497148D01*
X231076Y495253D01*
X226124Y495253D01*
X221549Y497148D01*
X218048Y500649D01*
X216153Y505224D01*
X216153Y510176D01*
X218048Y514751D01*
X221549Y518252D01*
X226124Y520147D01*
X231076Y520147D01*
X235651Y518252D01*
X239152Y514751D01*
X240597Y511262D01*
X240635Y511201D01*
X240664Y511136D01*
X240699Y511098D01*
X240726Y511053D01*
X240782Y511008D01*
X240830Y510955D01*
X240876Y510930D01*
X240916Y510896D01*
X240983Y510871D01*
X241046Y510836D01*
X241097Y510827D01*
X241145Y510808D01*
X241217Y510805D01*
X241288Y510792D01*
X241339Y510800D01*
X241391Y510798D01*
X241460Y510818D01*
X241531Y510828D01*
X241577Y510852D01*
X241627Y510866D01*
X241686Y510907D01*
X241750Y510940D01*
X241787Y510977D01*
X241829Y511007D01*
X241872Y511064D01*
X241922Y511115D01*
X241957Y511178D01*
X241976Y511204D01*
X241983Y511226D01*
X242003Y511262D01*
X243448Y514751D01*
X246949Y518252D01*
X251524Y520147D01*
X256476Y520147D01*
X261051Y518252D01*
X264552Y514751D01*
X266447Y510176D01*
X266447Y505224D01*
X264552Y500649D01*
X261051Y497148D01*
X260567Y496948D01*
X260468Y496886D01*
X260367Y496826D01*
X260363Y496821D01*
X260358Y496818D01*
X260283Y496728D01*
X260207Y496639D01*
X260205Y496633D01*
X260201Y496629D01*
X260159Y496520D01*
X260115Y496411D01*
X260114Y496404D01*
X260113Y496399D01*
X260112Y496381D01*
X260097Y496244D01*
X260097Y301367D01*
X259169Y299126D01*
X234712Y274670D01*
X234659Y274596D01*
X234599Y274526D01*
X234587Y274496D01*
X234568Y274470D01*
X234541Y274383D01*
X234507Y274298D01*
X234503Y274257D01*
X234496Y274235D01*
X234497Y274203D01*
X234489Y274131D01*
X234489Y225017D01*
X233568Y222794D01*
X203766Y192992D01*
X201543Y192071D01*
X82989Y192071D01*
X82899Y192057D01*
X82808Y192049D01*
X82778Y192037D01*
X82746Y192032D01*
X82666Y191989D01*
X82582Y191953D01*
X82550Y191927D01*
X82529Y191916D01*
X82507Y191893D01*
X82451Y191848D01*
X80711Y190108D01*
X77222Y188663D01*
X77161Y188625D01*
X77096Y188596D01*
X77058Y188561D01*
X77013Y188534D01*
X76968Y188478D01*
X76915Y188430D01*
X76890Y188384D01*
X76856Y188344D01*
X76831Y188277D01*
X76796Y188214D01*
X76787Y188163D01*
X76768Y188115D01*
X76765Y188043D01*
X76752Y187972D01*
X76760Y187921D01*
X76758Y187869D01*
X76778Y187800D01*
X76788Y187729D01*
X76812Y187683D01*
X76826Y187633D01*
X76867Y187574D01*
X76900Y187510D01*
X76937Y187473D01*
X76967Y187431D01*
X77024Y187388D01*
X77075Y187338D01*
X77138Y187303D01*
X77164Y187284D01*
X77186Y187277D01*
X77222Y187257D01*
X80711Y185812D01*
X84212Y182311D01*
X86107Y177736D01*
X86107Y172784D01*
X85906Y172300D01*
X85880Y172187D01*
X85851Y172073D01*
X85852Y172067D01*
X85850Y172061D01*
X85861Y171944D01*
X85870Y171828D01*
X85873Y171822D01*
X85873Y171816D01*
X85921Y171708D01*
X85967Y171602D01*
X85971Y171596D01*
X85973Y171591D01*
X85986Y171577D01*
X86071Y171471D01*
X218202Y39340D01*
X218276Y39287D01*
X218346Y39227D01*
X218376Y39215D01*
X218402Y39196D01*
X218489Y39169D01*
X218574Y39135D01*
X218615Y39131D01*
X218637Y39124D01*
X218669Y39125D01*
X218741Y39117D01*
X309579Y39117D01*
X309669Y39131D01*
X309760Y39139D01*
X309790Y39151D01*
X309822Y39156D01*
X309903Y39199D01*
X309987Y39235D01*
X310019Y39261D01*
X310039Y39272D01*
X310062Y39295D01*
X310118Y39340D01*
X316260Y45482D01*
X316313Y45556D01*
X316373Y45626D01*
X316385Y45656D01*
X316404Y45682D01*
X316431Y45769D01*
X316465Y45854D01*
X316469Y45895D01*
X316476Y45917D01*
X316475Y45949D01*
X316483Y46021D01*
X316483Y68443D01*
X316472Y68514D01*
X316470Y68586D01*
X316452Y68635D01*
X316444Y68686D01*
X316410Y68749D01*
X316385Y68817D01*
X316353Y68857D01*
X316328Y68903D01*
X316276Y68953D01*
X316232Y69009D01*
X316188Y69037D01*
X316150Y69073D01*
X316085Y69103D01*
X316025Y69142D01*
X315974Y69154D01*
X315927Y69176D01*
X315856Y69184D01*
X315786Y69202D01*
X315734Y69198D01*
X315683Y69203D01*
X315612Y69188D01*
X315541Y69183D01*
X315493Y69162D01*
X315442Y69151D01*
X315381Y69114D01*
X315315Y69086D01*
X315259Y69041D01*
X315231Y69025D01*
X315216Y69007D01*
X315184Y68981D01*
X311851Y65648D01*
X307276Y63753D01*
X302324Y63753D01*
X297749Y65648D01*
X294248Y69149D01*
X292803Y72638D01*
X292765Y72699D01*
X292736Y72764D01*
X292701Y72802D01*
X292674Y72847D01*
X292618Y72893D01*
X292570Y72945D01*
X292524Y72970D01*
X292484Y73004D01*
X292417Y73029D01*
X292354Y73064D01*
X292303Y73073D01*
X292255Y73092D01*
X292183Y73095D01*
X292112Y73108D01*
X292061Y73100D01*
X292009Y73102D01*
X291940Y73082D01*
X291869Y73072D01*
X291823Y73048D01*
X291773Y73034D01*
X291714Y72993D01*
X291650Y72960D01*
X291613Y72923D01*
X291571Y72893D01*
X291528Y72836D01*
X291478Y72785D01*
X291443Y72722D01*
X291424Y72696D01*
X291417Y72674D01*
X291397Y72638D01*
X289952Y69149D01*
X286451Y65648D01*
X281876Y63753D01*
X276924Y63753D01*
X272349Y65648D01*
X268848Y69149D01*
X266953Y73724D01*
X266953Y78676D01*
X268848Y83251D01*
X272349Y86752D01*
X275838Y88197D01*
X275899Y88235D01*
X275964Y88264D01*
X276002Y88299D01*
X276047Y88326D01*
X276093Y88382D01*
X276145Y88430D01*
X276170Y88476D01*
X276204Y88516D01*
X276229Y88583D01*
X276264Y88646D01*
X276273Y88697D01*
X276292Y88745D01*
X276295Y88817D01*
X276308Y88888D01*
X276300Y88939D01*
X276302Y88991D01*
X276282Y89060D01*
X276272Y89131D01*
X276248Y89177D01*
X276234Y89227D01*
X276193Y89286D01*
X276160Y89350D01*
X276123Y89387D01*
X276093Y89429D01*
X276036Y89472D01*
X275985Y89522D01*
X275922Y89557D01*
X275896Y89576D01*
X275874Y89583D01*
X275838Y89603D01*
X272349Y91048D01*
X268848Y94549D01*
X266953Y99124D01*
X266953Y104076D01*
X268848Y108651D01*
X272349Y112152D01*
X275838Y113597D01*
X275899Y113635D01*
X275964Y113664D01*
X276002Y113699D01*
X276047Y113726D01*
X276093Y113782D01*
X276145Y113830D01*
X276170Y113876D01*
X276204Y113916D01*
X276229Y113983D01*
X276264Y114046D01*
X276273Y114097D01*
X276292Y114145D01*
X276295Y114217D01*
X276308Y114288D01*
X276300Y114339D01*
X276302Y114391D01*
X276282Y114460D01*
X276272Y114531D01*
X276248Y114577D01*
X276234Y114627D01*
X276193Y114686D01*
X276160Y114750D01*
X276123Y114787D01*
X276093Y114829D01*
X276036Y114872D01*
X275985Y114922D01*
X275922Y114957D01*
X275896Y114976D01*
X275874Y114983D01*
X275838Y115003D01*
X272349Y116448D01*
X268848Y119949D01*
X266953Y124524D01*
X266953Y129476D01*
X268848Y134051D01*
X272349Y137552D01*
X275838Y138997D01*
X275899Y139035D01*
X275964Y139064D01*
X276002Y139099D01*
X276047Y139126D01*
X276093Y139182D01*
X276145Y139230D01*
X276170Y139276D01*
X276204Y139316D01*
X276229Y139383D01*
X276264Y139446D01*
X276273Y139497D01*
X276292Y139545D01*
X276295Y139617D01*
X276308Y139688D01*
X276300Y139739D01*
X276302Y139791D01*
X276282Y139860D01*
X276272Y139931D01*
X276248Y139977D01*
X276234Y140027D01*
X276193Y140086D01*
X276160Y140150D01*
X276123Y140187D01*
X276093Y140229D01*
X276036Y140272D01*
X275985Y140322D01*
X275922Y140357D01*
X275896Y140376D01*
X275874Y140383D01*
X275838Y140403D01*
X272349Y141848D01*
X268848Y145349D01*
X266953Y149924D01*
X266953Y154876D01*
X268848Y159451D01*
X272349Y162952D01*
X275838Y164397D01*
X275899Y164435D01*
X275964Y164464D01*
X276002Y164499D01*
X276047Y164526D01*
X276093Y164582D01*
X276145Y164630D01*
X276170Y164676D01*
X276204Y164716D01*
X276229Y164783D01*
X276264Y164846D01*
X276273Y164897D01*
X276292Y164945D01*
X276295Y165017D01*
X276308Y165088D01*
X276300Y165139D01*
X276302Y165191D01*
X276282Y165260D01*
X276272Y165331D01*
X276248Y165377D01*
X276234Y165427D01*
X276193Y165486D01*
X276160Y165550D01*
X276123Y165587D01*
X276093Y165629D01*
X276036Y165672D01*
X275985Y165722D01*
X275922Y165757D01*
X275896Y165776D01*
X275874Y165783D01*
X275838Y165803D01*
X272349Y167248D01*
X268848Y170749D01*
X266953Y175324D01*
X266953Y180276D01*
X268848Y184851D01*
X272349Y188352D01*
X275838Y189797D01*
X275899Y189835D01*
X275964Y189864D01*
X276002Y189899D01*
X276047Y189926D01*
X276093Y189982D01*
X276145Y190030D01*
X276170Y190076D01*
X276204Y190116D01*
X276229Y190183D01*
X276264Y190246D01*
X276273Y190297D01*
X276292Y190345D01*
X276295Y190417D01*
X276308Y190488D01*
X276300Y190539D01*
X276302Y190591D01*
X276282Y190660D01*
X276272Y190731D01*
X276248Y190777D01*
X276234Y190827D01*
X276193Y190886D01*
X276160Y190950D01*
X276123Y190987D01*
X276093Y191029D01*
X276036Y191072D01*
X275985Y191122D01*
X275922Y191157D01*
X275896Y191176D01*
X275874Y191183D01*
X275838Y191203D01*
X272349Y192648D01*
X268848Y196149D01*
X266953Y200724D01*
X266953Y205676D01*
X268848Y210251D01*
X272349Y213752D01*
X275838Y215197D01*
X275899Y215235D01*
X275964Y215264D01*
X276002Y215299D01*
X276047Y215326D01*
X276093Y215382D01*
X276145Y215430D01*
X276170Y215476D01*
X276204Y215516D01*
X276229Y215583D01*
X276264Y215646D01*
X276273Y215697D01*
X276292Y215745D01*
X276295Y215817D01*
X276308Y215888D01*
X276300Y215939D01*
X276302Y215991D01*
X276282Y216060D01*
X276272Y216131D01*
X276248Y216177D01*
X276234Y216227D01*
X276193Y216286D01*
X276160Y216350D01*
X276123Y216387D01*
X276093Y216429D01*
X276036Y216472D01*
X275985Y216522D01*
X275922Y216557D01*
X275896Y216576D01*
X275874Y216583D01*
X275838Y216603D01*
X272349Y218048D01*
X268848Y221549D01*
X266953Y226124D01*
X266953Y231076D01*
X268848Y235651D01*
X272349Y239152D01*
X275838Y240597D01*
X275899Y240635D01*
X275964Y240664D01*
X276002Y240699D01*
X276047Y240726D01*
X276093Y240782D01*
X276145Y240830D01*
X276170Y240876D01*
X276204Y240916D01*
X276229Y240983D01*
X276264Y241046D01*
X276273Y241097D01*
X276292Y241145D01*
X276295Y241217D01*
X276308Y241288D01*
X276300Y241339D01*
X276302Y241391D01*
X276282Y241460D01*
X276272Y241531D01*
X276248Y241577D01*
X276234Y241627D01*
X276193Y241686D01*
X276160Y241750D01*
X276123Y241787D01*
X276093Y241829D01*
X276036Y241872D01*
X275985Y241922D01*
X275922Y241957D01*
X275896Y241976D01*
X275874Y241983D01*
X275838Y242003D01*
X272349Y243448D01*
X268848Y246949D01*
X266953Y251524D01*
X266953Y256476D01*
X268848Y261051D01*
X272349Y264552D01*
X275838Y265997D01*
X275899Y266035D01*
X275964Y266064D01*
X276000Y266096D01*
X276001Y266097D01*
X276002Y266099D01*
X276047Y266126D01*
X276093Y266182D01*
X276145Y266230D01*
X276170Y266276D01*
X276204Y266316D01*
X276229Y266383D01*
X276264Y266446D01*
X276273Y266497D01*
X276292Y266545D01*
X276295Y266617D01*
X276308Y266688D01*
X276300Y266739D01*
X276302Y266791D01*
X276282Y266860D01*
X276272Y266931D01*
X276249Y266975D01*
X276248Y266983D01*
X276246Y266986D01*
X276234Y267027D01*
X276193Y267086D01*
X276160Y267150D01*
X276129Y267180D01*
X276122Y267194D01*
X276113Y267201D01*
X276093Y267229D01*
X276036Y267272D01*
X275985Y267322D01*
X275946Y267343D01*
X275935Y267354D01*
X275917Y267361D01*
X275896Y267376D01*
X275874Y267383D01*
X275838Y267403D01*
X272349Y268848D01*
X268848Y272349D01*
X266953Y276924D01*
X266953Y281876D01*
X268848Y286451D01*
X272349Y289952D01*
X275838Y291397D01*
X275899Y291435D01*
X275964Y291464D01*
X276002Y291499D01*
X276047Y291526D01*
X276093Y291582D01*
X276145Y291630D01*
X276170Y291676D01*
X276204Y291716D01*
X276229Y291783D01*
X276264Y291846D01*
X276273Y291897D01*
X276292Y291945D01*
X276295Y292017D01*
X276308Y292088D01*
X276300Y292139D01*
X276302Y292191D01*
X276282Y292260D01*
X276272Y292331D01*
X276248Y292377D01*
X276234Y292427D01*
X276193Y292486D01*
X276160Y292550D01*
X276123Y292587D01*
X276093Y292629D01*
X276036Y292672D01*
X275985Y292722D01*
X275922Y292757D01*
X275896Y292776D01*
X275874Y292783D01*
X275838Y292803D01*
X272349Y294248D01*
X268848Y297749D01*
X266953Y302324D01*
X266953Y307276D01*
X268848Y311851D01*
X272349Y315352D01*
X275838Y316797D01*
X275899Y316835D01*
X275964Y316864D01*
X276002Y316899D01*
X276047Y316926D01*
X276093Y316982D01*
X276145Y317030D01*
X276170Y317076D01*
X276204Y317116D01*
X276229Y317183D01*
X276264Y317246D01*
X276273Y317297D01*
X276292Y317345D01*
X276295Y317417D01*
X276308Y317488D01*
X276300Y317539D01*
X276302Y317591D01*
X276282Y317660D01*
X276272Y317731D01*
X276248Y317777D01*
X276234Y317827D01*
X276193Y317886D01*
X276160Y317950D01*
X276123Y317987D01*
X276093Y318029D01*
X276036Y318072D01*
X275985Y318122D01*
X275922Y318157D01*
X275896Y318176D01*
X275874Y318183D01*
X275838Y318203D01*
X272349Y319648D01*
X268848Y323149D01*
X266953Y327724D01*
X266953Y332676D01*
X268848Y337251D01*
X272349Y340752D01*
X275838Y342197D01*
X275899Y342235D01*
X275964Y342264D01*
X276002Y342299D01*
X276047Y342326D01*
X276093Y342382D01*
X276145Y342430D01*
X276170Y342476D01*
X276204Y342516D01*
X276229Y342583D01*
X276264Y342646D01*
X276273Y342697D01*
X276292Y342745D01*
X276295Y342817D01*
X276308Y342888D01*
X276300Y342939D01*
X276302Y342991D01*
X276282Y343060D01*
X276272Y343131D01*
X276248Y343177D01*
X276234Y343227D01*
X276193Y343286D01*
X276160Y343350D01*
X276123Y343387D01*
X276093Y343429D01*
X276036Y343472D01*
X275985Y343522D01*
X275922Y343557D01*
X275896Y343576D01*
X275874Y343583D01*
X275838Y343603D01*
X272349Y345048D01*
X268848Y348549D01*
X266953Y353124D01*
X266953Y358076D01*
X268848Y362651D01*
X272349Y366152D01*
X275838Y367597D01*
X275899Y367635D01*
X275964Y367664D01*
X276003Y367699D01*
X276047Y367726D01*
X276093Y367782D01*
X276145Y367830D01*
X276170Y367876D01*
X276204Y367916D01*
X276229Y367983D01*
X276264Y368046D01*
X276273Y368097D01*
X276292Y368145D01*
X276295Y368217D01*
X276308Y368288D01*
X276300Y368339D01*
X276302Y368391D01*
X276282Y368460D01*
X276272Y368531D01*
X276248Y368577D01*
X276234Y368627D01*
X276193Y368686D01*
X276160Y368750D01*
X276123Y368787D01*
X276093Y368829D01*
X276036Y368872D01*
X275985Y368922D01*
X275922Y368957D01*
X275896Y368976D01*
X275874Y368983D01*
X275838Y369003D01*
X272349Y370448D01*
X268848Y373949D01*
X266953Y378524D01*
X266953Y383476D01*
X268848Y388051D01*
X272349Y391552D01*
X275838Y392997D01*
X275899Y393035D01*
X275964Y393064D01*
X276002Y393099D01*
X276047Y393126D01*
X276093Y393182D01*
X276145Y393230D01*
X276170Y393276D01*
X276204Y393316D01*
X276229Y393383D01*
X276264Y393446D01*
X276273Y393497D01*
X276292Y393545D01*
X276295Y393617D01*
X276308Y393688D01*
X276300Y393739D01*
X276302Y393791D01*
X276282Y393860D01*
X276272Y393931D01*
X276248Y393977D01*
X276234Y394027D01*
X276193Y394086D01*
X276160Y394150D01*
X276123Y394187D01*
X276093Y394229D01*
X276036Y394272D01*
X275985Y394322D01*
X275922Y394357D01*
X275896Y394376D01*
X275874Y394383D01*
X275838Y394403D01*
X272349Y395848D01*
X268848Y399349D01*
X266953Y403924D01*
X266953Y408876D01*
X268848Y413451D01*
X272349Y416952D01*
X275838Y418397D01*
X275899Y418435D01*
X275964Y418464D01*
X276002Y418499D01*
X276047Y418526D01*
X276093Y418582D01*
X276145Y418630D01*
X276170Y418676D01*
X276204Y418716D01*
X276229Y418783D01*
X276264Y418846D01*
X276273Y418897D01*
X276292Y418945D01*
X276295Y419017D01*
X276308Y419088D01*
X276300Y419139D01*
X276302Y419191D01*
X276282Y419260D01*
X276272Y419331D01*
X276248Y419377D01*
X276234Y419427D01*
X276193Y419486D01*
X276160Y419550D01*
X276123Y419587D01*
X276093Y419629D01*
X276036Y419672D01*
X275985Y419722D01*
X275922Y419757D01*
X275896Y419776D01*
X275874Y419783D01*
X275838Y419803D01*
X272349Y421248D01*
X268848Y424749D01*
X266953Y429324D01*
X266953Y434276D01*
X268848Y438851D01*
X272349Y442352D01*
X275838Y443797D01*
X275899Y443835D01*
X275964Y443864D01*
X276002Y443899D01*
X276047Y443926D01*
X276093Y443982D01*
X276145Y444030D01*
X276170Y444076D01*
X276204Y444116D01*
X276229Y444183D01*
X276264Y444246D01*
X276273Y444297D01*
X276292Y444345D01*
X276295Y444417D01*
X276308Y444488D01*
X276300Y444539D01*
X276302Y444591D01*
X276282Y444660D01*
X276272Y444731D01*
X276248Y444777D01*
X276234Y444827D01*
X276193Y444886D01*
X276160Y444950D01*
X276123Y444987D01*
X276093Y445029D01*
X276036Y445072D01*
X275985Y445122D01*
X275922Y445157D01*
X275896Y445176D01*
X275874Y445183D01*
X275838Y445203D01*
X272349Y446648D01*
X268848Y450149D01*
X266953Y454724D01*
X266953Y459676D01*
X268848Y464251D01*
X272349Y467752D01*
X275838Y469197D01*
X275899Y469235D01*
X275964Y469264D01*
X276002Y469299D01*
X276047Y469326D01*
X276093Y469382D01*
X276145Y469430D01*
X276170Y469476D01*
X276204Y469516D01*
X276229Y469583D01*
X276264Y469646D01*
X276273Y469697D01*
X276292Y469745D01*
X276295Y469817D01*
X276308Y469888D01*
X276300Y469939D01*
X276302Y469991D01*
X276282Y470060D01*
X276272Y470131D01*
X276248Y470177D01*
X276234Y470227D01*
X276193Y470286D01*
X276160Y470350D01*
X276123Y470387D01*
X276093Y470429D01*
X276036Y470472D01*
X275985Y470522D01*
X275922Y470557D01*
X275896Y470576D01*
X275874Y470583D01*
X275838Y470603D01*
X272349Y472048D01*
X268848Y475549D01*
X266953Y480124D01*
X266953Y485076D01*
X268848Y489651D01*
X272349Y493152D01*
X276924Y495047D01*
X281876Y495047D01*
X286451Y493152D01*
X289952Y489651D01*
X291397Y486162D01*
X291435Y486101D01*
X291464Y486036D01*
X291499Y485998D01*
X291526Y485953D01*
X291582Y485907D01*
X291630Y485855D01*
X291676Y485830D01*
X291716Y485796D01*
X291783Y485771D01*
X291846Y485736D01*
X291897Y485727D01*
X291945Y485708D01*
X292017Y485705D01*
X292088Y485692D01*
X292139Y485700D01*
X292191Y485698D01*
X292260Y485718D01*
X292331Y485728D01*
X292377Y485752D01*
X292427Y485766D01*
X292486Y485807D01*
X292550Y485840D01*
X292587Y485877D01*
X292629Y485907D01*
X292672Y485964D01*
X292722Y486015D01*
X292757Y486078D01*
X292776Y486104D01*
X292783Y486126D01*
X292803Y486162D01*
X294248Y489651D01*
X297749Y493152D01*
X302324Y495047D01*
X307276Y495047D01*
X311851Y493152D01*
X315352Y489651D01*
X317247Y485076D01*
X317247Y480124D01*
X315352Y475549D01*
X311851Y472048D01*
X308362Y470603D01*
X308301Y470565D01*
X308236Y470536D01*
X308198Y470501D01*
X308153Y470474D01*
X308108Y470418D01*
X308055Y470370D01*
X308030Y470324D01*
X307996Y470284D01*
X307971Y470217D01*
X307936Y470154D01*
X307927Y470103D01*
X307908Y470055D01*
X307905Y469983D01*
X307892Y469912D01*
X307900Y469861D01*
X307898Y469809D01*
X307918Y469740D01*
X307928Y469669D01*
X307952Y469623D01*
X307966Y469573D01*
X308007Y469514D01*
X308040Y469450D01*
X308077Y469413D01*
X308107Y469371D01*
X308164Y469328D01*
X308215Y469278D01*
X308278Y469243D01*
X308304Y469224D01*
X308326Y469217D01*
X308362Y469197D01*
X311851Y467752D01*
X315352Y464251D01*
X317247Y459676D01*
X317247Y454724D01*
X315352Y450149D01*
X311851Y446648D01*
X308362Y445203D01*
X308301Y445165D01*
X308236Y445136D01*
X308198Y445101D01*
X308153Y445074D01*
X308108Y445018D01*
X308055Y444970D01*
X308030Y444924D01*
X307996Y444884D01*
X307971Y444817D01*
X307936Y444754D01*
X307927Y444703D01*
X307908Y444655D01*
X307905Y444583D01*
X307892Y444512D01*
X307900Y444461D01*
X307898Y444409D01*
X307918Y444340D01*
X307928Y444269D01*
X307952Y444223D01*
X307966Y444173D01*
X308007Y444114D01*
X308040Y444050D01*
X308077Y444013D01*
X308107Y443971D01*
X308164Y443928D01*
X308215Y443878D01*
X308278Y443843D01*
X308304Y443824D01*
X308326Y443817D01*
X308362Y443797D01*
X311851Y442352D01*
X315352Y438851D01*
X317247Y434276D01*
X317247Y429324D01*
X315352Y424749D01*
X311851Y421248D01*
X308362Y419803D01*
X308301Y419765D01*
X308236Y419736D01*
X308198Y419701D01*
X308153Y419674D01*
X308108Y419618D01*
X308055Y419570D01*
X308030Y419524D01*
X307996Y419484D01*
X307971Y419417D01*
X307936Y419354D01*
X307927Y419303D01*
X307908Y419255D01*
X307905Y419183D01*
X307892Y419112D01*
X307900Y419061D01*
X307898Y419009D01*
X307918Y418940D01*
X307928Y418869D01*
X307952Y418823D01*
X307966Y418773D01*
X308007Y418714D01*
X308040Y418650D01*
X308077Y418613D01*
X308107Y418571D01*
X308164Y418528D01*
X308215Y418478D01*
X308278Y418443D01*
X308304Y418424D01*
X308326Y418417D01*
X308362Y418397D01*
X311851Y416952D01*
X315352Y413451D01*
X317247Y408876D01*
X317247Y403924D01*
X315352Y399349D01*
X311851Y395848D01*
X308362Y394403D01*
X308301Y394365D01*
X308236Y394336D01*
X308197Y394301D01*
X308153Y394274D01*
X308107Y394218D01*
X308055Y394170D01*
X308030Y394124D01*
X307996Y394084D01*
X307971Y394017D01*
X307936Y393954D01*
X307927Y393903D01*
X307908Y393855D01*
X307905Y393783D01*
X307892Y393712D01*
X307900Y393661D01*
X307898Y393609D01*
X307918Y393540D01*
X307928Y393469D01*
X307952Y393423D01*
X307966Y393373D01*
X308007Y393314D01*
X308040Y393250D01*
X308077Y393213D01*
X308107Y393171D01*
X308164Y393128D01*
X308215Y393078D01*
X308278Y393043D01*
X308304Y393024D01*
X308326Y393017D01*
X308362Y392997D01*
X311851Y391552D01*
X315352Y388051D01*
X317247Y383476D01*
X317247Y378524D01*
X315352Y373949D01*
X311851Y370448D01*
X308362Y369003D01*
X308301Y368965D01*
X308236Y368936D01*
X308197Y368901D01*
X308153Y368874D01*
X308107Y368818D01*
X308055Y368770D01*
X308030Y368724D01*
X307996Y368684D01*
X307971Y368617D01*
X307936Y368554D01*
X307927Y368503D01*
X307908Y368455D01*
X307905Y368383D01*
X307892Y368312D01*
X307900Y368261D01*
X307898Y368209D01*
X307918Y368140D01*
X307928Y368069D01*
X307952Y368023D01*
X307966Y367973D01*
X308007Y367914D01*
X308040Y367850D01*
X308077Y367813D01*
X308107Y367771D01*
X308164Y367728D01*
X308215Y367678D01*
X308278Y367643D01*
X308304Y367624D01*
X308326Y367617D01*
X308362Y367597D01*
X311851Y366152D01*
X315352Y362651D01*
X316072Y360912D01*
X316107Y360856D01*
X316132Y360796D01*
X316184Y360731D01*
X316201Y360703D01*
X316217Y360691D01*
X316237Y360665D01*
X340449Y336454D01*
X341377Y334213D01*
X341377Y34347D01*
X340449Y32106D01*
X338626Y30284D01*
X321506Y13164D01*
X321506Y13163D01*
X320564Y12222D01*
X320522Y12164D01*
X320473Y12112D01*
X320451Y12065D01*
X320421Y12023D01*
X320400Y11954D01*
X320369Y11889D01*
X320364Y11837D01*
X320348Y11787D01*
X320350Y11716D01*
X320342Y11645D01*
X320353Y11594D01*
X320355Y11542D01*
X320379Y11474D01*
X320395Y11404D01*
X320421Y11359D01*
X320439Y11311D01*
X320484Y11255D01*
X320521Y11193D01*
X320560Y11159D01*
X320593Y11119D01*
X320653Y11080D01*
X320708Y11033D01*
X320756Y11014D01*
X320800Y10986D01*
X320869Y10968D01*
X320936Y10941D01*
X321007Y10933D01*
X321038Y10925D01*
X321062Y10927D01*
X321103Y10923D01*
X325360Y10923D01*
X325450Y10937D01*
X325541Y10945D01*
X325571Y10957D01*
X325603Y10962D01*
X325684Y11005D01*
X325768Y11041D01*
X325800Y11067D01*
X325820Y11078D01*
X325843Y11101D01*
X325899Y11146D01*
X344454Y29701D01*
X344507Y29775D01*
X344567Y29845D01*
X344579Y29875D01*
X344598Y29901D01*
X344625Y29988D01*
X344659Y30073D01*
X344663Y30114D01*
X344670Y30136D01*
X344669Y30168D01*
X344677Y30240D01*
X344677Y503160D01*
X344663Y503250D01*
X344655Y503341D01*
X344643Y503371D01*
X344638Y503403D01*
X344595Y503484D01*
X344559Y503568D01*
X344533Y503600D01*
X344522Y503620D01*
X344499Y503643D01*
X344454Y503699D01*
X325899Y522254D01*
X325825Y522307D01*
X325755Y522367D01*
X325725Y522379D01*
X325699Y522398D01*
X325612Y522425D01*
X325527Y522459D01*
X325486Y522463D01*
X325464Y522470D01*
X325432Y522469D01*
X325360Y522477D01*
X17540Y522477D01*
X17450Y522463D01*
X17359Y522455D01*
X17329Y522443D01*
X17297Y522438D01*
X17216Y522395D01*
X17132Y522359D01*
X17100Y522333D01*
X17080Y522322D01*
X17057Y522299D01*
X17001Y522254D01*
X11146Y516399D01*
X11093Y516325D01*
X11033Y516255D01*
X11021Y516225D01*
X11002Y516199D01*
X10975Y516112D01*
X10941Y516027D01*
X10937Y515986D01*
X10930Y515964D01*
X10931Y515932D01*
X10923Y515860D01*
X10923Y17540D01*
X10937Y17450D01*
X10945Y17359D01*
X10957Y17329D01*
X10962Y17297D01*
X11005Y17216D01*
X11041Y17132D01*
X11067Y17100D01*
X11078Y17080D01*
X11101Y17057D01*
X11146Y17001D01*
X17001Y11146D01*
X17075Y11093D01*
X17145Y11033D01*
X17175Y11021D01*
X17201Y11002D01*
X17288Y10975D01*
X17373Y10941D01*
X17414Y10937D01*
X17436Y10930D01*
X17468Y10931D01*
X17540Y10923D01*
X176737Y10923D01*
X176808Y10934D01*
G37*
G36*
X138889Y257523D02*
X138889Y257523D01*
X138980Y257531D01*
X139010Y257543D01*
X139042Y257548D01*
X139123Y257591D01*
X139207Y257627D01*
X139239Y257653D01*
X139259Y257664D01*
X139282Y257687D01*
X139337Y257732D01*
X170845Y289240D01*
X170898Y289313D01*
X170958Y289383D01*
X170970Y289413D01*
X170989Y289439D01*
X171016Y289526D01*
X171050Y289611D01*
X171054Y289652D01*
X171061Y289674D01*
X171060Y289707D01*
X171068Y289778D01*
X171068Y421611D01*
X171073Y421632D01*
X171098Y421693D01*
X171107Y421776D01*
X171114Y421808D01*
X171113Y421827D01*
X171116Y421860D01*
X171116Y455014D01*
X171102Y455104D01*
X171094Y455195D01*
X171082Y455225D01*
X171077Y455257D01*
X171034Y455338D01*
X170998Y455422D01*
X170972Y455454D01*
X170961Y455474D01*
X170938Y455497D01*
X170893Y455552D01*
X156237Y470209D01*
X156142Y470277D01*
X156049Y470346D01*
X156043Y470348D01*
X156037Y470352D01*
X155926Y470386D01*
X155815Y470423D01*
X155808Y470423D01*
X155802Y470424D01*
X155686Y470421D01*
X155569Y470420D01*
X155562Y470418D01*
X155557Y470418D01*
X155539Y470412D01*
X155408Y470374D01*
X154876Y470153D01*
X149924Y470153D01*
X145349Y472048D01*
X141848Y475549D01*
X140403Y479038D01*
X140365Y479099D01*
X140336Y479164D01*
X140301Y479202D01*
X140274Y479247D01*
X140218Y479293D01*
X140170Y479345D01*
X140124Y479370D01*
X140084Y479404D01*
X140017Y479429D01*
X139954Y479464D01*
X139903Y479473D01*
X139855Y479492D01*
X139783Y479495D01*
X139712Y479508D01*
X139661Y479500D01*
X139609Y479502D01*
X139540Y479482D01*
X139469Y479472D01*
X139423Y479448D01*
X139373Y479434D01*
X139314Y479393D01*
X139250Y479360D01*
X139213Y479323D01*
X139171Y479293D01*
X139128Y479236D01*
X139078Y479185D01*
X139043Y479122D01*
X139024Y479096D01*
X139017Y479074D01*
X138997Y479038D01*
X137552Y475549D01*
X134051Y472048D01*
X129476Y470153D01*
X124524Y470153D01*
X119949Y472048D01*
X116448Y475549D01*
X115003Y479038D01*
X114965Y479099D01*
X114936Y479164D01*
X114901Y479202D01*
X114874Y479247D01*
X114818Y479293D01*
X114770Y479345D01*
X114724Y479370D01*
X114684Y479404D01*
X114617Y479429D01*
X114554Y479464D01*
X114503Y479473D01*
X114455Y479492D01*
X114383Y479495D01*
X114312Y479508D01*
X114261Y479500D01*
X114209Y479502D01*
X114140Y479482D01*
X114069Y479472D01*
X114023Y479448D01*
X113973Y479434D01*
X113914Y479393D01*
X113850Y479360D01*
X113813Y479323D01*
X113771Y479293D01*
X113728Y479236D01*
X113678Y479185D01*
X113643Y479122D01*
X113624Y479096D01*
X113617Y479074D01*
X113597Y479038D01*
X112152Y475549D01*
X108651Y472048D01*
X104076Y470153D01*
X99124Y470153D01*
X98592Y470374D01*
X98478Y470400D01*
X98365Y470429D01*
X98359Y470428D01*
X98353Y470430D01*
X98236Y470419D01*
X98120Y470410D01*
X98114Y470407D01*
X98108Y470407D01*
X98001Y470359D01*
X97894Y470313D01*
X97888Y470309D01*
X97883Y470307D01*
X97870Y470294D01*
X97763Y470209D01*
X95172Y467617D01*
X95119Y467544D01*
X95059Y467474D01*
X95047Y467444D01*
X95028Y467418D01*
X95001Y467331D01*
X94967Y467246D01*
X94963Y467205D01*
X94956Y467183D01*
X94957Y467150D01*
X94949Y467079D01*
X94949Y344037D01*
X94964Y343941D01*
X94974Y343844D01*
X94984Y343820D01*
X94988Y343794D01*
X95034Y343708D01*
X95074Y343619D01*
X95091Y343600D01*
X95104Y343577D01*
X95174Y343510D01*
X95240Y343438D01*
X95263Y343425D01*
X95282Y343407D01*
X95370Y343366D01*
X95456Y343319D01*
X95481Y343315D01*
X95505Y343304D01*
X95602Y343293D01*
X95698Y343276D01*
X95724Y343279D01*
X95749Y343277D01*
X95845Y343297D01*
X95941Y343311D01*
X95964Y343323D01*
X95990Y343329D01*
X96073Y343379D01*
X96160Y343423D01*
X96179Y343442D01*
X96201Y343455D01*
X96264Y343529D01*
X96332Y343599D01*
X96348Y343627D01*
X96361Y343642D01*
X96373Y343673D01*
X96413Y343746D01*
X97062Y345312D01*
X100778Y349028D01*
X105633Y351039D01*
X110887Y351039D01*
X115742Y349028D01*
X119458Y345312D01*
X121469Y340457D01*
X121469Y335203D01*
X119458Y330348D01*
X115742Y326632D01*
X110887Y324621D01*
X105633Y324621D01*
X100778Y326632D01*
X97062Y330348D01*
X96413Y331914D01*
X96362Y331998D01*
X96316Y332083D01*
X96298Y332101D01*
X96284Y332124D01*
X96208Y332186D01*
X96138Y332253D01*
X96114Y332264D01*
X96094Y332280D01*
X96003Y332315D01*
X95915Y332356D01*
X95889Y332359D01*
X95865Y332369D01*
X95767Y332373D01*
X95671Y332383D01*
X95645Y332378D01*
X95619Y332379D01*
X95525Y332352D01*
X95430Y332331D01*
X95408Y332318D01*
X95383Y332310D01*
X95303Y332255D01*
X95219Y332205D01*
X95202Y332185D01*
X95181Y332170D01*
X95122Y332092D01*
X95059Y332018D01*
X95049Y331994D01*
X95034Y331973D01*
X95004Y331880D01*
X94967Y331790D01*
X94964Y331757D01*
X94958Y331739D01*
X94958Y331706D01*
X94949Y331623D01*
X94949Y290897D01*
X94028Y288674D01*
X92219Y286865D01*
X86051Y280697D01*
X85984Y280603D01*
X85914Y280509D01*
X85912Y280503D01*
X85908Y280498D01*
X85874Y280386D01*
X85837Y280275D01*
X85837Y280268D01*
X85836Y280262D01*
X85839Y280146D01*
X85840Y280029D01*
X85842Y280022D01*
X85842Y280017D01*
X85848Y279999D01*
X85886Y279868D01*
X86107Y279336D01*
X86107Y274384D01*
X84212Y269809D01*
X80711Y266308D01*
X77222Y264863D01*
X77161Y264825D01*
X77096Y264796D01*
X77058Y264761D01*
X77013Y264734D01*
X76968Y264678D01*
X76915Y264630D01*
X76890Y264584D01*
X76856Y264544D01*
X76831Y264477D01*
X76796Y264414D01*
X76787Y264363D01*
X76768Y264315D01*
X76765Y264243D01*
X76752Y264172D01*
X76760Y264121D01*
X76758Y264069D01*
X76778Y264000D01*
X76788Y263929D01*
X76812Y263883D01*
X76826Y263833D01*
X76867Y263774D01*
X76900Y263710D01*
X76937Y263673D01*
X76967Y263631D01*
X77024Y263588D01*
X77075Y263538D01*
X77138Y263503D01*
X77164Y263484D01*
X77186Y263477D01*
X77222Y263457D01*
X80711Y262012D01*
X84212Y258511D01*
X84432Y257979D01*
X84494Y257879D01*
X84554Y257779D01*
X84558Y257775D01*
X84562Y257770D01*
X84651Y257695D01*
X84741Y257619D01*
X84746Y257617D01*
X84751Y257613D01*
X84859Y257571D01*
X84969Y257527D01*
X84976Y257526D01*
X84981Y257525D01*
X84999Y257524D01*
X85135Y257509D01*
X138799Y257509D01*
X138889Y257523D01*
G37*
G36*
X39647Y260737D02*
X39647Y260737D01*
X39751Y260740D01*
X39770Y260746D01*
X39789Y260748D01*
X39884Y260788D01*
X39982Y260824D01*
X39997Y260836D01*
X40016Y260844D01*
X40147Y260949D01*
X41209Y262012D01*
X44698Y263457D01*
X44759Y263495D01*
X44824Y263524D01*
X44862Y263559D01*
X44907Y263586D01*
X44953Y263642D01*
X45005Y263690D01*
X45030Y263736D01*
X45064Y263776D01*
X45089Y263843D01*
X45124Y263906D01*
X45133Y263957D01*
X45152Y264005D01*
X45155Y264077D01*
X45168Y264148D01*
X45160Y264199D01*
X45162Y264251D01*
X45142Y264320D01*
X45132Y264391D01*
X45108Y264437D01*
X45094Y264487D01*
X45053Y264546D01*
X45020Y264610D01*
X44983Y264647D01*
X44953Y264689D01*
X44896Y264732D01*
X44845Y264782D01*
X44782Y264817D01*
X44756Y264836D01*
X44734Y264843D01*
X44698Y264863D01*
X41209Y266308D01*
X37708Y269809D01*
X35813Y274384D01*
X35813Y279336D01*
X37708Y283911D01*
X41209Y287412D01*
X44698Y288857D01*
X44759Y288895D01*
X44824Y288924D01*
X44862Y288959D01*
X44907Y288986D01*
X44953Y289042D01*
X45005Y289090D01*
X45030Y289136D01*
X45064Y289176D01*
X45089Y289243D01*
X45124Y289306D01*
X45133Y289357D01*
X45152Y289405D01*
X45155Y289477D01*
X45168Y289548D01*
X45160Y289599D01*
X45162Y289651D01*
X45142Y289720D01*
X45132Y289791D01*
X45108Y289837D01*
X45094Y289887D01*
X45053Y289946D01*
X45020Y290010D01*
X44983Y290047D01*
X44953Y290089D01*
X44896Y290132D01*
X44845Y290182D01*
X44782Y290217D01*
X44756Y290236D01*
X44734Y290243D01*
X44698Y290263D01*
X41209Y291708D01*
X37708Y295209D01*
X35813Y299784D01*
X35813Y304736D01*
X37708Y309311D01*
X41209Y312812D01*
X45784Y314707D01*
X50736Y314707D01*
X55311Y312812D01*
X58812Y309311D01*
X60707Y304736D01*
X60707Y299784D01*
X58812Y295209D01*
X55311Y291708D01*
X51822Y290263D01*
X51761Y290225D01*
X51696Y290196D01*
X51658Y290161D01*
X51613Y290134D01*
X51568Y290078D01*
X51515Y290030D01*
X51490Y289984D01*
X51456Y289944D01*
X51431Y289877D01*
X51396Y289814D01*
X51387Y289763D01*
X51368Y289715D01*
X51365Y289643D01*
X51352Y289572D01*
X51360Y289521D01*
X51358Y289469D01*
X51378Y289400D01*
X51388Y289329D01*
X51412Y289283D01*
X51426Y289233D01*
X51467Y289174D01*
X51500Y289110D01*
X51537Y289073D01*
X51567Y289031D01*
X51624Y288988D01*
X51675Y288938D01*
X51738Y288903D01*
X51764Y288884D01*
X51786Y288877D01*
X51822Y288857D01*
X55311Y287412D01*
X58812Y283911D01*
X60257Y280422D01*
X60295Y280361D01*
X60324Y280296D01*
X60359Y280258D01*
X60386Y280213D01*
X60442Y280168D01*
X60490Y280115D01*
X60536Y280090D01*
X60576Y280056D01*
X60643Y280031D01*
X60706Y279996D01*
X60757Y279987D01*
X60805Y279968D01*
X60877Y279965D01*
X60948Y279952D01*
X60999Y279960D01*
X61051Y279958D01*
X61120Y279978D01*
X61191Y279988D01*
X61237Y280012D01*
X61287Y280026D01*
X61346Y280067D01*
X61410Y280100D01*
X61447Y280137D01*
X61489Y280167D01*
X61532Y280224D01*
X61582Y280275D01*
X61617Y280338D01*
X61636Y280364D01*
X61643Y280386D01*
X61663Y280422D01*
X63108Y283911D01*
X66609Y287412D01*
X71184Y289307D01*
X76136Y289307D01*
X76668Y289086D01*
X76781Y289060D01*
X76895Y289031D01*
X76901Y289032D01*
X76907Y289030D01*
X77024Y289041D01*
X77140Y289050D01*
X77146Y289053D01*
X77152Y289053D01*
X77260Y289101D01*
X77366Y289147D01*
X77372Y289151D01*
X77377Y289153D01*
X77391Y289166D01*
X77497Y289251D01*
X82628Y294383D01*
X82681Y294456D01*
X82741Y294526D01*
X82753Y294556D01*
X82772Y294582D01*
X82799Y294669D01*
X82833Y294754D01*
X82837Y294795D01*
X82844Y294817D01*
X82843Y294850D01*
X82851Y294921D01*
X82851Y421874D01*
X82836Y421970D01*
X82826Y422067D01*
X82816Y422091D01*
X82812Y422117D01*
X82766Y422203D01*
X82726Y422292D01*
X82709Y422312D01*
X82696Y422335D01*
X82626Y422402D01*
X82560Y422473D01*
X82537Y422486D01*
X82518Y422504D01*
X82430Y422545D01*
X82344Y422592D01*
X82319Y422597D01*
X82295Y422608D01*
X82198Y422618D01*
X82102Y422636D01*
X82076Y422632D01*
X82051Y422635D01*
X81956Y422614D01*
X81859Y422600D01*
X81836Y422588D01*
X81810Y422582D01*
X81727Y422532D01*
X81640Y422488D01*
X81621Y422470D01*
X81599Y422456D01*
X81536Y422382D01*
X81468Y422313D01*
X81452Y422284D01*
X81439Y422269D01*
X81427Y422238D01*
X81387Y422166D01*
X81328Y422024D01*
X29767Y370462D01*
X29714Y370389D01*
X29654Y370319D01*
X29642Y370289D01*
X29623Y370263D01*
X29596Y370176D01*
X29562Y370091D01*
X29558Y370050D01*
X29551Y370028D01*
X29552Y369995D01*
X29544Y369924D01*
X29544Y270791D01*
X29558Y270701D01*
X29566Y270610D01*
X29578Y270580D01*
X29583Y270548D01*
X29626Y270467D01*
X29662Y270383D01*
X29688Y270351D01*
X29699Y270331D01*
X29722Y270308D01*
X29767Y270253D01*
X39070Y260949D01*
X39086Y260937D01*
X39099Y260922D01*
X39186Y260866D01*
X39270Y260806D01*
X39289Y260800D01*
X39306Y260789D01*
X39406Y260764D01*
X39505Y260733D01*
X39525Y260734D01*
X39544Y260729D01*
X39647Y260737D01*
G37*
%LPC*%
G36*
X194533Y216671D02*
X194533Y216671D01*
X189678Y218682D01*
X185962Y222398D01*
X183951Y227253D01*
X183951Y232507D01*
X185962Y237362D01*
X189678Y241078D01*
X194533Y243089D01*
X199787Y243089D01*
X204642Y241078D01*
X208358Y237362D01*
X210369Y232507D01*
X210369Y227253D01*
X208358Y222398D01*
X204642Y218682D01*
X199787Y216671D01*
X194533Y216671D01*
G37*
%LPD*%
%LPC*%
G36*
X156433Y216671D02*
X156433Y216671D01*
X151578Y218682D01*
X147862Y222398D01*
X145851Y227253D01*
X145851Y232507D01*
X147862Y237362D01*
X151578Y241078D01*
X156433Y243089D01*
X161687Y243089D01*
X166542Y241078D01*
X170258Y237362D01*
X172269Y232507D01*
X172269Y227253D01*
X170258Y222398D01*
X166542Y218682D01*
X161687Y216671D01*
X156433Y216671D01*
G37*
%LPD*%
%LPC*%
G36*
X217922Y348116D02*
X217922Y348116D01*
X216136Y349902D01*
X216136Y368938D01*
X217922Y370724D01*
X236958Y370724D01*
X238744Y368938D01*
X238744Y349902D01*
X236958Y348116D01*
X217922Y348116D01*
G37*
%LPD*%
D10*
X304800Y50800D03*
X304800Y76200D03*
X304800Y101600D03*
X304800Y127000D03*
X304800Y152400D03*
X304800Y177800D03*
X304800Y203200D03*
X304800Y228600D03*
X304800Y254000D03*
X304800Y279400D03*
X304800Y304800D03*
X304800Y330200D03*
X304800Y355600D03*
X304800Y381000D03*
X304800Y406400D03*
X304800Y431800D03*
X304800Y457200D03*
X304800Y482600D03*
X279400Y50800D03*
X279400Y76200D03*
X279400Y101600D03*
X279400Y127000D03*
X279400Y152400D03*
X279400Y177800D03*
X279400Y203200D03*
X279400Y228600D03*
X279400Y254000D03*
X279400Y279400D03*
X279400Y304800D03*
X279400Y330200D03*
X279400Y355600D03*
X279400Y381000D03*
X279400Y406400D03*
X279400Y431800D03*
X279400Y457200D03*
X279400Y482600D03*
X203200Y482600D03*
X177800Y482600D03*
X152400Y482600D03*
X127000Y482600D03*
X101600Y482600D03*
X76200Y482600D03*
X50800Y482600D03*
X25400Y482600D03*
X73660Y73660D03*
X48260Y73660D03*
X73660Y99060D03*
X48260Y99060D03*
X73660Y124460D03*
X48260Y124460D03*
X73660Y149860D03*
X48260Y149860D03*
X73660Y175260D03*
X48260Y175260D03*
X73660Y200660D03*
X48260Y200660D03*
X73660Y226060D03*
X48260Y226060D03*
X73660Y251460D03*
X48260Y251460D03*
X73660Y276860D03*
X48260Y276860D03*
X73660Y302260D03*
X48260Y302260D03*
X254000Y507700D03*
X228600Y507700D03*
D11*
X197160Y306080D03*
X197160Y229880D03*
X159060Y306080D03*
X159060Y229880D03*
D12*
X202440Y359420D03*
D13*
X227440Y359420D03*
D11*
X108260Y337830D03*
X108260Y365770D03*
D14*
X73660Y124460D02*
X181610Y16510D01*
X316230Y16510D02*
X335280Y35560D01*
X335280Y333000D01*
X316230Y16510D02*
X181610Y16510D01*
X304800Y355600D02*
X312680Y355600D01*
X335280Y333000D01*
X322580Y316480D02*
X322580Y43180D01*
X312420Y33020D01*
X308860Y330200D02*
X304800Y330200D01*
X308860Y330200D02*
X322580Y316480D01*
X312420Y33020D02*
X215900Y33020D01*
X73660Y175260D01*
D15*
X76200Y198120D02*
X200340Y198120D01*
X76200Y198120D02*
X73660Y200660D01*
X228440Y226220D02*
X228440Y277020D01*
X228440Y226220D02*
X200340Y198120D01*
D14*
X228440Y277020D02*
X254000Y302580D01*
X254000Y507700D01*
D15*
X88900Y292100D02*
X73660Y276860D01*
X88900Y469900D02*
X101600Y482600D01*
X88900Y469900D02*
X88900Y292100D01*
X141620Y251460D02*
X177165Y287005D01*
X141620Y251460D02*
X73660Y251460D01*
X177165Y457835D02*
X152400Y482600D01*
X177165Y457835D02*
X177165Y420380D01*
D14*
X177165Y287005D01*
D15*
X48260Y251460D02*
X40005Y251460D01*
X23495Y267970D01*
X23495Y372745D01*
X76200Y425450D01*
X76200Y482600D01*
M02*
