G04 EAGLE Gerber RS-274X export*
G75*
%MOMM*%
%FSLAX34Y34*%
%LPD*%
%INSilkscreen Bottom*%
%IPPOS*%
%AMOC8*
5,1,8,0,0,1.08239X$1,22.5*%
G01*
%ADD10C,0.406400*%
%ADD11C,0.203200*%


D10*
X264678Y46482D02*
X248422Y46482D01*
X248422Y53707D01*
X254744Y63746D02*
X254744Y67810D01*
X254744Y63746D02*
X254742Y63634D01*
X254736Y63523D01*
X254726Y63412D01*
X254713Y63301D01*
X254695Y63191D01*
X254673Y63082D01*
X254648Y62973D01*
X254619Y62865D01*
X254586Y62759D01*
X254549Y62653D01*
X254509Y62549D01*
X254465Y62447D01*
X254417Y62346D01*
X254366Y62247D01*
X254311Y62149D01*
X254253Y62054D01*
X254192Y61961D01*
X254127Y61870D01*
X254059Y61781D01*
X253988Y61695D01*
X253915Y61612D01*
X253838Y61531D01*
X253758Y61452D01*
X253676Y61377D01*
X253591Y61305D01*
X253504Y61235D01*
X253414Y61169D01*
X253322Y61106D01*
X253227Y61046D01*
X253131Y60990D01*
X253033Y60937D01*
X252933Y60888D01*
X252831Y60842D01*
X252728Y60800D01*
X252623Y60761D01*
X252517Y60726D01*
X252410Y60695D01*
X252302Y60668D01*
X252193Y60644D01*
X252083Y60625D01*
X251973Y60609D01*
X251862Y60597D01*
X251750Y60589D01*
X251639Y60585D01*
X251527Y60585D01*
X251416Y60589D01*
X251304Y60597D01*
X251193Y60609D01*
X251083Y60625D01*
X250973Y60644D01*
X250864Y60668D01*
X250756Y60695D01*
X250649Y60726D01*
X250543Y60761D01*
X250438Y60800D01*
X250335Y60842D01*
X250233Y60888D01*
X250133Y60937D01*
X250035Y60990D01*
X249939Y61046D01*
X249844Y61106D01*
X249752Y61169D01*
X249662Y61235D01*
X249575Y61305D01*
X249490Y61377D01*
X249408Y61452D01*
X249328Y61531D01*
X249251Y61612D01*
X249178Y61695D01*
X249107Y61781D01*
X249039Y61870D01*
X248974Y61961D01*
X248913Y62054D01*
X248855Y62149D01*
X248800Y62247D01*
X248749Y62346D01*
X248701Y62447D01*
X248657Y62549D01*
X248617Y62653D01*
X248580Y62759D01*
X248547Y62865D01*
X248518Y62973D01*
X248493Y63082D01*
X248471Y63191D01*
X248453Y63301D01*
X248440Y63412D01*
X248430Y63523D01*
X248424Y63634D01*
X248422Y63746D01*
X248422Y67810D01*
X256550Y67810D01*
X256550Y67809D02*
X256651Y67807D01*
X256752Y67801D01*
X256853Y67792D01*
X256954Y67779D01*
X257054Y67762D01*
X257153Y67741D01*
X257251Y67717D01*
X257348Y67689D01*
X257445Y67657D01*
X257540Y67622D01*
X257633Y67583D01*
X257725Y67541D01*
X257816Y67495D01*
X257905Y67446D01*
X257991Y67394D01*
X258076Y67338D01*
X258159Y67280D01*
X258239Y67218D01*
X258317Y67153D01*
X258393Y67086D01*
X258466Y67016D01*
X258536Y66943D01*
X258603Y66867D01*
X258668Y66789D01*
X258730Y66709D01*
X258788Y66626D01*
X258844Y66541D01*
X258896Y66455D01*
X258945Y66366D01*
X258991Y66275D01*
X259033Y66183D01*
X259072Y66090D01*
X259107Y65995D01*
X259139Y65898D01*
X259167Y65801D01*
X259191Y65703D01*
X259212Y65604D01*
X259229Y65504D01*
X259242Y65403D01*
X259251Y65302D01*
X259257Y65201D01*
X259259Y65100D01*
X259259Y61488D01*
X264678Y77176D02*
X248422Y77176D01*
X248422Y81692D01*
X248424Y81796D01*
X248430Y81899D01*
X248440Y82003D01*
X248454Y82106D01*
X248472Y82208D01*
X248493Y82309D01*
X248519Y82410D01*
X248548Y82509D01*
X248581Y82608D01*
X248618Y82705D01*
X248659Y82800D01*
X248703Y82894D01*
X248751Y82986D01*
X248802Y83076D01*
X248857Y83165D01*
X248915Y83251D01*
X248977Y83334D01*
X249041Y83416D01*
X249109Y83494D01*
X249179Y83570D01*
X249252Y83644D01*
X249329Y83714D01*
X249407Y83782D01*
X249489Y83846D01*
X249572Y83908D01*
X249658Y83966D01*
X249747Y84021D01*
X249837Y84072D01*
X249929Y84120D01*
X250023Y84164D01*
X250118Y84205D01*
X250215Y84242D01*
X250314Y84275D01*
X250413Y84304D01*
X250514Y84330D01*
X250615Y84351D01*
X250717Y84369D01*
X250820Y84383D01*
X250924Y84393D01*
X251027Y84399D01*
X251131Y84401D01*
X256550Y84401D01*
X256651Y84399D01*
X256752Y84393D01*
X256853Y84384D01*
X256954Y84371D01*
X257054Y84354D01*
X257153Y84333D01*
X257251Y84309D01*
X257348Y84281D01*
X257445Y84249D01*
X257540Y84214D01*
X257633Y84175D01*
X257725Y84133D01*
X257816Y84087D01*
X257905Y84038D01*
X257991Y83986D01*
X258076Y83930D01*
X258159Y83872D01*
X258239Y83810D01*
X258317Y83745D01*
X258393Y83678D01*
X258466Y83608D01*
X258536Y83535D01*
X258603Y83459D01*
X258668Y83381D01*
X258730Y83301D01*
X258788Y83218D01*
X258844Y83133D01*
X258896Y83047D01*
X258945Y82958D01*
X258991Y82867D01*
X259033Y82775D01*
X259072Y82682D01*
X259107Y82587D01*
X259139Y82490D01*
X259167Y82393D01*
X259191Y82295D01*
X259212Y82196D01*
X259229Y82096D01*
X259242Y81995D01*
X259251Y81894D01*
X259257Y81793D01*
X259259Y81692D01*
X259259Y77176D01*
X249325Y91266D02*
X248422Y91266D01*
X249325Y91266D02*
X249325Y92169D01*
X248422Y92169D01*
X248422Y91266D01*
X248422Y107854D02*
X264678Y113273D01*
X248422Y118692D01*
X252486Y117337D02*
X252486Y109209D01*
X248422Y126721D02*
X259259Y126721D01*
X259259Y132140D01*
X257453Y132140D01*
X259259Y145292D02*
X243003Y145292D01*
X259259Y145292D02*
X259259Y140776D01*
X259257Y140675D01*
X259251Y140574D01*
X259242Y140473D01*
X259229Y140372D01*
X259212Y140272D01*
X259191Y140173D01*
X259167Y140075D01*
X259139Y139978D01*
X259107Y139881D01*
X259072Y139786D01*
X259033Y139693D01*
X258991Y139601D01*
X258945Y139510D01*
X258896Y139421D01*
X258844Y139335D01*
X258788Y139250D01*
X258730Y139167D01*
X258668Y139087D01*
X258603Y139009D01*
X258536Y138933D01*
X258466Y138860D01*
X258393Y138790D01*
X258317Y138723D01*
X258239Y138658D01*
X258159Y138596D01*
X258076Y138538D01*
X257991Y138482D01*
X257905Y138430D01*
X257816Y138381D01*
X257725Y138335D01*
X257633Y138293D01*
X257540Y138254D01*
X257445Y138219D01*
X257348Y138187D01*
X257251Y138159D01*
X257153Y138135D01*
X257054Y138114D01*
X256954Y138097D01*
X256853Y138084D01*
X256752Y138075D01*
X256651Y138069D01*
X256550Y138067D01*
X251131Y138067D01*
X251030Y138069D01*
X250929Y138075D01*
X250828Y138084D01*
X250727Y138097D01*
X250627Y138114D01*
X250528Y138135D01*
X250430Y138159D01*
X250333Y138187D01*
X250236Y138219D01*
X250141Y138254D01*
X250048Y138293D01*
X249956Y138335D01*
X249865Y138381D01*
X249777Y138430D01*
X249690Y138482D01*
X249605Y138538D01*
X249522Y138596D01*
X249442Y138658D01*
X249364Y138723D01*
X249288Y138790D01*
X249215Y138860D01*
X249145Y138933D01*
X249078Y139009D01*
X249013Y139087D01*
X248951Y139167D01*
X248893Y139250D01*
X248837Y139335D01*
X248785Y139422D01*
X248736Y139510D01*
X248690Y139601D01*
X248648Y139693D01*
X248609Y139786D01*
X248574Y139881D01*
X248542Y139978D01*
X248514Y140075D01*
X248490Y140173D01*
X248469Y140272D01*
X248452Y140372D01*
X248439Y140473D01*
X248430Y140574D01*
X248424Y140675D01*
X248422Y140776D01*
X248422Y145292D01*
X251131Y154519D02*
X259259Y154519D01*
X251131Y154519D02*
X251030Y154521D01*
X250929Y154527D01*
X250828Y154536D01*
X250727Y154549D01*
X250627Y154566D01*
X250528Y154587D01*
X250430Y154611D01*
X250333Y154639D01*
X250236Y154671D01*
X250141Y154706D01*
X250048Y154745D01*
X249956Y154787D01*
X249865Y154833D01*
X249777Y154882D01*
X249690Y154934D01*
X249605Y154990D01*
X249522Y155048D01*
X249442Y155110D01*
X249364Y155175D01*
X249288Y155242D01*
X249215Y155312D01*
X249145Y155385D01*
X249078Y155461D01*
X249013Y155539D01*
X248951Y155619D01*
X248893Y155702D01*
X248837Y155787D01*
X248785Y155874D01*
X248736Y155962D01*
X248690Y156053D01*
X248648Y156145D01*
X248609Y156238D01*
X248574Y156333D01*
X248542Y156430D01*
X248514Y156527D01*
X248490Y156625D01*
X248469Y156724D01*
X248452Y156824D01*
X248439Y156925D01*
X248430Y157026D01*
X248424Y157127D01*
X248422Y157228D01*
X248422Y161744D01*
X259259Y161744D01*
X259259Y169783D02*
X248422Y169783D01*
X263775Y169331D02*
X264678Y169331D01*
X264678Y170234D01*
X263775Y170234D01*
X263775Y169331D01*
X259259Y175588D02*
X259259Y181007D01*
X264678Y177394D02*
X251131Y177394D01*
X251131Y177395D02*
X251030Y177397D01*
X250929Y177403D01*
X250828Y177412D01*
X250727Y177425D01*
X250627Y177442D01*
X250528Y177463D01*
X250430Y177487D01*
X250333Y177515D01*
X250236Y177547D01*
X250141Y177582D01*
X250048Y177621D01*
X249956Y177663D01*
X249865Y177709D01*
X249777Y177758D01*
X249690Y177810D01*
X249605Y177866D01*
X249522Y177924D01*
X249442Y177986D01*
X249364Y178051D01*
X249288Y178118D01*
X249215Y178188D01*
X249145Y178261D01*
X249078Y178337D01*
X249013Y178415D01*
X248951Y178495D01*
X248893Y178578D01*
X248837Y178663D01*
X248785Y178750D01*
X248736Y178838D01*
X248690Y178929D01*
X248648Y179021D01*
X248609Y179114D01*
X248574Y179209D01*
X248542Y179306D01*
X248514Y179403D01*
X248490Y179501D01*
X248469Y179600D01*
X248452Y179700D01*
X248439Y179801D01*
X248430Y179902D01*
X248424Y180003D01*
X248422Y180104D01*
X248422Y181007D01*
X248422Y191017D02*
X248422Y195533D01*
X248422Y191017D02*
X248424Y190916D01*
X248430Y190815D01*
X248439Y190714D01*
X248452Y190613D01*
X248469Y190513D01*
X248490Y190414D01*
X248514Y190316D01*
X248542Y190219D01*
X248574Y190122D01*
X248609Y190027D01*
X248648Y189934D01*
X248690Y189842D01*
X248736Y189751D01*
X248785Y189663D01*
X248837Y189576D01*
X248893Y189491D01*
X248951Y189408D01*
X249013Y189328D01*
X249078Y189250D01*
X249145Y189174D01*
X249215Y189101D01*
X249288Y189031D01*
X249364Y188964D01*
X249442Y188899D01*
X249522Y188837D01*
X249605Y188779D01*
X249690Y188723D01*
X249777Y188671D01*
X249865Y188622D01*
X249956Y188576D01*
X250048Y188534D01*
X250141Y188495D01*
X250236Y188460D01*
X250333Y188428D01*
X250430Y188400D01*
X250528Y188376D01*
X250627Y188355D01*
X250727Y188338D01*
X250828Y188325D01*
X250929Y188316D01*
X251030Y188310D01*
X251131Y188308D01*
X255647Y188308D01*
X255766Y188310D01*
X255886Y188316D01*
X256005Y188326D01*
X256123Y188340D01*
X256242Y188357D01*
X256359Y188379D01*
X256476Y188404D01*
X256591Y188434D01*
X256706Y188467D01*
X256820Y188504D01*
X256932Y188544D01*
X257043Y188589D01*
X257152Y188637D01*
X257260Y188688D01*
X257366Y188743D01*
X257470Y188802D01*
X257572Y188864D01*
X257672Y188929D01*
X257770Y188998D01*
X257866Y189070D01*
X257959Y189145D01*
X258049Y189222D01*
X258137Y189303D01*
X258222Y189387D01*
X258304Y189474D01*
X258384Y189563D01*
X258460Y189655D01*
X258534Y189749D01*
X258604Y189846D01*
X258671Y189944D01*
X258735Y190045D01*
X258795Y190149D01*
X258852Y190254D01*
X258905Y190361D01*
X258955Y190469D01*
X259001Y190579D01*
X259043Y190691D01*
X259082Y190804D01*
X259117Y190918D01*
X259148Y191033D01*
X259176Y191150D01*
X259199Y191267D01*
X259219Y191384D01*
X259235Y191503D01*
X259247Y191622D01*
X259255Y191741D01*
X259259Y191860D01*
X259259Y191980D01*
X259255Y192099D01*
X259247Y192218D01*
X259235Y192337D01*
X259219Y192456D01*
X259199Y192573D01*
X259176Y192690D01*
X259148Y192807D01*
X259117Y192922D01*
X259082Y193036D01*
X259043Y193149D01*
X259001Y193261D01*
X258955Y193371D01*
X258905Y193479D01*
X258852Y193586D01*
X258795Y193691D01*
X258735Y193795D01*
X258671Y193896D01*
X258604Y193994D01*
X258534Y194091D01*
X258460Y194185D01*
X258384Y194277D01*
X258304Y194366D01*
X258222Y194453D01*
X258137Y194537D01*
X258049Y194618D01*
X257959Y194695D01*
X257866Y194770D01*
X257770Y194842D01*
X257672Y194911D01*
X257572Y194976D01*
X257470Y195038D01*
X257366Y195097D01*
X257260Y195152D01*
X257152Y195203D01*
X257043Y195251D01*
X256932Y195296D01*
X256820Y195336D01*
X256706Y195373D01*
X256591Y195406D01*
X256476Y195436D01*
X256359Y195461D01*
X256242Y195483D01*
X256123Y195500D01*
X256005Y195514D01*
X255886Y195524D01*
X255766Y195530D01*
X255647Y195532D01*
X255647Y195533D02*
X253841Y195533D01*
X253841Y188308D01*
X259259Y201804D02*
X259259Y207222D01*
X264678Y203610D02*
X251131Y203610D01*
X251030Y203612D01*
X250929Y203618D01*
X250828Y203627D01*
X250727Y203640D01*
X250627Y203657D01*
X250528Y203678D01*
X250430Y203702D01*
X250333Y203730D01*
X250236Y203762D01*
X250141Y203797D01*
X250048Y203836D01*
X249956Y203878D01*
X249865Y203924D01*
X249777Y203973D01*
X249690Y204025D01*
X249605Y204081D01*
X249522Y204139D01*
X249442Y204201D01*
X249364Y204266D01*
X249288Y204333D01*
X249215Y204403D01*
X249145Y204476D01*
X249078Y204552D01*
X249013Y204630D01*
X248951Y204710D01*
X248893Y204793D01*
X248837Y204878D01*
X248785Y204965D01*
X248736Y205053D01*
X248690Y205144D01*
X248648Y205236D01*
X248609Y205329D01*
X248574Y205424D01*
X248542Y205521D01*
X248514Y205618D01*
X248490Y205716D01*
X248469Y205815D01*
X248452Y205915D01*
X248439Y206016D01*
X248430Y206117D01*
X248424Y206218D01*
X248422Y206319D01*
X248422Y207222D01*
X251131Y215106D02*
X259259Y215106D01*
X251131Y215107D02*
X251030Y215109D01*
X250929Y215115D01*
X250828Y215124D01*
X250727Y215137D01*
X250627Y215154D01*
X250528Y215175D01*
X250430Y215199D01*
X250333Y215227D01*
X250236Y215259D01*
X250141Y215294D01*
X250048Y215333D01*
X249956Y215375D01*
X249865Y215421D01*
X249777Y215470D01*
X249690Y215522D01*
X249605Y215578D01*
X249522Y215636D01*
X249442Y215698D01*
X249364Y215763D01*
X249288Y215830D01*
X249215Y215900D01*
X249145Y215973D01*
X249078Y216049D01*
X249013Y216127D01*
X248951Y216207D01*
X248893Y216290D01*
X248837Y216375D01*
X248785Y216462D01*
X248736Y216550D01*
X248690Y216641D01*
X248648Y216733D01*
X248609Y216826D01*
X248574Y216921D01*
X248542Y217018D01*
X248514Y217115D01*
X248490Y217213D01*
X248469Y217312D01*
X248452Y217412D01*
X248439Y217513D01*
X248430Y217614D01*
X248424Y217715D01*
X248422Y217816D01*
X248422Y222331D01*
X259259Y222331D01*
X259259Y231584D02*
X248422Y231584D01*
X259259Y231584D02*
X259259Y237003D01*
X257453Y237003D01*
X254744Y246091D02*
X254744Y250155D01*
X254744Y246091D02*
X254742Y245979D01*
X254736Y245868D01*
X254726Y245757D01*
X254713Y245646D01*
X254695Y245536D01*
X254673Y245427D01*
X254648Y245318D01*
X254619Y245210D01*
X254586Y245104D01*
X254549Y244998D01*
X254509Y244894D01*
X254465Y244792D01*
X254417Y244691D01*
X254366Y244592D01*
X254311Y244494D01*
X254253Y244399D01*
X254192Y244306D01*
X254127Y244215D01*
X254059Y244126D01*
X253988Y244040D01*
X253915Y243957D01*
X253838Y243876D01*
X253758Y243797D01*
X253676Y243722D01*
X253591Y243650D01*
X253504Y243580D01*
X253414Y243514D01*
X253322Y243451D01*
X253227Y243391D01*
X253131Y243335D01*
X253033Y243282D01*
X252933Y243233D01*
X252831Y243187D01*
X252728Y243145D01*
X252623Y243106D01*
X252517Y243071D01*
X252410Y243040D01*
X252302Y243013D01*
X252193Y242989D01*
X252083Y242970D01*
X251973Y242954D01*
X251862Y242942D01*
X251750Y242934D01*
X251639Y242930D01*
X251527Y242930D01*
X251416Y242934D01*
X251304Y242942D01*
X251193Y242954D01*
X251083Y242970D01*
X250973Y242989D01*
X250864Y243013D01*
X250756Y243040D01*
X250649Y243071D01*
X250543Y243106D01*
X250438Y243145D01*
X250335Y243187D01*
X250233Y243233D01*
X250133Y243282D01*
X250035Y243335D01*
X249939Y243391D01*
X249844Y243451D01*
X249752Y243514D01*
X249662Y243580D01*
X249575Y243650D01*
X249490Y243722D01*
X249408Y243797D01*
X249328Y243876D01*
X249251Y243957D01*
X249178Y244040D01*
X249107Y244126D01*
X249039Y244215D01*
X248974Y244306D01*
X248913Y244399D01*
X248855Y244494D01*
X248800Y244592D01*
X248749Y244691D01*
X248701Y244792D01*
X248657Y244894D01*
X248617Y244998D01*
X248580Y245104D01*
X248547Y245210D01*
X248518Y245318D01*
X248493Y245427D01*
X248471Y245536D01*
X248453Y245646D01*
X248440Y245757D01*
X248430Y245868D01*
X248424Y245979D01*
X248422Y246091D01*
X248422Y250155D01*
X256550Y250155D01*
X256651Y250153D01*
X256752Y250147D01*
X256853Y250138D01*
X256954Y250125D01*
X257054Y250108D01*
X257153Y250087D01*
X257251Y250063D01*
X257348Y250035D01*
X257445Y250003D01*
X257540Y249968D01*
X257633Y249929D01*
X257725Y249887D01*
X257816Y249841D01*
X257905Y249792D01*
X257991Y249740D01*
X258076Y249684D01*
X258159Y249626D01*
X258239Y249564D01*
X258317Y249499D01*
X258393Y249432D01*
X258466Y249362D01*
X258536Y249289D01*
X258603Y249213D01*
X258668Y249135D01*
X258730Y249055D01*
X258788Y248972D01*
X258844Y248887D01*
X258896Y248801D01*
X258945Y248712D01*
X258991Y248621D01*
X259033Y248529D01*
X259072Y248436D01*
X259107Y248341D01*
X259139Y248244D01*
X259167Y248147D01*
X259191Y248049D01*
X259212Y247950D01*
X259229Y247850D01*
X259242Y247749D01*
X259251Y247648D01*
X259257Y247547D01*
X259259Y247446D01*
X259259Y243833D01*
X264678Y275206D02*
X248422Y275206D01*
X248422Y270690D01*
X248424Y270589D01*
X248430Y270488D01*
X248439Y270387D01*
X248452Y270286D01*
X248469Y270186D01*
X248490Y270087D01*
X248514Y269989D01*
X248542Y269892D01*
X248574Y269795D01*
X248609Y269700D01*
X248648Y269607D01*
X248690Y269515D01*
X248736Y269424D01*
X248785Y269336D01*
X248837Y269249D01*
X248893Y269164D01*
X248951Y269081D01*
X249013Y269001D01*
X249078Y268923D01*
X249145Y268847D01*
X249215Y268774D01*
X249288Y268704D01*
X249364Y268637D01*
X249442Y268572D01*
X249522Y268510D01*
X249605Y268452D01*
X249690Y268396D01*
X249777Y268344D01*
X249865Y268295D01*
X249956Y268249D01*
X250048Y268207D01*
X250141Y268168D01*
X250236Y268133D01*
X250333Y268101D01*
X250430Y268073D01*
X250528Y268049D01*
X250627Y268028D01*
X250727Y268011D01*
X250828Y267998D01*
X250929Y267989D01*
X251030Y267983D01*
X251131Y267981D01*
X256550Y267981D01*
X256651Y267983D01*
X256752Y267989D01*
X256853Y267998D01*
X256954Y268011D01*
X257054Y268028D01*
X257153Y268049D01*
X257251Y268073D01*
X257348Y268101D01*
X257445Y268133D01*
X257540Y268168D01*
X257633Y268207D01*
X257725Y268249D01*
X257816Y268295D01*
X257905Y268344D01*
X257991Y268396D01*
X258076Y268452D01*
X258159Y268510D01*
X258239Y268572D01*
X258317Y268637D01*
X258393Y268704D01*
X258466Y268774D01*
X258536Y268847D01*
X258603Y268923D01*
X258668Y269001D01*
X258730Y269081D01*
X258788Y269164D01*
X258844Y269249D01*
X258896Y269336D01*
X258945Y269424D01*
X258991Y269515D01*
X259033Y269607D01*
X259072Y269700D01*
X259107Y269795D01*
X259139Y269892D01*
X259167Y269989D01*
X259191Y270087D01*
X259212Y270186D01*
X259229Y270286D01*
X259242Y270387D01*
X259251Y270488D01*
X259257Y270589D01*
X259259Y270690D01*
X259259Y275206D01*
X248422Y286559D02*
X248422Y291075D01*
X248422Y286559D02*
X248424Y286458D01*
X248430Y286357D01*
X248439Y286256D01*
X248452Y286155D01*
X248469Y286055D01*
X248490Y285956D01*
X248514Y285858D01*
X248542Y285761D01*
X248574Y285664D01*
X248609Y285569D01*
X248648Y285476D01*
X248690Y285384D01*
X248736Y285293D01*
X248785Y285205D01*
X248837Y285118D01*
X248893Y285033D01*
X248951Y284950D01*
X249013Y284870D01*
X249078Y284792D01*
X249145Y284716D01*
X249215Y284643D01*
X249288Y284573D01*
X249364Y284506D01*
X249442Y284441D01*
X249522Y284379D01*
X249605Y284321D01*
X249690Y284265D01*
X249777Y284213D01*
X249865Y284164D01*
X249956Y284118D01*
X250048Y284076D01*
X250141Y284037D01*
X250236Y284002D01*
X250333Y283970D01*
X250430Y283942D01*
X250528Y283918D01*
X250627Y283897D01*
X250727Y283880D01*
X250828Y283867D01*
X250929Y283858D01*
X251030Y283852D01*
X251131Y283850D01*
X255647Y283850D01*
X255766Y283852D01*
X255886Y283858D01*
X256005Y283868D01*
X256123Y283882D01*
X256242Y283899D01*
X256359Y283921D01*
X256476Y283946D01*
X256591Y283976D01*
X256706Y284009D01*
X256820Y284046D01*
X256932Y284086D01*
X257043Y284131D01*
X257152Y284179D01*
X257260Y284230D01*
X257366Y284285D01*
X257470Y284344D01*
X257572Y284406D01*
X257672Y284471D01*
X257770Y284540D01*
X257866Y284612D01*
X257959Y284687D01*
X258049Y284764D01*
X258137Y284845D01*
X258222Y284929D01*
X258304Y285016D01*
X258384Y285105D01*
X258460Y285197D01*
X258534Y285291D01*
X258604Y285388D01*
X258671Y285486D01*
X258735Y285587D01*
X258795Y285691D01*
X258852Y285796D01*
X258905Y285903D01*
X258955Y286011D01*
X259001Y286121D01*
X259043Y286233D01*
X259082Y286346D01*
X259117Y286460D01*
X259148Y286575D01*
X259176Y286692D01*
X259199Y286809D01*
X259219Y286926D01*
X259235Y287045D01*
X259247Y287164D01*
X259255Y287283D01*
X259259Y287402D01*
X259259Y287522D01*
X259255Y287641D01*
X259247Y287760D01*
X259235Y287879D01*
X259219Y287998D01*
X259199Y288115D01*
X259176Y288232D01*
X259148Y288349D01*
X259117Y288464D01*
X259082Y288578D01*
X259043Y288691D01*
X259001Y288803D01*
X258955Y288913D01*
X258905Y289021D01*
X258852Y289128D01*
X258795Y289233D01*
X258735Y289337D01*
X258671Y289438D01*
X258604Y289536D01*
X258534Y289633D01*
X258460Y289727D01*
X258384Y289819D01*
X258304Y289908D01*
X258222Y289995D01*
X258137Y290079D01*
X258049Y290160D01*
X257959Y290237D01*
X257866Y290312D01*
X257770Y290384D01*
X257672Y290453D01*
X257572Y290518D01*
X257470Y290580D01*
X257366Y290639D01*
X257260Y290694D01*
X257152Y290745D01*
X257043Y290793D01*
X256932Y290838D01*
X256820Y290878D01*
X256706Y290915D01*
X256591Y290948D01*
X256476Y290978D01*
X256359Y291003D01*
X256242Y291025D01*
X256123Y291042D01*
X256005Y291056D01*
X255886Y291066D01*
X255766Y291072D01*
X255647Y291074D01*
X255647Y291075D02*
X253841Y291075D01*
X253841Y283850D01*
X248422Y312120D02*
X248422Y315733D01*
X248422Y312120D02*
X248424Y312002D01*
X248430Y311884D01*
X248439Y311766D01*
X248453Y311649D01*
X248470Y311532D01*
X248491Y311415D01*
X248516Y311300D01*
X248545Y311185D01*
X248578Y311071D01*
X248614Y310959D01*
X248654Y310848D01*
X248697Y310738D01*
X248744Y310629D01*
X248794Y310522D01*
X248849Y310417D01*
X248906Y310314D01*
X248967Y310213D01*
X249031Y310113D01*
X249098Y310016D01*
X249168Y309921D01*
X249242Y309829D01*
X249318Y309738D01*
X249398Y309651D01*
X249480Y309566D01*
X249565Y309484D01*
X249652Y309404D01*
X249743Y309328D01*
X249835Y309254D01*
X249930Y309184D01*
X250027Y309117D01*
X250127Y309053D01*
X250228Y308992D01*
X250331Y308935D01*
X250436Y308880D01*
X250543Y308830D01*
X250652Y308783D01*
X250762Y308740D01*
X250873Y308700D01*
X250985Y308664D01*
X251099Y308631D01*
X251214Y308602D01*
X251329Y308577D01*
X251446Y308556D01*
X251563Y308539D01*
X251680Y308525D01*
X251798Y308516D01*
X251916Y308510D01*
X252034Y308508D01*
X261066Y308508D01*
X261066Y308509D02*
X261184Y308511D01*
X261302Y308517D01*
X261420Y308526D01*
X261537Y308540D01*
X261654Y308557D01*
X261771Y308578D01*
X261886Y308603D01*
X262001Y308632D01*
X262115Y308665D01*
X262227Y308701D01*
X262338Y308741D01*
X262448Y308784D01*
X262557Y308831D01*
X262664Y308881D01*
X262769Y308935D01*
X262872Y308993D01*
X262973Y309054D01*
X263073Y309118D01*
X263170Y309185D01*
X263265Y309255D01*
X263357Y309329D01*
X263448Y309405D01*
X263535Y309485D01*
X263620Y309567D01*
X263702Y309652D01*
X263782Y309739D01*
X263858Y309830D01*
X263932Y309922D01*
X264002Y310017D01*
X264069Y310114D01*
X264133Y310214D01*
X264194Y310315D01*
X264251Y310418D01*
X264305Y310523D01*
X264356Y310630D01*
X264403Y310739D01*
X264446Y310849D01*
X264486Y310960D01*
X264522Y311072D01*
X264555Y311186D01*
X264584Y311301D01*
X264609Y311416D01*
X264630Y311533D01*
X264647Y311650D01*
X264661Y311767D01*
X264670Y311885D01*
X264676Y312003D01*
X264678Y312121D01*
X264678Y312120D02*
X264678Y315733D01*
X255647Y322882D02*
X252034Y322882D01*
X255647Y322883D02*
X255766Y322885D01*
X255886Y322891D01*
X256005Y322901D01*
X256123Y322915D01*
X256242Y322932D01*
X256359Y322954D01*
X256476Y322979D01*
X256591Y323009D01*
X256706Y323042D01*
X256820Y323079D01*
X256932Y323119D01*
X257043Y323164D01*
X257152Y323212D01*
X257260Y323263D01*
X257366Y323318D01*
X257470Y323377D01*
X257572Y323439D01*
X257672Y323504D01*
X257770Y323573D01*
X257866Y323645D01*
X257959Y323720D01*
X258049Y323797D01*
X258137Y323878D01*
X258222Y323962D01*
X258304Y324049D01*
X258384Y324138D01*
X258460Y324230D01*
X258534Y324324D01*
X258604Y324421D01*
X258671Y324519D01*
X258735Y324620D01*
X258795Y324724D01*
X258852Y324829D01*
X258905Y324936D01*
X258955Y325044D01*
X259001Y325154D01*
X259043Y325266D01*
X259082Y325379D01*
X259117Y325493D01*
X259148Y325608D01*
X259176Y325725D01*
X259199Y325842D01*
X259219Y325959D01*
X259235Y326078D01*
X259247Y326197D01*
X259255Y326316D01*
X259259Y326435D01*
X259259Y326555D01*
X259255Y326674D01*
X259247Y326793D01*
X259235Y326912D01*
X259219Y327031D01*
X259199Y327148D01*
X259176Y327265D01*
X259148Y327382D01*
X259117Y327497D01*
X259082Y327611D01*
X259043Y327724D01*
X259001Y327836D01*
X258955Y327946D01*
X258905Y328054D01*
X258852Y328161D01*
X258795Y328266D01*
X258735Y328370D01*
X258671Y328471D01*
X258604Y328569D01*
X258534Y328666D01*
X258460Y328760D01*
X258384Y328852D01*
X258304Y328941D01*
X258222Y329028D01*
X258137Y329112D01*
X258049Y329193D01*
X257959Y329270D01*
X257866Y329345D01*
X257770Y329417D01*
X257672Y329486D01*
X257572Y329551D01*
X257470Y329613D01*
X257366Y329672D01*
X257260Y329727D01*
X257152Y329778D01*
X257043Y329826D01*
X256932Y329871D01*
X256820Y329911D01*
X256706Y329948D01*
X256591Y329981D01*
X256476Y330011D01*
X256359Y330036D01*
X256242Y330058D01*
X256123Y330075D01*
X256005Y330089D01*
X255886Y330099D01*
X255766Y330105D01*
X255647Y330107D01*
X252034Y330107D01*
X251915Y330105D01*
X251795Y330099D01*
X251676Y330089D01*
X251558Y330075D01*
X251439Y330058D01*
X251322Y330036D01*
X251205Y330011D01*
X251090Y329981D01*
X250975Y329948D01*
X250861Y329911D01*
X250749Y329871D01*
X250638Y329826D01*
X250529Y329778D01*
X250421Y329727D01*
X250315Y329672D01*
X250211Y329613D01*
X250109Y329551D01*
X250009Y329486D01*
X249911Y329417D01*
X249815Y329345D01*
X249722Y329270D01*
X249632Y329193D01*
X249544Y329112D01*
X249459Y329028D01*
X249377Y328941D01*
X249297Y328852D01*
X249221Y328760D01*
X249147Y328666D01*
X249077Y328569D01*
X249010Y328471D01*
X248946Y328370D01*
X248886Y328266D01*
X248829Y328161D01*
X248776Y328054D01*
X248726Y327946D01*
X248680Y327836D01*
X248638Y327724D01*
X248599Y327611D01*
X248564Y327497D01*
X248533Y327382D01*
X248505Y327265D01*
X248482Y327148D01*
X248462Y327031D01*
X248446Y326912D01*
X248434Y326793D01*
X248426Y326674D01*
X248422Y326555D01*
X248422Y326435D01*
X248426Y326316D01*
X248434Y326197D01*
X248446Y326078D01*
X248462Y325959D01*
X248482Y325842D01*
X248505Y325725D01*
X248533Y325608D01*
X248564Y325493D01*
X248599Y325379D01*
X248638Y325266D01*
X248680Y325154D01*
X248726Y325044D01*
X248776Y324936D01*
X248829Y324829D01*
X248886Y324724D01*
X248946Y324620D01*
X249010Y324519D01*
X249077Y324421D01*
X249147Y324324D01*
X249221Y324230D01*
X249297Y324138D01*
X249377Y324049D01*
X249459Y323962D01*
X249544Y323878D01*
X249632Y323797D01*
X249722Y323720D01*
X249815Y323645D01*
X249911Y323573D01*
X250009Y323504D01*
X250109Y323439D01*
X250211Y323377D01*
X250315Y323318D01*
X250421Y323263D01*
X250529Y323212D01*
X250638Y323164D01*
X250749Y323119D01*
X250861Y323079D01*
X250975Y323042D01*
X251090Y323009D01*
X251205Y322979D01*
X251322Y322954D01*
X251439Y322932D01*
X251558Y322915D01*
X251676Y322901D01*
X251795Y322891D01*
X251915Y322885D01*
X252034Y322883D01*
X248422Y339136D02*
X259259Y339136D01*
X259259Y347264D01*
X259257Y347365D01*
X259251Y347466D01*
X259242Y347567D01*
X259229Y347668D01*
X259212Y347768D01*
X259191Y347867D01*
X259167Y347965D01*
X259139Y348062D01*
X259107Y348159D01*
X259072Y348254D01*
X259033Y348347D01*
X258991Y348439D01*
X258945Y348530D01*
X258896Y348619D01*
X258844Y348705D01*
X258788Y348790D01*
X258730Y348873D01*
X258668Y348953D01*
X258603Y349031D01*
X258536Y349107D01*
X258466Y349180D01*
X258393Y349250D01*
X258317Y349317D01*
X258239Y349382D01*
X258159Y349444D01*
X258076Y349502D01*
X257991Y349558D01*
X257905Y349610D01*
X257816Y349659D01*
X257725Y349705D01*
X257633Y349747D01*
X257540Y349786D01*
X257445Y349821D01*
X257348Y349853D01*
X257251Y349881D01*
X257153Y349905D01*
X257054Y349926D01*
X256954Y349943D01*
X256853Y349956D01*
X256752Y349965D01*
X256651Y349971D01*
X256550Y349973D01*
X248422Y349973D01*
X248422Y344554D02*
X259259Y344554D01*
X259259Y359724D02*
X243003Y359724D01*
X259259Y359724D02*
X259259Y364239D01*
X259257Y364340D01*
X259251Y364441D01*
X259242Y364542D01*
X259229Y364643D01*
X259212Y364743D01*
X259191Y364842D01*
X259167Y364940D01*
X259139Y365037D01*
X259107Y365134D01*
X259072Y365229D01*
X259033Y365322D01*
X258991Y365414D01*
X258945Y365505D01*
X258896Y365594D01*
X258844Y365680D01*
X258788Y365765D01*
X258730Y365848D01*
X258668Y365928D01*
X258603Y366006D01*
X258536Y366082D01*
X258466Y366155D01*
X258393Y366225D01*
X258317Y366292D01*
X258239Y366357D01*
X258159Y366419D01*
X258076Y366477D01*
X257991Y366533D01*
X257905Y366585D01*
X257816Y366634D01*
X257725Y366680D01*
X257633Y366722D01*
X257540Y366761D01*
X257445Y366796D01*
X257348Y366828D01*
X257251Y366856D01*
X257153Y366880D01*
X257054Y366901D01*
X256954Y366918D01*
X256853Y366931D01*
X256752Y366940D01*
X256651Y366946D01*
X256550Y366948D01*
X256550Y366949D02*
X251131Y366949D01*
X251131Y366948D02*
X251030Y366946D01*
X250929Y366940D01*
X250828Y366931D01*
X250727Y366918D01*
X250627Y366901D01*
X250528Y366880D01*
X250430Y366856D01*
X250333Y366828D01*
X250236Y366796D01*
X250141Y366761D01*
X250048Y366722D01*
X249956Y366680D01*
X249865Y366634D01*
X249777Y366585D01*
X249690Y366533D01*
X249605Y366477D01*
X249522Y366419D01*
X249442Y366357D01*
X249364Y366292D01*
X249288Y366225D01*
X249215Y366155D01*
X249145Y366082D01*
X249078Y366006D01*
X249013Y365928D01*
X248951Y365848D01*
X248893Y365765D01*
X248837Y365680D01*
X248785Y365594D01*
X248736Y365505D01*
X248690Y365414D01*
X248648Y365322D01*
X248609Y365229D01*
X248574Y365134D01*
X248542Y365037D01*
X248514Y364940D01*
X248490Y364842D01*
X248469Y364743D01*
X248452Y364643D01*
X248439Y364542D01*
X248430Y364441D01*
X248424Y364340D01*
X248422Y364239D01*
X248422Y359724D01*
X251131Y375314D02*
X259259Y375314D01*
X251131Y375314D02*
X251030Y375316D01*
X250929Y375322D01*
X250828Y375331D01*
X250727Y375344D01*
X250627Y375361D01*
X250528Y375382D01*
X250430Y375406D01*
X250333Y375434D01*
X250236Y375466D01*
X250141Y375501D01*
X250048Y375540D01*
X249956Y375582D01*
X249865Y375628D01*
X249777Y375677D01*
X249690Y375729D01*
X249605Y375785D01*
X249522Y375843D01*
X249442Y375905D01*
X249364Y375970D01*
X249288Y376037D01*
X249215Y376107D01*
X249145Y376180D01*
X249078Y376256D01*
X249013Y376334D01*
X248951Y376414D01*
X248893Y376497D01*
X248837Y376582D01*
X248785Y376669D01*
X248736Y376757D01*
X248690Y376848D01*
X248648Y376940D01*
X248609Y377033D01*
X248574Y377128D01*
X248542Y377225D01*
X248514Y377322D01*
X248490Y377420D01*
X248469Y377519D01*
X248452Y377619D01*
X248439Y377720D01*
X248430Y377821D01*
X248424Y377922D01*
X248422Y378023D01*
X248422Y382539D01*
X259259Y382539D01*
X259259Y389392D02*
X259259Y394811D01*
X264678Y391198D02*
X251131Y391198D01*
X251131Y391199D02*
X251030Y391201D01*
X250929Y391207D01*
X250828Y391216D01*
X250727Y391229D01*
X250627Y391246D01*
X250528Y391267D01*
X250430Y391291D01*
X250333Y391319D01*
X250236Y391351D01*
X250141Y391386D01*
X250048Y391425D01*
X249956Y391467D01*
X249865Y391513D01*
X249777Y391562D01*
X249690Y391614D01*
X249605Y391670D01*
X249522Y391728D01*
X249442Y391790D01*
X249364Y391855D01*
X249288Y391922D01*
X249215Y391992D01*
X249145Y392065D01*
X249078Y392141D01*
X249013Y392219D01*
X248951Y392299D01*
X248893Y392382D01*
X248837Y392467D01*
X248785Y392554D01*
X248736Y392642D01*
X248690Y392733D01*
X248648Y392825D01*
X248609Y392918D01*
X248574Y393013D01*
X248542Y393110D01*
X248514Y393207D01*
X248490Y393305D01*
X248469Y393404D01*
X248452Y393504D01*
X248439Y393605D01*
X248430Y393706D01*
X248424Y393807D01*
X248422Y393908D01*
X248422Y394811D01*
X254744Y405133D02*
X254744Y409197D01*
X254744Y405133D02*
X254742Y405021D01*
X254736Y404910D01*
X254726Y404799D01*
X254713Y404688D01*
X254695Y404578D01*
X254673Y404469D01*
X254648Y404360D01*
X254619Y404252D01*
X254586Y404146D01*
X254549Y404040D01*
X254509Y403936D01*
X254465Y403834D01*
X254417Y403733D01*
X254366Y403634D01*
X254311Y403536D01*
X254253Y403441D01*
X254192Y403348D01*
X254127Y403257D01*
X254059Y403168D01*
X253988Y403082D01*
X253915Y402999D01*
X253838Y402918D01*
X253758Y402839D01*
X253676Y402764D01*
X253591Y402692D01*
X253504Y402622D01*
X253414Y402556D01*
X253322Y402493D01*
X253227Y402433D01*
X253131Y402377D01*
X253033Y402324D01*
X252933Y402275D01*
X252831Y402229D01*
X252728Y402187D01*
X252623Y402148D01*
X252517Y402113D01*
X252410Y402082D01*
X252302Y402055D01*
X252193Y402031D01*
X252083Y402012D01*
X251973Y401996D01*
X251862Y401984D01*
X251750Y401976D01*
X251639Y401972D01*
X251527Y401972D01*
X251416Y401976D01*
X251304Y401984D01*
X251193Y401996D01*
X251083Y402012D01*
X250973Y402031D01*
X250864Y402055D01*
X250756Y402082D01*
X250649Y402113D01*
X250543Y402148D01*
X250438Y402187D01*
X250335Y402229D01*
X250233Y402275D01*
X250133Y402324D01*
X250035Y402377D01*
X249939Y402433D01*
X249844Y402493D01*
X249752Y402556D01*
X249662Y402622D01*
X249575Y402692D01*
X249490Y402764D01*
X249408Y402839D01*
X249328Y402918D01*
X249251Y402999D01*
X249178Y403082D01*
X249107Y403168D01*
X249039Y403257D01*
X248974Y403348D01*
X248913Y403441D01*
X248855Y403536D01*
X248800Y403634D01*
X248749Y403733D01*
X248701Y403834D01*
X248657Y403936D01*
X248617Y404040D01*
X248580Y404146D01*
X248547Y404252D01*
X248518Y404360D01*
X248493Y404469D01*
X248471Y404578D01*
X248453Y404688D01*
X248440Y404799D01*
X248430Y404910D01*
X248424Y405021D01*
X248422Y405133D01*
X248422Y409197D01*
X256550Y409197D01*
X256651Y409195D01*
X256752Y409189D01*
X256853Y409180D01*
X256954Y409167D01*
X257054Y409150D01*
X257153Y409129D01*
X257251Y409105D01*
X257348Y409077D01*
X257445Y409045D01*
X257540Y409010D01*
X257633Y408971D01*
X257725Y408929D01*
X257816Y408883D01*
X257905Y408834D01*
X257991Y408782D01*
X258076Y408726D01*
X258159Y408668D01*
X258239Y408606D01*
X258317Y408541D01*
X258393Y408474D01*
X258466Y408404D01*
X258536Y408331D01*
X258603Y408255D01*
X258668Y408177D01*
X258730Y408097D01*
X258788Y408014D01*
X258844Y407929D01*
X258896Y407843D01*
X258945Y407754D01*
X258991Y407663D01*
X259033Y407571D01*
X259072Y407478D01*
X259107Y407383D01*
X259139Y407286D01*
X259167Y407189D01*
X259191Y407091D01*
X259212Y406992D01*
X259229Y406892D01*
X259242Y406791D01*
X259251Y406690D01*
X259257Y406589D01*
X259259Y406488D01*
X259259Y402876D01*
X264678Y424927D02*
X248422Y424927D01*
X248422Y420411D01*
X248424Y420310D01*
X248430Y420209D01*
X248439Y420108D01*
X248452Y420007D01*
X248469Y419907D01*
X248490Y419808D01*
X248514Y419710D01*
X248542Y419613D01*
X248574Y419516D01*
X248609Y419421D01*
X248648Y419328D01*
X248690Y419236D01*
X248736Y419145D01*
X248785Y419057D01*
X248837Y418970D01*
X248893Y418885D01*
X248951Y418802D01*
X249013Y418722D01*
X249078Y418644D01*
X249145Y418568D01*
X249215Y418495D01*
X249288Y418425D01*
X249364Y418358D01*
X249442Y418293D01*
X249522Y418231D01*
X249605Y418173D01*
X249690Y418117D01*
X249777Y418065D01*
X249865Y418016D01*
X249956Y417970D01*
X250048Y417928D01*
X250141Y417889D01*
X250236Y417854D01*
X250333Y417822D01*
X250430Y417794D01*
X250528Y417770D01*
X250627Y417749D01*
X250727Y417732D01*
X250828Y417719D01*
X250929Y417710D01*
X251030Y417704D01*
X251131Y417702D01*
X256550Y417702D01*
X256651Y417704D01*
X256752Y417710D01*
X256853Y417719D01*
X256954Y417732D01*
X257054Y417749D01*
X257153Y417770D01*
X257251Y417794D01*
X257348Y417822D01*
X257445Y417854D01*
X257540Y417889D01*
X257633Y417928D01*
X257725Y417970D01*
X257816Y418016D01*
X257905Y418065D01*
X257991Y418117D01*
X258076Y418173D01*
X258159Y418231D01*
X258239Y418293D01*
X258317Y418358D01*
X258393Y418425D01*
X258466Y418495D01*
X258536Y418568D01*
X258603Y418644D01*
X258668Y418722D01*
X258730Y418802D01*
X258788Y418885D01*
X258844Y418970D01*
X258896Y419057D01*
X258945Y419145D01*
X258991Y419236D01*
X259033Y419328D01*
X259072Y419421D01*
X259107Y419516D01*
X259139Y419613D01*
X259167Y419710D01*
X259191Y419808D01*
X259212Y419907D01*
X259229Y420007D01*
X259242Y420108D01*
X259251Y420209D01*
X259257Y420310D01*
X259259Y420411D01*
X259259Y424927D01*
X255647Y433571D02*
X252034Y433571D01*
X255647Y433571D02*
X255766Y433573D01*
X255886Y433579D01*
X256005Y433589D01*
X256123Y433603D01*
X256242Y433620D01*
X256359Y433642D01*
X256476Y433667D01*
X256591Y433697D01*
X256706Y433730D01*
X256820Y433767D01*
X256932Y433807D01*
X257043Y433852D01*
X257152Y433900D01*
X257260Y433951D01*
X257366Y434006D01*
X257470Y434065D01*
X257572Y434127D01*
X257672Y434192D01*
X257770Y434261D01*
X257866Y434333D01*
X257959Y434408D01*
X258049Y434485D01*
X258137Y434566D01*
X258222Y434650D01*
X258304Y434737D01*
X258384Y434826D01*
X258460Y434918D01*
X258534Y435012D01*
X258604Y435109D01*
X258671Y435207D01*
X258735Y435308D01*
X258795Y435412D01*
X258852Y435517D01*
X258905Y435624D01*
X258955Y435732D01*
X259001Y435842D01*
X259043Y435954D01*
X259082Y436067D01*
X259117Y436181D01*
X259148Y436296D01*
X259176Y436413D01*
X259199Y436530D01*
X259219Y436647D01*
X259235Y436766D01*
X259247Y436885D01*
X259255Y437004D01*
X259259Y437123D01*
X259259Y437243D01*
X259255Y437362D01*
X259247Y437481D01*
X259235Y437600D01*
X259219Y437719D01*
X259199Y437836D01*
X259176Y437953D01*
X259148Y438070D01*
X259117Y438185D01*
X259082Y438299D01*
X259043Y438412D01*
X259001Y438524D01*
X258955Y438634D01*
X258905Y438742D01*
X258852Y438849D01*
X258795Y438954D01*
X258735Y439058D01*
X258671Y439159D01*
X258604Y439257D01*
X258534Y439354D01*
X258460Y439448D01*
X258384Y439540D01*
X258304Y439629D01*
X258222Y439716D01*
X258137Y439800D01*
X258049Y439881D01*
X257959Y439958D01*
X257866Y440033D01*
X257770Y440105D01*
X257672Y440174D01*
X257572Y440239D01*
X257470Y440301D01*
X257366Y440360D01*
X257260Y440415D01*
X257152Y440466D01*
X257043Y440514D01*
X256932Y440559D01*
X256820Y440599D01*
X256706Y440636D01*
X256591Y440669D01*
X256476Y440699D01*
X256359Y440724D01*
X256242Y440746D01*
X256123Y440763D01*
X256005Y440777D01*
X255886Y440787D01*
X255766Y440793D01*
X255647Y440795D01*
X255647Y440796D02*
X252034Y440796D01*
X252034Y440795D02*
X251915Y440793D01*
X251795Y440787D01*
X251676Y440777D01*
X251558Y440763D01*
X251439Y440746D01*
X251322Y440724D01*
X251205Y440699D01*
X251090Y440669D01*
X250975Y440636D01*
X250861Y440599D01*
X250749Y440559D01*
X250638Y440514D01*
X250529Y440466D01*
X250421Y440415D01*
X250315Y440360D01*
X250211Y440301D01*
X250109Y440239D01*
X250009Y440174D01*
X249911Y440105D01*
X249815Y440033D01*
X249722Y439958D01*
X249632Y439881D01*
X249544Y439800D01*
X249459Y439716D01*
X249377Y439629D01*
X249297Y439540D01*
X249221Y439448D01*
X249147Y439354D01*
X249077Y439257D01*
X249010Y439159D01*
X248946Y439058D01*
X248886Y438954D01*
X248829Y438849D01*
X248776Y438742D01*
X248726Y438634D01*
X248680Y438524D01*
X248638Y438412D01*
X248599Y438299D01*
X248564Y438185D01*
X248533Y438070D01*
X248505Y437953D01*
X248482Y437836D01*
X248462Y437719D01*
X248446Y437600D01*
X248434Y437481D01*
X248426Y437362D01*
X248422Y437243D01*
X248422Y437123D01*
X248426Y437004D01*
X248434Y436885D01*
X248446Y436766D01*
X248462Y436647D01*
X248482Y436530D01*
X248505Y436413D01*
X248533Y436296D01*
X248564Y436181D01*
X248599Y436067D01*
X248638Y435954D01*
X248680Y435842D01*
X248726Y435732D01*
X248776Y435624D01*
X248829Y435517D01*
X248886Y435412D01*
X248946Y435308D01*
X249010Y435207D01*
X249077Y435109D01*
X249147Y435012D01*
X249221Y434918D01*
X249297Y434826D01*
X249377Y434737D01*
X249459Y434650D01*
X249544Y434566D01*
X249632Y434485D01*
X249722Y434408D01*
X249815Y434333D01*
X249911Y434261D01*
X250009Y434192D01*
X250109Y434127D01*
X250211Y434065D01*
X250315Y434006D01*
X250421Y433951D01*
X250529Y433900D01*
X250638Y433852D01*
X250749Y433807D01*
X250861Y433767D01*
X250975Y433730D01*
X251090Y433697D01*
X251205Y433667D01*
X251322Y433642D01*
X251439Y433620D01*
X251558Y433603D01*
X251676Y433589D01*
X251795Y433579D01*
X251915Y433573D01*
X252034Y433571D01*
X248422Y449466D02*
X259259Y449466D01*
X259259Y454885D01*
X257453Y454885D01*
X248422Y463661D02*
X248422Y468177D01*
X248422Y463661D02*
X248424Y463560D01*
X248430Y463459D01*
X248439Y463358D01*
X248452Y463257D01*
X248469Y463157D01*
X248490Y463058D01*
X248514Y462960D01*
X248542Y462863D01*
X248574Y462766D01*
X248609Y462671D01*
X248648Y462578D01*
X248690Y462486D01*
X248736Y462395D01*
X248785Y462307D01*
X248837Y462220D01*
X248893Y462135D01*
X248951Y462052D01*
X249013Y461972D01*
X249078Y461894D01*
X249145Y461818D01*
X249215Y461745D01*
X249288Y461675D01*
X249364Y461608D01*
X249442Y461543D01*
X249522Y461481D01*
X249605Y461423D01*
X249690Y461367D01*
X249777Y461315D01*
X249865Y461266D01*
X249956Y461220D01*
X250048Y461178D01*
X250141Y461139D01*
X250236Y461104D01*
X250333Y461072D01*
X250430Y461044D01*
X250528Y461020D01*
X250627Y460999D01*
X250727Y460982D01*
X250828Y460969D01*
X250929Y460960D01*
X251030Y460954D01*
X251131Y460952D01*
X255647Y460952D01*
X255766Y460954D01*
X255886Y460960D01*
X256005Y460970D01*
X256123Y460984D01*
X256242Y461001D01*
X256359Y461023D01*
X256476Y461048D01*
X256591Y461078D01*
X256706Y461111D01*
X256820Y461148D01*
X256932Y461188D01*
X257043Y461233D01*
X257152Y461281D01*
X257260Y461332D01*
X257366Y461387D01*
X257470Y461446D01*
X257572Y461508D01*
X257672Y461573D01*
X257770Y461642D01*
X257866Y461714D01*
X257959Y461789D01*
X258049Y461866D01*
X258137Y461947D01*
X258222Y462031D01*
X258304Y462118D01*
X258384Y462207D01*
X258460Y462299D01*
X258534Y462393D01*
X258604Y462490D01*
X258671Y462588D01*
X258735Y462689D01*
X258795Y462793D01*
X258852Y462898D01*
X258905Y463005D01*
X258955Y463113D01*
X259001Y463223D01*
X259043Y463335D01*
X259082Y463448D01*
X259117Y463562D01*
X259148Y463677D01*
X259176Y463794D01*
X259199Y463911D01*
X259219Y464028D01*
X259235Y464147D01*
X259247Y464266D01*
X259255Y464385D01*
X259259Y464504D01*
X259259Y464624D01*
X259255Y464743D01*
X259247Y464862D01*
X259235Y464981D01*
X259219Y465100D01*
X259199Y465217D01*
X259176Y465334D01*
X259148Y465451D01*
X259117Y465566D01*
X259082Y465680D01*
X259043Y465793D01*
X259001Y465905D01*
X258955Y466015D01*
X258905Y466123D01*
X258852Y466230D01*
X258795Y466335D01*
X258735Y466439D01*
X258671Y466540D01*
X258604Y466638D01*
X258534Y466735D01*
X258460Y466829D01*
X258384Y466921D01*
X258304Y467010D01*
X258222Y467097D01*
X258137Y467181D01*
X258049Y467262D01*
X257959Y467339D01*
X257866Y467414D01*
X257770Y467486D01*
X257672Y467555D01*
X257572Y467620D01*
X257470Y467682D01*
X257366Y467741D01*
X257260Y467796D01*
X257152Y467847D01*
X257043Y467895D01*
X256932Y467940D01*
X256820Y467980D01*
X256706Y468017D01*
X256591Y468050D01*
X256476Y468080D01*
X256359Y468105D01*
X256242Y468127D01*
X256123Y468144D01*
X256005Y468158D01*
X255886Y468168D01*
X255766Y468174D01*
X255647Y468176D01*
X255647Y468177D02*
X253841Y468177D01*
X253841Y460952D01*
X254744Y477453D02*
X252938Y481969D01*
X254744Y477453D02*
X254781Y477365D01*
X254822Y477279D01*
X254866Y477194D01*
X254914Y477111D01*
X254965Y477031D01*
X255019Y476952D01*
X255077Y476876D01*
X255137Y476802D01*
X255201Y476730D01*
X255267Y476662D01*
X255337Y476596D01*
X255408Y476533D01*
X255483Y476472D01*
X255559Y476415D01*
X255638Y476362D01*
X255719Y476311D01*
X255802Y476264D01*
X255887Y476220D01*
X255974Y476180D01*
X256062Y476143D01*
X256152Y476110D01*
X256243Y476080D01*
X256335Y476055D01*
X256428Y476033D01*
X256522Y476015D01*
X256616Y476000D01*
X256711Y475990D01*
X256807Y475984D01*
X256902Y475981D01*
X256998Y475982D01*
X257093Y475988D01*
X257189Y475997D01*
X257283Y476010D01*
X257377Y476026D01*
X257471Y476047D01*
X257563Y476072D01*
X257654Y476100D01*
X257744Y476132D01*
X257833Y476167D01*
X257920Y476206D01*
X258006Y476249D01*
X258090Y476295D01*
X258171Y476345D01*
X258251Y476397D01*
X258329Y476453D01*
X258404Y476513D01*
X258476Y476575D01*
X258546Y476640D01*
X258614Y476708D01*
X258678Y476778D01*
X258740Y476851D01*
X258798Y476927D01*
X258854Y477005D01*
X258906Y477085D01*
X258955Y477167D01*
X259000Y477251D01*
X259042Y477337D01*
X259081Y477424D01*
X259116Y477513D01*
X259147Y477604D01*
X259174Y477695D01*
X259198Y477788D01*
X259218Y477881D01*
X259234Y477975D01*
X259246Y478070D01*
X259255Y478165D01*
X259259Y478261D01*
X259260Y478356D01*
X259253Y478603D01*
X259241Y478849D01*
X259223Y479095D01*
X259198Y479341D01*
X259168Y479585D01*
X259132Y479829D01*
X259091Y480072D01*
X259043Y480314D01*
X258989Y480555D01*
X258930Y480794D01*
X258865Y481032D01*
X258794Y481268D01*
X258718Y481503D01*
X258636Y481736D01*
X258548Y481966D01*
X258455Y482194D01*
X258357Y482421D01*
X252937Y481969D02*
X252900Y482057D01*
X252859Y482143D01*
X252815Y482228D01*
X252767Y482311D01*
X252716Y482391D01*
X252662Y482470D01*
X252604Y482546D01*
X252544Y482620D01*
X252480Y482692D01*
X252414Y482760D01*
X252344Y482826D01*
X252273Y482889D01*
X252198Y482950D01*
X252122Y483007D01*
X252043Y483060D01*
X251962Y483111D01*
X251879Y483158D01*
X251794Y483202D01*
X251707Y483242D01*
X251619Y483279D01*
X251529Y483312D01*
X251438Y483342D01*
X251346Y483367D01*
X251253Y483389D01*
X251159Y483407D01*
X251065Y483422D01*
X250970Y483432D01*
X250874Y483438D01*
X250779Y483441D01*
X250683Y483440D01*
X250588Y483434D01*
X250492Y483425D01*
X250398Y483412D01*
X250304Y483396D01*
X250210Y483375D01*
X250118Y483350D01*
X250027Y483322D01*
X249937Y483290D01*
X249848Y483255D01*
X249761Y483216D01*
X249675Y483173D01*
X249591Y483127D01*
X249510Y483077D01*
X249430Y483025D01*
X249352Y482969D01*
X249277Y482909D01*
X249205Y482847D01*
X249135Y482782D01*
X249067Y482714D01*
X249003Y482644D01*
X248941Y482571D01*
X248883Y482495D01*
X248827Y482417D01*
X248775Y482337D01*
X248726Y482255D01*
X248681Y482171D01*
X248639Y482085D01*
X248600Y481998D01*
X248565Y481909D01*
X248534Y481818D01*
X248507Y481727D01*
X248483Y481634D01*
X248463Y481541D01*
X248447Y481447D01*
X248435Y481352D01*
X248426Y481257D01*
X248422Y481161D01*
X248421Y481066D01*
X248422Y481066D02*
X248431Y480704D01*
X248449Y480342D01*
X248476Y479981D01*
X248511Y479621D01*
X248554Y479261D01*
X248606Y478902D01*
X248667Y478545D01*
X248736Y478190D01*
X248813Y477836D01*
X248899Y477484D01*
X248993Y477134D01*
X249096Y476786D01*
X249206Y476441D01*
X249325Y476099D01*
X234198Y46482D02*
X217942Y46482D01*
X225167Y51901D02*
X234198Y46482D01*
X225167Y51901D02*
X234198Y57319D01*
X217942Y57319D01*
X224264Y69369D02*
X224264Y73433D01*
X224264Y69369D02*
X224262Y69257D01*
X224256Y69146D01*
X224246Y69035D01*
X224233Y68924D01*
X224215Y68814D01*
X224193Y68705D01*
X224168Y68596D01*
X224139Y68488D01*
X224106Y68382D01*
X224069Y68276D01*
X224029Y68172D01*
X223985Y68070D01*
X223937Y67969D01*
X223886Y67870D01*
X223831Y67772D01*
X223773Y67677D01*
X223712Y67584D01*
X223647Y67493D01*
X223579Y67404D01*
X223508Y67318D01*
X223435Y67235D01*
X223358Y67154D01*
X223278Y67075D01*
X223196Y67000D01*
X223111Y66928D01*
X223024Y66858D01*
X222934Y66792D01*
X222842Y66729D01*
X222747Y66669D01*
X222651Y66613D01*
X222553Y66560D01*
X222453Y66511D01*
X222351Y66465D01*
X222248Y66423D01*
X222143Y66384D01*
X222037Y66349D01*
X221930Y66318D01*
X221822Y66291D01*
X221713Y66267D01*
X221603Y66248D01*
X221493Y66232D01*
X221382Y66220D01*
X221270Y66212D01*
X221159Y66208D01*
X221047Y66208D01*
X220936Y66212D01*
X220824Y66220D01*
X220713Y66232D01*
X220603Y66248D01*
X220493Y66267D01*
X220384Y66291D01*
X220276Y66318D01*
X220169Y66349D01*
X220063Y66384D01*
X219958Y66423D01*
X219855Y66465D01*
X219753Y66511D01*
X219653Y66560D01*
X219555Y66613D01*
X219459Y66669D01*
X219364Y66729D01*
X219272Y66792D01*
X219182Y66858D01*
X219095Y66928D01*
X219010Y67000D01*
X218928Y67075D01*
X218848Y67154D01*
X218771Y67235D01*
X218698Y67318D01*
X218627Y67404D01*
X218559Y67493D01*
X218494Y67584D01*
X218433Y67677D01*
X218375Y67772D01*
X218320Y67870D01*
X218269Y67969D01*
X218221Y68070D01*
X218177Y68172D01*
X218137Y68276D01*
X218100Y68382D01*
X218067Y68488D01*
X218038Y68596D01*
X218013Y68705D01*
X217991Y68814D01*
X217973Y68924D01*
X217960Y69035D01*
X217950Y69146D01*
X217944Y69257D01*
X217942Y69369D01*
X217942Y73433D01*
X226070Y73433D01*
X226171Y73431D01*
X226272Y73425D01*
X226373Y73416D01*
X226474Y73403D01*
X226574Y73386D01*
X226673Y73365D01*
X226771Y73341D01*
X226868Y73313D01*
X226965Y73281D01*
X227060Y73246D01*
X227153Y73207D01*
X227245Y73165D01*
X227336Y73119D01*
X227425Y73070D01*
X227511Y73018D01*
X227596Y72962D01*
X227679Y72904D01*
X227759Y72842D01*
X227837Y72777D01*
X227913Y72710D01*
X227986Y72640D01*
X228056Y72567D01*
X228123Y72491D01*
X228188Y72413D01*
X228250Y72333D01*
X228308Y72250D01*
X228364Y72165D01*
X228416Y72079D01*
X228465Y71990D01*
X228511Y71899D01*
X228553Y71807D01*
X228592Y71714D01*
X228627Y71619D01*
X228659Y71522D01*
X228687Y71425D01*
X228711Y71327D01*
X228732Y71228D01*
X228749Y71128D01*
X228762Y71027D01*
X228771Y70926D01*
X228777Y70825D01*
X228779Y70724D01*
X228779Y67112D01*
X228779Y82826D02*
X217942Y82826D01*
X228779Y82826D02*
X228779Y88245D01*
X226973Y88245D01*
X217942Y97056D02*
X217942Y100669D01*
X217942Y97056D02*
X217944Y96955D01*
X217950Y96854D01*
X217959Y96753D01*
X217972Y96652D01*
X217989Y96552D01*
X218010Y96453D01*
X218034Y96355D01*
X218062Y96258D01*
X218094Y96161D01*
X218129Y96066D01*
X218168Y95973D01*
X218210Y95881D01*
X218256Y95790D01*
X218305Y95702D01*
X218357Y95615D01*
X218413Y95530D01*
X218471Y95447D01*
X218533Y95367D01*
X218598Y95289D01*
X218665Y95213D01*
X218735Y95140D01*
X218808Y95070D01*
X218884Y95003D01*
X218962Y94938D01*
X219042Y94876D01*
X219125Y94818D01*
X219210Y94762D01*
X219297Y94710D01*
X219385Y94661D01*
X219476Y94615D01*
X219568Y94573D01*
X219661Y94534D01*
X219756Y94499D01*
X219853Y94467D01*
X219950Y94439D01*
X220048Y94415D01*
X220147Y94394D01*
X220247Y94377D01*
X220348Y94364D01*
X220449Y94355D01*
X220550Y94349D01*
X220651Y94347D01*
X226070Y94347D01*
X226171Y94349D01*
X226272Y94355D01*
X226373Y94364D01*
X226474Y94377D01*
X226574Y94394D01*
X226673Y94415D01*
X226771Y94439D01*
X226868Y94467D01*
X226965Y94499D01*
X227060Y94534D01*
X227153Y94573D01*
X227245Y94615D01*
X227336Y94661D01*
X227425Y94710D01*
X227511Y94762D01*
X227596Y94818D01*
X227679Y94876D01*
X227759Y94938D01*
X227837Y95003D01*
X227913Y95070D01*
X227986Y95140D01*
X228056Y95213D01*
X228123Y95289D01*
X228188Y95367D01*
X228250Y95447D01*
X228308Y95530D01*
X228364Y95615D01*
X228416Y95701D01*
X228465Y95790D01*
X228511Y95881D01*
X228553Y95973D01*
X228592Y96066D01*
X228627Y96161D01*
X228659Y96258D01*
X228687Y96355D01*
X228711Y96453D01*
X228732Y96552D01*
X228749Y96652D01*
X228762Y96753D01*
X228771Y96854D01*
X228777Y96955D01*
X228779Y97056D01*
X228779Y100669D01*
X225167Y107711D02*
X221554Y107711D01*
X225167Y107711D02*
X225286Y107713D01*
X225406Y107719D01*
X225525Y107729D01*
X225643Y107743D01*
X225762Y107760D01*
X225879Y107782D01*
X225996Y107807D01*
X226111Y107837D01*
X226226Y107870D01*
X226340Y107907D01*
X226452Y107947D01*
X226563Y107992D01*
X226672Y108040D01*
X226780Y108091D01*
X226886Y108146D01*
X226990Y108205D01*
X227092Y108267D01*
X227192Y108332D01*
X227290Y108401D01*
X227386Y108473D01*
X227479Y108548D01*
X227569Y108625D01*
X227657Y108706D01*
X227742Y108790D01*
X227824Y108877D01*
X227904Y108966D01*
X227980Y109058D01*
X228054Y109152D01*
X228124Y109249D01*
X228191Y109347D01*
X228255Y109448D01*
X228315Y109552D01*
X228372Y109657D01*
X228425Y109764D01*
X228475Y109872D01*
X228521Y109982D01*
X228563Y110094D01*
X228602Y110207D01*
X228637Y110321D01*
X228668Y110436D01*
X228696Y110553D01*
X228719Y110670D01*
X228739Y110787D01*
X228755Y110906D01*
X228767Y111025D01*
X228775Y111144D01*
X228779Y111263D01*
X228779Y111383D01*
X228775Y111502D01*
X228767Y111621D01*
X228755Y111740D01*
X228739Y111859D01*
X228719Y111976D01*
X228696Y112093D01*
X228668Y112210D01*
X228637Y112325D01*
X228602Y112439D01*
X228563Y112552D01*
X228521Y112664D01*
X228475Y112774D01*
X228425Y112882D01*
X228372Y112989D01*
X228315Y113094D01*
X228255Y113198D01*
X228191Y113299D01*
X228124Y113397D01*
X228054Y113494D01*
X227980Y113588D01*
X227904Y113680D01*
X227824Y113769D01*
X227742Y113856D01*
X227657Y113940D01*
X227569Y114021D01*
X227479Y114098D01*
X227386Y114173D01*
X227290Y114245D01*
X227192Y114314D01*
X227092Y114379D01*
X226990Y114441D01*
X226886Y114500D01*
X226780Y114555D01*
X226672Y114606D01*
X226563Y114654D01*
X226452Y114699D01*
X226340Y114739D01*
X226226Y114776D01*
X226111Y114809D01*
X225996Y114839D01*
X225879Y114864D01*
X225762Y114886D01*
X225643Y114903D01*
X225525Y114917D01*
X225406Y114927D01*
X225286Y114933D01*
X225167Y114935D01*
X225167Y114936D02*
X221554Y114936D01*
X221554Y114935D02*
X221435Y114933D01*
X221315Y114927D01*
X221196Y114917D01*
X221078Y114903D01*
X220959Y114886D01*
X220842Y114864D01*
X220725Y114839D01*
X220610Y114809D01*
X220495Y114776D01*
X220381Y114739D01*
X220269Y114699D01*
X220158Y114654D01*
X220049Y114606D01*
X219941Y114555D01*
X219835Y114500D01*
X219731Y114441D01*
X219629Y114379D01*
X219529Y114314D01*
X219431Y114245D01*
X219335Y114173D01*
X219242Y114098D01*
X219152Y114021D01*
X219064Y113940D01*
X218979Y113856D01*
X218897Y113769D01*
X218817Y113680D01*
X218741Y113588D01*
X218667Y113494D01*
X218597Y113397D01*
X218530Y113299D01*
X218466Y113198D01*
X218406Y113094D01*
X218349Y112989D01*
X218296Y112882D01*
X218246Y112774D01*
X218200Y112664D01*
X218158Y112552D01*
X218119Y112439D01*
X218084Y112325D01*
X218053Y112210D01*
X218025Y112093D01*
X218002Y111976D01*
X217982Y111859D01*
X217966Y111740D01*
X217954Y111621D01*
X217946Y111502D01*
X217942Y111383D01*
X217942Y111263D01*
X217946Y111144D01*
X217954Y111025D01*
X217966Y110906D01*
X217982Y110787D01*
X218002Y110670D01*
X218025Y110553D01*
X218053Y110436D01*
X218084Y110321D01*
X218119Y110207D01*
X218158Y110094D01*
X218200Y109982D01*
X218246Y109872D01*
X218296Y109764D01*
X218349Y109657D01*
X218406Y109552D01*
X218466Y109448D01*
X218530Y109347D01*
X218597Y109249D01*
X218667Y109152D01*
X218741Y109058D01*
X218817Y108966D01*
X218897Y108877D01*
X218979Y108790D01*
X219064Y108706D01*
X219152Y108625D01*
X219242Y108548D01*
X219335Y108473D01*
X219431Y108401D01*
X219529Y108332D01*
X219629Y108267D01*
X219731Y108205D01*
X219835Y108146D01*
X219941Y108091D01*
X220049Y108040D01*
X220158Y107992D01*
X220269Y107947D01*
X220381Y107907D01*
X220495Y107870D01*
X220610Y107837D01*
X220725Y107807D01*
X220842Y107782D01*
X220959Y107760D01*
X221078Y107743D01*
X221196Y107729D01*
X221315Y107719D01*
X221435Y107713D01*
X221554Y107711D01*
X217942Y133285D02*
X234198Y133285D01*
X225167Y138704D01*
X234198Y144123D01*
X217942Y144123D01*
X217942Y155861D02*
X217942Y160376D01*
X217942Y155861D02*
X217944Y155760D01*
X217950Y155659D01*
X217959Y155558D01*
X217972Y155457D01*
X217989Y155357D01*
X218010Y155258D01*
X218034Y155160D01*
X218062Y155063D01*
X218094Y154966D01*
X218129Y154871D01*
X218168Y154778D01*
X218210Y154686D01*
X218256Y154595D01*
X218305Y154507D01*
X218357Y154420D01*
X218413Y154335D01*
X218471Y154252D01*
X218533Y154172D01*
X218598Y154094D01*
X218665Y154018D01*
X218735Y153945D01*
X218808Y153875D01*
X218884Y153808D01*
X218962Y153743D01*
X219042Y153681D01*
X219125Y153623D01*
X219210Y153567D01*
X219297Y153515D01*
X219385Y153466D01*
X219476Y153420D01*
X219568Y153378D01*
X219661Y153339D01*
X219756Y153304D01*
X219853Y153272D01*
X219950Y153244D01*
X220048Y153220D01*
X220147Y153199D01*
X220247Y153182D01*
X220348Y153169D01*
X220449Y153160D01*
X220550Y153154D01*
X220651Y153152D01*
X220651Y153151D02*
X225167Y153151D01*
X225167Y153152D02*
X225286Y153154D01*
X225406Y153160D01*
X225525Y153170D01*
X225643Y153184D01*
X225762Y153201D01*
X225879Y153223D01*
X225996Y153248D01*
X226111Y153278D01*
X226226Y153311D01*
X226340Y153348D01*
X226452Y153388D01*
X226563Y153433D01*
X226672Y153481D01*
X226780Y153532D01*
X226886Y153587D01*
X226990Y153646D01*
X227092Y153708D01*
X227192Y153773D01*
X227290Y153842D01*
X227386Y153914D01*
X227479Y153989D01*
X227569Y154066D01*
X227657Y154147D01*
X227742Y154231D01*
X227824Y154318D01*
X227904Y154407D01*
X227980Y154499D01*
X228054Y154593D01*
X228124Y154690D01*
X228191Y154788D01*
X228255Y154889D01*
X228315Y154993D01*
X228372Y155098D01*
X228425Y155205D01*
X228475Y155313D01*
X228521Y155423D01*
X228563Y155535D01*
X228602Y155648D01*
X228637Y155762D01*
X228668Y155877D01*
X228696Y155994D01*
X228719Y156111D01*
X228739Y156228D01*
X228755Y156347D01*
X228767Y156466D01*
X228775Y156585D01*
X228779Y156704D01*
X228779Y156824D01*
X228775Y156943D01*
X228767Y157062D01*
X228755Y157181D01*
X228739Y157300D01*
X228719Y157417D01*
X228696Y157534D01*
X228668Y157651D01*
X228637Y157766D01*
X228602Y157880D01*
X228563Y157993D01*
X228521Y158105D01*
X228475Y158215D01*
X228425Y158323D01*
X228372Y158430D01*
X228315Y158535D01*
X228255Y158639D01*
X228191Y158740D01*
X228124Y158838D01*
X228054Y158935D01*
X227980Y159029D01*
X227904Y159121D01*
X227824Y159210D01*
X227742Y159297D01*
X227657Y159381D01*
X227569Y159462D01*
X227479Y159539D01*
X227386Y159614D01*
X227290Y159686D01*
X227192Y159755D01*
X227092Y159820D01*
X226990Y159882D01*
X226886Y159941D01*
X226780Y159996D01*
X226672Y160047D01*
X226563Y160095D01*
X226452Y160140D01*
X226340Y160180D01*
X226226Y160217D01*
X226111Y160250D01*
X225996Y160280D01*
X225879Y160305D01*
X225762Y160327D01*
X225643Y160344D01*
X225525Y160358D01*
X225406Y160368D01*
X225286Y160374D01*
X225167Y160376D01*
X223361Y160376D01*
X223361Y153151D01*
X220651Y168346D02*
X234198Y168346D01*
X220651Y168347D02*
X220550Y168349D01*
X220449Y168355D01*
X220348Y168364D01*
X220247Y168377D01*
X220147Y168394D01*
X220048Y168415D01*
X219950Y168439D01*
X219853Y168467D01*
X219756Y168499D01*
X219661Y168534D01*
X219568Y168573D01*
X219476Y168615D01*
X219385Y168661D01*
X219297Y168710D01*
X219210Y168762D01*
X219125Y168818D01*
X219042Y168876D01*
X218962Y168938D01*
X218884Y169003D01*
X218808Y169070D01*
X218735Y169140D01*
X218665Y169213D01*
X218598Y169289D01*
X218533Y169367D01*
X218471Y169447D01*
X218413Y169530D01*
X218357Y169615D01*
X218305Y169702D01*
X218256Y169790D01*
X218210Y169881D01*
X218168Y169973D01*
X218129Y170066D01*
X218094Y170161D01*
X218062Y170258D01*
X218034Y170355D01*
X218010Y170453D01*
X217989Y170552D01*
X217972Y170652D01*
X217959Y170753D01*
X217950Y170854D01*
X217944Y170955D01*
X217942Y171056D01*
X220651Y177668D02*
X234198Y177668D01*
X220651Y177668D02*
X220550Y177670D01*
X220449Y177676D01*
X220348Y177685D01*
X220247Y177698D01*
X220147Y177715D01*
X220048Y177736D01*
X219950Y177760D01*
X219853Y177788D01*
X219756Y177820D01*
X219661Y177855D01*
X219568Y177894D01*
X219476Y177936D01*
X219385Y177982D01*
X219297Y178031D01*
X219210Y178083D01*
X219125Y178139D01*
X219042Y178197D01*
X218962Y178259D01*
X218884Y178324D01*
X218808Y178391D01*
X218735Y178461D01*
X218665Y178534D01*
X218598Y178610D01*
X218533Y178688D01*
X218471Y178768D01*
X218413Y178851D01*
X218357Y178936D01*
X218305Y179023D01*
X218256Y179111D01*
X218210Y179202D01*
X218168Y179294D01*
X218129Y179387D01*
X218094Y179482D01*
X218062Y179579D01*
X218034Y179676D01*
X218010Y179774D01*
X217989Y179873D01*
X217972Y179973D01*
X217959Y180074D01*
X217950Y180175D01*
X217944Y180276D01*
X217942Y180377D01*
X221554Y186941D02*
X225167Y186941D01*
X225286Y186943D01*
X225406Y186949D01*
X225525Y186959D01*
X225643Y186973D01*
X225762Y186990D01*
X225879Y187012D01*
X225996Y187037D01*
X226111Y187067D01*
X226226Y187100D01*
X226340Y187137D01*
X226452Y187177D01*
X226563Y187222D01*
X226672Y187270D01*
X226780Y187321D01*
X226886Y187376D01*
X226990Y187435D01*
X227092Y187497D01*
X227192Y187562D01*
X227290Y187631D01*
X227386Y187703D01*
X227479Y187778D01*
X227569Y187855D01*
X227657Y187936D01*
X227742Y188020D01*
X227824Y188107D01*
X227904Y188196D01*
X227980Y188288D01*
X228054Y188382D01*
X228124Y188479D01*
X228191Y188577D01*
X228255Y188678D01*
X228315Y188782D01*
X228372Y188887D01*
X228425Y188994D01*
X228475Y189102D01*
X228521Y189212D01*
X228563Y189324D01*
X228602Y189437D01*
X228637Y189551D01*
X228668Y189666D01*
X228696Y189783D01*
X228719Y189900D01*
X228739Y190017D01*
X228755Y190136D01*
X228767Y190255D01*
X228775Y190374D01*
X228779Y190493D01*
X228779Y190613D01*
X228775Y190732D01*
X228767Y190851D01*
X228755Y190970D01*
X228739Y191089D01*
X228719Y191206D01*
X228696Y191323D01*
X228668Y191440D01*
X228637Y191555D01*
X228602Y191669D01*
X228563Y191782D01*
X228521Y191894D01*
X228475Y192004D01*
X228425Y192112D01*
X228372Y192219D01*
X228315Y192324D01*
X228255Y192428D01*
X228191Y192529D01*
X228124Y192627D01*
X228054Y192724D01*
X227980Y192818D01*
X227904Y192910D01*
X227824Y192999D01*
X227742Y193086D01*
X227657Y193170D01*
X227569Y193251D01*
X227479Y193328D01*
X227386Y193403D01*
X227290Y193475D01*
X227192Y193544D01*
X227092Y193609D01*
X226990Y193671D01*
X226886Y193730D01*
X226780Y193785D01*
X226672Y193836D01*
X226563Y193884D01*
X226452Y193929D01*
X226340Y193969D01*
X226226Y194006D01*
X226111Y194039D01*
X225996Y194069D01*
X225879Y194094D01*
X225762Y194116D01*
X225643Y194133D01*
X225525Y194147D01*
X225406Y194157D01*
X225286Y194163D01*
X225167Y194165D01*
X221554Y194165D01*
X221435Y194163D01*
X221315Y194157D01*
X221196Y194147D01*
X221078Y194133D01*
X220959Y194116D01*
X220842Y194094D01*
X220725Y194069D01*
X220610Y194039D01*
X220495Y194006D01*
X220381Y193969D01*
X220269Y193929D01*
X220158Y193884D01*
X220049Y193836D01*
X219941Y193785D01*
X219835Y193730D01*
X219731Y193671D01*
X219629Y193609D01*
X219529Y193544D01*
X219431Y193475D01*
X219335Y193403D01*
X219242Y193328D01*
X219152Y193251D01*
X219064Y193170D01*
X218979Y193086D01*
X218897Y192999D01*
X218817Y192910D01*
X218741Y192818D01*
X218667Y192724D01*
X218597Y192627D01*
X218530Y192529D01*
X218466Y192428D01*
X218406Y192324D01*
X218349Y192219D01*
X218296Y192112D01*
X218246Y192004D01*
X218200Y191894D01*
X218158Y191782D01*
X218119Y191669D01*
X218084Y191555D01*
X218053Y191440D01*
X218025Y191323D01*
X218002Y191206D01*
X217982Y191089D01*
X217966Y190970D01*
X217954Y190851D01*
X217946Y190732D01*
X217942Y190613D01*
X217942Y190493D01*
X217946Y190374D01*
X217954Y190255D01*
X217966Y190136D01*
X217982Y190017D01*
X218002Y189900D01*
X218025Y189783D01*
X218053Y189666D01*
X218084Y189551D01*
X218119Y189437D01*
X218158Y189324D01*
X218200Y189212D01*
X218246Y189102D01*
X218296Y188994D01*
X218349Y188887D01*
X218406Y188782D01*
X218466Y188678D01*
X218530Y188577D01*
X218597Y188479D01*
X218667Y188382D01*
X218741Y188288D01*
X218817Y188196D01*
X218897Y188107D01*
X218979Y188020D01*
X219064Y187936D01*
X219152Y187855D01*
X219242Y187778D01*
X219335Y187703D01*
X219431Y187631D01*
X219529Y187562D01*
X219629Y187497D01*
X219731Y187435D01*
X219835Y187376D01*
X219941Y187321D01*
X220049Y187270D01*
X220158Y187222D01*
X220269Y187177D01*
X220381Y187137D01*
X220495Y187100D01*
X220610Y187067D01*
X220725Y187037D01*
X220842Y187012D01*
X220959Y186990D01*
X221078Y186973D01*
X221196Y186959D01*
X221315Y186949D01*
X221435Y186943D01*
X221554Y186941D01*
D11*
X131191Y48235D02*
X131191Y45865D01*
X131193Y45770D01*
X131199Y45674D01*
X131208Y45579D01*
X131222Y45485D01*
X131239Y45391D01*
X131260Y45298D01*
X131285Y45205D01*
X131313Y45114D01*
X131345Y45024D01*
X131381Y44936D01*
X131420Y44849D01*
X131463Y44763D01*
X131509Y44680D01*
X131558Y44598D01*
X131611Y44518D01*
X131667Y44441D01*
X131725Y44365D01*
X131787Y44293D01*
X131852Y44223D01*
X131920Y44155D01*
X131990Y44090D01*
X132062Y44028D01*
X132138Y43970D01*
X132215Y43914D01*
X132295Y43861D01*
X132377Y43812D01*
X132460Y43766D01*
X132546Y43723D01*
X132633Y43684D01*
X132721Y43648D01*
X132811Y43616D01*
X132902Y43588D01*
X132995Y43563D01*
X133088Y43542D01*
X133182Y43525D01*
X133276Y43511D01*
X133371Y43502D01*
X133467Y43496D01*
X133562Y43494D01*
X139488Y43494D01*
X139583Y43496D01*
X139679Y43502D01*
X139774Y43511D01*
X139868Y43525D01*
X139962Y43542D01*
X140055Y43563D01*
X140148Y43588D01*
X140239Y43616D01*
X140329Y43648D01*
X140417Y43684D01*
X140504Y43723D01*
X140590Y43766D01*
X140673Y43812D01*
X140755Y43861D01*
X140835Y43914D01*
X140912Y43970D01*
X140988Y44028D01*
X141060Y44090D01*
X141130Y44155D01*
X141198Y44223D01*
X141263Y44293D01*
X141325Y44365D01*
X141383Y44441D01*
X141439Y44518D01*
X141492Y44598D01*
X141541Y44679D01*
X141587Y44763D01*
X141630Y44849D01*
X141669Y44936D01*
X141705Y45024D01*
X141737Y45114D01*
X141765Y45205D01*
X141790Y45298D01*
X141811Y45391D01*
X141828Y45485D01*
X141842Y45579D01*
X141851Y45674D01*
X141857Y45769D01*
X141859Y45865D01*
X141859Y48235D01*
X135932Y52899D02*
X133562Y52899D01*
X135932Y52899D02*
X136029Y52901D01*
X136125Y52907D01*
X136221Y52917D01*
X136317Y52931D01*
X136412Y52948D01*
X136507Y52970D01*
X136600Y52995D01*
X136692Y53024D01*
X136783Y53057D01*
X136873Y53094D01*
X136961Y53134D01*
X137047Y53178D01*
X137131Y53225D01*
X137214Y53275D01*
X137294Y53329D01*
X137372Y53387D01*
X137448Y53447D01*
X137521Y53510D01*
X137591Y53576D01*
X137659Y53646D01*
X137724Y53717D01*
X137786Y53792D01*
X137844Y53869D01*
X137900Y53948D01*
X137952Y54029D01*
X138001Y54113D01*
X138047Y54198D01*
X138089Y54285D01*
X138127Y54374D01*
X138162Y54464D01*
X138193Y54556D01*
X138220Y54649D01*
X138244Y54742D01*
X138263Y54837D01*
X138279Y54933D01*
X138291Y55029D01*
X138299Y55125D01*
X138303Y55222D01*
X138303Y55318D01*
X138299Y55415D01*
X138291Y55511D01*
X138279Y55607D01*
X138263Y55703D01*
X138244Y55798D01*
X138220Y55891D01*
X138193Y55984D01*
X138162Y56076D01*
X138127Y56166D01*
X138089Y56255D01*
X138047Y56342D01*
X138001Y56427D01*
X137952Y56511D01*
X137900Y56592D01*
X137844Y56671D01*
X137786Y56748D01*
X137724Y56823D01*
X137659Y56894D01*
X137591Y56964D01*
X137521Y57030D01*
X137448Y57093D01*
X137372Y57153D01*
X137294Y57211D01*
X137214Y57265D01*
X137131Y57315D01*
X137047Y57362D01*
X136961Y57406D01*
X136873Y57446D01*
X136783Y57483D01*
X136692Y57516D01*
X136600Y57545D01*
X136507Y57570D01*
X136412Y57592D01*
X136317Y57609D01*
X136221Y57623D01*
X136125Y57633D01*
X136029Y57639D01*
X135932Y57641D01*
X133562Y57641D01*
X133465Y57639D01*
X133369Y57633D01*
X133273Y57623D01*
X133177Y57609D01*
X133082Y57592D01*
X132987Y57570D01*
X132894Y57545D01*
X132802Y57516D01*
X132711Y57483D01*
X132621Y57446D01*
X132533Y57406D01*
X132447Y57362D01*
X132363Y57315D01*
X132280Y57265D01*
X132200Y57211D01*
X132122Y57153D01*
X132046Y57093D01*
X131973Y57030D01*
X131903Y56964D01*
X131835Y56894D01*
X131770Y56823D01*
X131708Y56748D01*
X131650Y56671D01*
X131594Y56592D01*
X131542Y56511D01*
X131493Y56427D01*
X131447Y56342D01*
X131405Y56255D01*
X131367Y56166D01*
X131332Y56076D01*
X131301Y55984D01*
X131274Y55891D01*
X131250Y55798D01*
X131231Y55703D01*
X131215Y55607D01*
X131203Y55511D01*
X131195Y55415D01*
X131191Y55318D01*
X131191Y55222D01*
X131195Y55125D01*
X131203Y55029D01*
X131215Y54933D01*
X131231Y54837D01*
X131250Y54742D01*
X131274Y54649D01*
X131301Y54556D01*
X131332Y54464D01*
X131367Y54374D01*
X131405Y54285D01*
X131447Y54198D01*
X131493Y54113D01*
X131542Y54029D01*
X131594Y53948D01*
X131650Y53869D01*
X131708Y53792D01*
X131770Y53717D01*
X131835Y53646D01*
X131903Y53576D01*
X131973Y53510D01*
X132046Y53447D01*
X132122Y53387D01*
X132200Y53329D01*
X132280Y53275D01*
X132363Y53225D01*
X132447Y53178D01*
X132533Y53134D01*
X132621Y53094D01*
X132711Y53057D01*
X132802Y53024D01*
X132894Y52995D01*
X132987Y52970D01*
X133082Y52948D01*
X133177Y52931D01*
X133273Y52917D01*
X133369Y52907D01*
X133465Y52901D01*
X133562Y52899D01*
X131191Y63525D02*
X138303Y63525D01*
X138303Y68859D01*
X138301Y68941D01*
X138295Y69023D01*
X138286Y69105D01*
X138273Y69186D01*
X138256Y69266D01*
X138235Y69346D01*
X138211Y69424D01*
X138183Y69501D01*
X138152Y69577D01*
X138117Y69652D01*
X138078Y69724D01*
X138037Y69795D01*
X137992Y69864D01*
X137944Y69930D01*
X137893Y69995D01*
X137839Y70057D01*
X137782Y70116D01*
X137723Y70173D01*
X137661Y70227D01*
X137596Y70278D01*
X137530Y70326D01*
X137461Y70371D01*
X137390Y70412D01*
X137318Y70451D01*
X137243Y70486D01*
X137167Y70517D01*
X137090Y70545D01*
X137012Y70569D01*
X136932Y70590D01*
X136852Y70607D01*
X136771Y70620D01*
X136689Y70629D01*
X136607Y70635D01*
X136525Y70637D01*
X131191Y70637D01*
X131191Y67081D02*
X138303Y67081D01*
X138303Y76991D02*
X127635Y76991D01*
X138303Y76991D02*
X138303Y79954D01*
X138301Y80036D01*
X138295Y80118D01*
X138286Y80200D01*
X138273Y80281D01*
X138256Y80361D01*
X138235Y80441D01*
X138211Y80519D01*
X138183Y80596D01*
X138152Y80672D01*
X138117Y80747D01*
X138078Y80819D01*
X138037Y80890D01*
X137992Y80959D01*
X137944Y81025D01*
X137893Y81090D01*
X137839Y81152D01*
X137782Y81211D01*
X137723Y81268D01*
X137661Y81322D01*
X137596Y81373D01*
X137530Y81421D01*
X137461Y81466D01*
X137390Y81507D01*
X137318Y81546D01*
X137243Y81581D01*
X137167Y81612D01*
X137090Y81640D01*
X137012Y81664D01*
X136932Y81685D01*
X136852Y81702D01*
X136771Y81715D01*
X136689Y81724D01*
X136607Y81730D01*
X136525Y81732D01*
X132969Y81732D01*
X132887Y81730D01*
X132805Y81724D01*
X132723Y81715D01*
X132642Y81702D01*
X132562Y81685D01*
X132482Y81664D01*
X132404Y81640D01*
X132327Y81612D01*
X132251Y81581D01*
X132176Y81546D01*
X132104Y81507D01*
X132033Y81466D01*
X131964Y81421D01*
X131898Y81373D01*
X131833Y81322D01*
X131771Y81268D01*
X131712Y81211D01*
X131655Y81152D01*
X131601Y81090D01*
X131550Y81025D01*
X131502Y80959D01*
X131457Y80890D01*
X131416Y80819D01*
X131377Y80747D01*
X131342Y80672D01*
X131311Y80596D01*
X131283Y80519D01*
X131259Y80441D01*
X131238Y80361D01*
X131221Y80281D01*
X131208Y80200D01*
X131199Y80118D01*
X131193Y80036D01*
X131191Y79954D01*
X131191Y76991D01*
X135340Y88794D02*
X135340Y91461D01*
X135339Y88794D02*
X135337Y88705D01*
X135331Y88616D01*
X135322Y88527D01*
X135308Y88439D01*
X135291Y88351D01*
X135270Y88264D01*
X135246Y88179D01*
X135217Y88094D01*
X135185Y88011D01*
X135150Y87929D01*
X135111Y87848D01*
X135069Y87770D01*
X135023Y87693D01*
X134974Y87619D01*
X134922Y87546D01*
X134866Y87476D01*
X134808Y87408D01*
X134747Y87343D01*
X134683Y87281D01*
X134617Y87221D01*
X134548Y87165D01*
X134477Y87111D01*
X134403Y87060D01*
X134328Y87013D01*
X134250Y86969D01*
X134171Y86928D01*
X134090Y86891D01*
X134007Y86857D01*
X133923Y86827D01*
X133838Y86801D01*
X133751Y86778D01*
X133664Y86759D01*
X133576Y86743D01*
X133488Y86732D01*
X133399Y86724D01*
X133310Y86720D01*
X133220Y86720D01*
X133131Y86724D01*
X133042Y86732D01*
X132954Y86743D01*
X132866Y86759D01*
X132779Y86778D01*
X132692Y86801D01*
X132607Y86827D01*
X132523Y86857D01*
X132440Y86891D01*
X132359Y86928D01*
X132280Y86969D01*
X132202Y87013D01*
X132127Y87060D01*
X132053Y87111D01*
X131982Y87165D01*
X131913Y87221D01*
X131847Y87281D01*
X131783Y87343D01*
X131722Y87408D01*
X131664Y87476D01*
X131608Y87546D01*
X131556Y87619D01*
X131507Y87693D01*
X131461Y87770D01*
X131419Y87848D01*
X131380Y87929D01*
X131345Y88011D01*
X131313Y88094D01*
X131284Y88179D01*
X131260Y88264D01*
X131239Y88351D01*
X131222Y88439D01*
X131208Y88527D01*
X131199Y88616D01*
X131193Y88705D01*
X131191Y88794D01*
X131191Y91461D01*
X136525Y91461D01*
X136607Y91459D01*
X136689Y91453D01*
X136771Y91444D01*
X136852Y91431D01*
X136932Y91414D01*
X137012Y91393D01*
X137090Y91369D01*
X137167Y91341D01*
X137243Y91310D01*
X137318Y91275D01*
X137390Y91236D01*
X137461Y91195D01*
X137530Y91150D01*
X137596Y91102D01*
X137661Y91051D01*
X137723Y90997D01*
X137782Y90940D01*
X137839Y90881D01*
X137893Y90819D01*
X137944Y90754D01*
X137992Y90688D01*
X138037Y90619D01*
X138078Y90548D01*
X138117Y90476D01*
X138152Y90401D01*
X138183Y90325D01*
X138211Y90248D01*
X138235Y90170D01*
X138256Y90090D01*
X138273Y90010D01*
X138286Y89929D01*
X138295Y89847D01*
X138301Y89765D01*
X138303Y89683D01*
X138303Y87313D01*
X138303Y96025D02*
X138303Y99581D01*
X141859Y97211D02*
X132969Y97211D01*
X132887Y97213D01*
X132805Y97219D01*
X132723Y97228D01*
X132642Y97241D01*
X132562Y97258D01*
X132482Y97279D01*
X132404Y97303D01*
X132327Y97331D01*
X132251Y97362D01*
X132176Y97397D01*
X132104Y97436D01*
X132033Y97477D01*
X131964Y97522D01*
X131898Y97570D01*
X131833Y97621D01*
X131771Y97675D01*
X131712Y97732D01*
X131655Y97791D01*
X131601Y97853D01*
X131550Y97918D01*
X131502Y97984D01*
X131457Y98053D01*
X131416Y98124D01*
X131377Y98196D01*
X131342Y98271D01*
X131311Y98347D01*
X131283Y98424D01*
X131259Y98502D01*
X131238Y98582D01*
X131221Y98662D01*
X131208Y98743D01*
X131199Y98825D01*
X131193Y98907D01*
X131191Y98989D01*
X131191Y99581D01*
X131191Y104195D02*
X138303Y104195D01*
X140970Y103899D02*
X143341Y105084D01*
X138303Y108525D02*
X131191Y110896D01*
X138303Y113267D01*
X131191Y119828D02*
X131191Y122792D01*
X131191Y119828D02*
X131193Y119746D01*
X131199Y119664D01*
X131208Y119582D01*
X131221Y119501D01*
X131238Y119421D01*
X131259Y119341D01*
X131283Y119263D01*
X131311Y119186D01*
X131342Y119110D01*
X131377Y119035D01*
X131416Y118963D01*
X131457Y118892D01*
X131502Y118823D01*
X131550Y118757D01*
X131601Y118692D01*
X131655Y118630D01*
X131712Y118571D01*
X131771Y118514D01*
X131833Y118460D01*
X131898Y118409D01*
X131964Y118361D01*
X132033Y118316D01*
X132104Y118275D01*
X132176Y118236D01*
X132251Y118201D01*
X132327Y118170D01*
X132404Y118142D01*
X132482Y118118D01*
X132562Y118097D01*
X132642Y118080D01*
X132723Y118067D01*
X132805Y118058D01*
X132887Y118052D01*
X132969Y118050D01*
X135932Y118050D01*
X136029Y118052D01*
X136125Y118058D01*
X136221Y118068D01*
X136317Y118082D01*
X136412Y118099D01*
X136507Y118121D01*
X136600Y118146D01*
X136692Y118175D01*
X136783Y118208D01*
X136873Y118245D01*
X136961Y118285D01*
X137047Y118329D01*
X137131Y118376D01*
X137214Y118426D01*
X137294Y118480D01*
X137372Y118538D01*
X137448Y118598D01*
X137521Y118661D01*
X137591Y118727D01*
X137659Y118797D01*
X137724Y118868D01*
X137786Y118943D01*
X137844Y119020D01*
X137900Y119099D01*
X137952Y119180D01*
X138001Y119264D01*
X138047Y119349D01*
X138089Y119436D01*
X138127Y119525D01*
X138162Y119615D01*
X138193Y119707D01*
X138220Y119800D01*
X138244Y119893D01*
X138263Y119988D01*
X138279Y120084D01*
X138291Y120180D01*
X138299Y120276D01*
X138303Y120373D01*
X138303Y120469D01*
X138299Y120566D01*
X138291Y120662D01*
X138279Y120758D01*
X138263Y120854D01*
X138244Y120949D01*
X138220Y121042D01*
X138193Y121135D01*
X138162Y121227D01*
X138127Y121317D01*
X138089Y121406D01*
X138047Y121493D01*
X138001Y121578D01*
X137952Y121662D01*
X137900Y121743D01*
X137844Y121822D01*
X137786Y121899D01*
X137724Y121974D01*
X137659Y122045D01*
X137591Y122115D01*
X137521Y122181D01*
X137448Y122244D01*
X137372Y122304D01*
X137294Y122362D01*
X137214Y122416D01*
X137131Y122466D01*
X137047Y122513D01*
X136961Y122557D01*
X136873Y122597D01*
X136783Y122634D01*
X136692Y122667D01*
X136600Y122696D01*
X136507Y122721D01*
X136412Y122743D01*
X136317Y122760D01*
X136221Y122774D01*
X136125Y122784D01*
X136029Y122790D01*
X135932Y122792D01*
X134747Y122792D01*
X134747Y118050D01*
X132969Y127990D02*
X141859Y127990D01*
X132969Y127990D02*
X132887Y127992D01*
X132805Y127998D01*
X132723Y128007D01*
X132642Y128020D01*
X132562Y128037D01*
X132482Y128058D01*
X132404Y128082D01*
X132327Y128110D01*
X132251Y128141D01*
X132176Y128176D01*
X132104Y128215D01*
X132033Y128256D01*
X131964Y128301D01*
X131898Y128349D01*
X131833Y128400D01*
X131771Y128454D01*
X131712Y128511D01*
X131655Y128570D01*
X131601Y128632D01*
X131550Y128697D01*
X131502Y128763D01*
X131457Y128832D01*
X131416Y128903D01*
X131377Y128975D01*
X131342Y129050D01*
X131311Y129126D01*
X131283Y129203D01*
X131259Y129281D01*
X131238Y129361D01*
X131221Y129441D01*
X131208Y129522D01*
X131199Y129604D01*
X131193Y129686D01*
X131191Y129768D01*
X131191Y141946D02*
X131191Y144317D01*
X131191Y141946D02*
X131193Y141864D01*
X131199Y141782D01*
X131208Y141700D01*
X131221Y141619D01*
X131238Y141539D01*
X131259Y141459D01*
X131283Y141381D01*
X131311Y141304D01*
X131342Y141228D01*
X131377Y141153D01*
X131416Y141081D01*
X131457Y141010D01*
X131502Y140941D01*
X131550Y140875D01*
X131601Y140810D01*
X131655Y140748D01*
X131712Y140689D01*
X131771Y140632D01*
X131833Y140578D01*
X131898Y140527D01*
X131964Y140479D01*
X132033Y140434D01*
X132104Y140393D01*
X132176Y140354D01*
X132251Y140319D01*
X132327Y140288D01*
X132404Y140260D01*
X132482Y140236D01*
X132562Y140215D01*
X132642Y140198D01*
X132723Y140185D01*
X132805Y140176D01*
X132887Y140170D01*
X132969Y140168D01*
X136525Y140168D01*
X136607Y140170D01*
X136689Y140176D01*
X136771Y140185D01*
X136852Y140198D01*
X136932Y140215D01*
X137012Y140236D01*
X137090Y140260D01*
X137167Y140288D01*
X137243Y140319D01*
X137318Y140354D01*
X137390Y140393D01*
X137461Y140434D01*
X137530Y140479D01*
X137596Y140527D01*
X137661Y140578D01*
X137723Y140632D01*
X137782Y140689D01*
X137839Y140748D01*
X137893Y140810D01*
X137944Y140875D01*
X137992Y140941D01*
X138037Y141010D01*
X138078Y141081D01*
X138117Y141153D01*
X138152Y141228D01*
X138183Y141304D01*
X138211Y141381D01*
X138235Y141459D01*
X138256Y141539D01*
X138273Y141619D01*
X138286Y141700D01*
X138295Y141782D01*
X138301Y141864D01*
X138303Y141946D01*
X138303Y144317D01*
X135932Y148911D02*
X133562Y148911D01*
X135932Y148911D02*
X136029Y148913D01*
X136125Y148919D01*
X136221Y148929D01*
X136317Y148943D01*
X136412Y148960D01*
X136507Y148982D01*
X136600Y149007D01*
X136692Y149036D01*
X136783Y149069D01*
X136873Y149106D01*
X136961Y149146D01*
X137047Y149190D01*
X137131Y149237D01*
X137214Y149287D01*
X137294Y149341D01*
X137372Y149399D01*
X137448Y149459D01*
X137521Y149522D01*
X137591Y149588D01*
X137659Y149658D01*
X137724Y149729D01*
X137786Y149804D01*
X137844Y149881D01*
X137900Y149960D01*
X137952Y150041D01*
X138001Y150125D01*
X138047Y150210D01*
X138089Y150297D01*
X138127Y150386D01*
X138162Y150476D01*
X138193Y150568D01*
X138220Y150661D01*
X138244Y150754D01*
X138263Y150849D01*
X138279Y150945D01*
X138291Y151041D01*
X138299Y151137D01*
X138303Y151234D01*
X138303Y151330D01*
X138299Y151427D01*
X138291Y151523D01*
X138279Y151619D01*
X138263Y151715D01*
X138244Y151810D01*
X138220Y151903D01*
X138193Y151996D01*
X138162Y152088D01*
X138127Y152178D01*
X138089Y152267D01*
X138047Y152354D01*
X138001Y152439D01*
X137952Y152523D01*
X137900Y152604D01*
X137844Y152683D01*
X137786Y152760D01*
X137724Y152835D01*
X137659Y152906D01*
X137591Y152976D01*
X137521Y153042D01*
X137448Y153105D01*
X137372Y153165D01*
X137294Y153223D01*
X137214Y153277D01*
X137131Y153327D01*
X137047Y153374D01*
X136961Y153418D01*
X136873Y153458D01*
X136783Y153495D01*
X136692Y153528D01*
X136600Y153557D01*
X136507Y153582D01*
X136412Y153604D01*
X136317Y153621D01*
X136221Y153635D01*
X136125Y153645D01*
X136029Y153651D01*
X135932Y153653D01*
X133562Y153653D01*
X133465Y153651D01*
X133369Y153645D01*
X133273Y153635D01*
X133177Y153621D01*
X133082Y153604D01*
X132987Y153582D01*
X132894Y153557D01*
X132802Y153528D01*
X132711Y153495D01*
X132621Y153458D01*
X132533Y153418D01*
X132447Y153374D01*
X132363Y153327D01*
X132280Y153277D01*
X132200Y153223D01*
X132122Y153165D01*
X132046Y153105D01*
X131973Y153042D01*
X131903Y152976D01*
X131835Y152906D01*
X131770Y152835D01*
X131708Y152760D01*
X131650Y152683D01*
X131594Y152604D01*
X131542Y152523D01*
X131493Y152439D01*
X131447Y152354D01*
X131405Y152267D01*
X131367Y152178D01*
X131332Y152088D01*
X131301Y151996D01*
X131274Y151903D01*
X131250Y151810D01*
X131231Y151715D01*
X131215Y151619D01*
X131203Y151523D01*
X131195Y151427D01*
X131191Y151330D01*
X131191Y151234D01*
X131195Y151137D01*
X131203Y151041D01*
X131215Y150945D01*
X131231Y150849D01*
X131250Y150754D01*
X131274Y150661D01*
X131301Y150568D01*
X131332Y150476D01*
X131367Y150386D01*
X131405Y150297D01*
X131447Y150210D01*
X131493Y150125D01*
X131542Y150041D01*
X131594Y149960D01*
X131650Y149881D01*
X131708Y149804D01*
X131770Y149729D01*
X131835Y149658D01*
X131903Y149588D01*
X131973Y149522D01*
X132046Y149459D01*
X132122Y149399D01*
X132200Y149341D01*
X132280Y149287D01*
X132363Y149237D01*
X132447Y149190D01*
X132533Y149146D01*
X132621Y149106D01*
X132711Y149069D01*
X132802Y149036D01*
X132894Y149007D01*
X132987Y148982D01*
X133082Y148960D01*
X133177Y148943D01*
X133273Y148929D01*
X133369Y148919D01*
X133465Y148913D01*
X133562Y148911D01*
X131191Y159537D02*
X138303Y159537D01*
X138303Y164871D01*
X138301Y164953D01*
X138295Y165035D01*
X138286Y165117D01*
X138273Y165198D01*
X138256Y165278D01*
X138235Y165358D01*
X138211Y165436D01*
X138183Y165513D01*
X138152Y165589D01*
X138117Y165664D01*
X138078Y165736D01*
X138037Y165807D01*
X137992Y165876D01*
X137944Y165942D01*
X137893Y166007D01*
X137839Y166069D01*
X137782Y166128D01*
X137723Y166185D01*
X137661Y166239D01*
X137596Y166290D01*
X137530Y166338D01*
X137461Y166383D01*
X137390Y166424D01*
X137318Y166463D01*
X137243Y166498D01*
X137167Y166529D01*
X137090Y166557D01*
X137012Y166581D01*
X136932Y166602D01*
X136852Y166619D01*
X136771Y166632D01*
X136689Y166641D01*
X136607Y166647D01*
X136525Y166649D01*
X131191Y166649D01*
X131191Y163093D02*
X138303Y163093D01*
X131191Y181974D02*
X131193Y182070D01*
X131199Y182165D01*
X131208Y182260D01*
X131222Y182354D01*
X131239Y182448D01*
X131260Y182541D01*
X131285Y182634D01*
X131313Y182725D01*
X131345Y182815D01*
X131381Y182903D01*
X131420Y182990D01*
X131463Y183076D01*
X131509Y183160D01*
X131558Y183241D01*
X131611Y183321D01*
X131667Y183398D01*
X131725Y183474D01*
X131787Y183546D01*
X131852Y183616D01*
X131920Y183684D01*
X131990Y183749D01*
X132062Y183811D01*
X132138Y183869D01*
X132215Y183925D01*
X132295Y183978D01*
X132377Y184027D01*
X132460Y184073D01*
X132546Y184116D01*
X132633Y184155D01*
X132721Y184191D01*
X132811Y184223D01*
X132902Y184251D01*
X132995Y184276D01*
X133088Y184297D01*
X133182Y184314D01*
X133276Y184328D01*
X133371Y184337D01*
X133467Y184343D01*
X133562Y184345D01*
X131191Y181974D02*
X131193Y181838D01*
X131198Y181701D01*
X131208Y181565D01*
X131221Y181430D01*
X131237Y181294D01*
X131258Y181160D01*
X131282Y181025D01*
X131309Y180892D01*
X131341Y180759D01*
X131375Y180627D01*
X131414Y180496D01*
X131456Y180367D01*
X131501Y180238D01*
X131550Y180111D01*
X131603Y179985D01*
X131659Y179861D01*
X131718Y179738D01*
X131780Y179617D01*
X131846Y179497D01*
X131915Y179380D01*
X131988Y179264D01*
X132063Y179150D01*
X132141Y179039D01*
X132223Y178929D01*
X132307Y178822D01*
X132394Y178718D01*
X132484Y178615D01*
X132577Y178515D01*
X132673Y178418D01*
X139488Y178714D02*
X139583Y178716D01*
X139679Y178722D01*
X139774Y178731D01*
X139868Y178745D01*
X139962Y178762D01*
X140055Y178783D01*
X140148Y178808D01*
X140239Y178836D01*
X140329Y178868D01*
X140417Y178904D01*
X140504Y178943D01*
X140590Y178986D01*
X140674Y179032D01*
X140755Y179081D01*
X140835Y179134D01*
X140912Y179190D01*
X140988Y179248D01*
X141060Y179310D01*
X141130Y179375D01*
X141198Y179443D01*
X141263Y179513D01*
X141325Y179585D01*
X141383Y179661D01*
X141439Y179738D01*
X141492Y179818D01*
X141541Y179900D01*
X141587Y179983D01*
X141630Y180069D01*
X141669Y180156D01*
X141705Y180244D01*
X141737Y180334D01*
X141765Y180425D01*
X141790Y180518D01*
X141811Y180611D01*
X141828Y180705D01*
X141842Y180799D01*
X141851Y180894D01*
X141857Y180990D01*
X141859Y181085D01*
X141857Y181215D01*
X141851Y181345D01*
X141842Y181475D01*
X141829Y181604D01*
X141812Y181733D01*
X141791Y181861D01*
X141766Y181989D01*
X141738Y182116D01*
X141706Y182242D01*
X141670Y182367D01*
X141631Y182491D01*
X141588Y182613D01*
X141542Y182735D01*
X141491Y182855D01*
X141438Y182973D01*
X141381Y183090D01*
X141321Y183205D01*
X141257Y183319D01*
X141190Y183430D01*
X141120Y183540D01*
X141046Y183647D01*
X140970Y183752D01*
X137413Y179900D02*
X137464Y179818D01*
X137518Y179738D01*
X137574Y179660D01*
X137634Y179585D01*
X137697Y179512D01*
X137763Y179442D01*
X137831Y179375D01*
X137902Y179310D01*
X137976Y179248D01*
X138052Y179189D01*
X138130Y179133D01*
X138211Y179081D01*
X138293Y179031D01*
X138378Y178985D01*
X138464Y178943D01*
X138552Y178903D01*
X138641Y178868D01*
X138732Y178836D01*
X138824Y178807D01*
X138917Y178783D01*
X139010Y178762D01*
X139105Y178745D01*
X139200Y178731D01*
X139296Y178722D01*
X139392Y178716D01*
X139488Y178714D01*
X135637Y183160D02*
X135586Y183241D01*
X135532Y183321D01*
X135476Y183399D01*
X135416Y183474D01*
X135353Y183547D01*
X135287Y183617D01*
X135219Y183684D01*
X135148Y183749D01*
X135074Y183811D01*
X134998Y183870D01*
X134920Y183926D01*
X134839Y183978D01*
X134757Y184028D01*
X134672Y184074D01*
X134586Y184116D01*
X134498Y184156D01*
X134409Y184191D01*
X134318Y184223D01*
X134226Y184252D01*
X134133Y184276D01*
X134040Y184297D01*
X133945Y184314D01*
X133850Y184328D01*
X133754Y184337D01*
X133658Y184343D01*
X133562Y184345D01*
X135636Y183159D02*
X137414Y179899D01*
X131191Y188874D02*
X141859Y192430D01*
X131191Y195986D01*
X133858Y195097D02*
X133858Y189763D01*
X131191Y201447D02*
X141859Y201447D01*
X135932Y205003D01*
X141859Y208559D01*
X131191Y208559D01*
X131191Y215027D02*
X131191Y219769D01*
X131191Y215027D02*
X141859Y215027D01*
X141859Y219769D01*
X137118Y218583D02*
X137118Y215027D01*
X140674Y224519D02*
X141859Y224519D01*
X141859Y230445D01*
X131191Y227482D01*
X136525Y235949D02*
X136735Y235952D01*
X136945Y235959D01*
X137154Y235972D01*
X137363Y235989D01*
X137572Y236012D01*
X137780Y236039D01*
X137987Y236071D01*
X138194Y236109D01*
X138399Y236151D01*
X138604Y236198D01*
X138807Y236250D01*
X139009Y236307D01*
X139210Y236369D01*
X139409Y236435D01*
X139606Y236507D01*
X139802Y236583D01*
X139996Y236663D01*
X140188Y236748D01*
X140377Y236838D01*
X140462Y236869D01*
X140546Y236903D01*
X140628Y236941D01*
X140709Y236983D01*
X140788Y237028D01*
X140865Y237076D01*
X140940Y237127D01*
X141012Y237181D01*
X141083Y237238D01*
X141151Y237298D01*
X141216Y237361D01*
X141279Y237426D01*
X141339Y237494D01*
X141396Y237565D01*
X141450Y237637D01*
X141502Y237712D01*
X141550Y237789D01*
X141595Y237868D01*
X141636Y237949D01*
X141674Y238031D01*
X141709Y238115D01*
X141740Y238200D01*
X141768Y238286D01*
X141792Y238373D01*
X141812Y238462D01*
X141829Y238551D01*
X141842Y238641D01*
X141852Y238731D01*
X141857Y238821D01*
X141859Y238912D01*
X141857Y239003D01*
X141852Y239093D01*
X141842Y239183D01*
X141829Y239273D01*
X141812Y239362D01*
X141792Y239451D01*
X141768Y239538D01*
X141740Y239624D01*
X141709Y239709D01*
X141674Y239793D01*
X141636Y239875D01*
X141595Y239956D01*
X141550Y240035D01*
X141502Y240112D01*
X141451Y240187D01*
X141396Y240259D01*
X141339Y240330D01*
X141279Y240398D01*
X141216Y240463D01*
X141151Y240526D01*
X141083Y240586D01*
X141012Y240643D01*
X140940Y240697D01*
X140865Y240748D01*
X140788Y240796D01*
X140709Y240841D01*
X140628Y240883D01*
X140546Y240921D01*
X140462Y240955D01*
X140377Y240986D01*
X140188Y241076D01*
X139996Y241161D01*
X139802Y241241D01*
X139606Y241317D01*
X139409Y241389D01*
X139210Y241455D01*
X139009Y241517D01*
X138807Y241574D01*
X138604Y241626D01*
X138399Y241673D01*
X138194Y241715D01*
X137987Y241753D01*
X137780Y241785D01*
X137572Y241812D01*
X137363Y241835D01*
X137154Y241852D01*
X136945Y241865D01*
X136735Y241872D01*
X136525Y241875D01*
X136525Y235949D02*
X136315Y235952D01*
X136105Y235959D01*
X135896Y235972D01*
X135687Y235989D01*
X135478Y236012D01*
X135270Y236039D01*
X135063Y236071D01*
X134856Y236109D01*
X134651Y236151D01*
X134446Y236198D01*
X134243Y236250D01*
X134041Y236307D01*
X133840Y236369D01*
X133641Y236435D01*
X133444Y236507D01*
X133248Y236583D01*
X133054Y236663D01*
X132863Y236748D01*
X132673Y236838D01*
X132588Y236869D01*
X132504Y236903D01*
X132422Y236941D01*
X132341Y236983D01*
X132262Y237028D01*
X132185Y237076D01*
X132110Y237127D01*
X132038Y237181D01*
X131967Y237238D01*
X131899Y237298D01*
X131834Y237361D01*
X131771Y237426D01*
X131711Y237494D01*
X131654Y237565D01*
X131599Y237637D01*
X131548Y237712D01*
X131500Y237789D01*
X131455Y237868D01*
X131414Y237949D01*
X131376Y238031D01*
X131341Y238115D01*
X131310Y238200D01*
X131282Y238286D01*
X131258Y238373D01*
X131238Y238462D01*
X131221Y238551D01*
X131208Y238641D01*
X131198Y238731D01*
X131193Y238821D01*
X131191Y238912D01*
X132673Y240986D02*
X132863Y241076D01*
X133054Y241161D01*
X133248Y241241D01*
X133444Y241317D01*
X133641Y241389D01*
X133840Y241455D01*
X134041Y241517D01*
X134243Y241574D01*
X134446Y241626D01*
X134651Y241673D01*
X134856Y241715D01*
X135063Y241753D01*
X135270Y241785D01*
X135478Y241812D01*
X135687Y241835D01*
X135896Y241852D01*
X136105Y241865D01*
X136315Y241872D01*
X136525Y241875D01*
X132673Y240986D02*
X132588Y240955D01*
X132504Y240921D01*
X132422Y240883D01*
X132341Y240841D01*
X132262Y240796D01*
X132185Y240748D01*
X132110Y240697D01*
X132038Y240643D01*
X131967Y240586D01*
X131899Y240526D01*
X131834Y240463D01*
X131771Y240398D01*
X131711Y240330D01*
X131654Y240259D01*
X131599Y240187D01*
X131548Y240112D01*
X131500Y240035D01*
X131455Y239956D01*
X131414Y239875D01*
X131376Y239793D01*
X131341Y239709D01*
X131310Y239624D01*
X131282Y239538D01*
X131258Y239451D01*
X131238Y239362D01*
X131221Y239273D01*
X131208Y239183D01*
X131198Y239093D01*
X131193Y239003D01*
X131191Y238912D01*
X133562Y236541D02*
X139488Y241282D01*
X135340Y247548D02*
X135340Y254660D01*
X131191Y259740D02*
X141859Y266852D01*
X141859Y259740D02*
X131191Y266852D01*
X131191Y272397D02*
X141859Y272397D01*
X141859Y275361D01*
X141857Y275468D01*
X141851Y275575D01*
X141842Y275681D01*
X141828Y275787D01*
X141811Y275893D01*
X141790Y275998D01*
X141765Y276102D01*
X141736Y276205D01*
X141704Y276307D01*
X141668Y276408D01*
X141628Y276507D01*
X141585Y276605D01*
X141538Y276701D01*
X141488Y276796D01*
X141435Y276889D01*
X141378Y276979D01*
X141318Y277068D01*
X141255Y277154D01*
X141189Y277238D01*
X141119Y277320D01*
X141047Y277399D01*
X140972Y277475D01*
X140894Y277549D01*
X140814Y277619D01*
X140731Y277687D01*
X140646Y277752D01*
X140559Y277813D01*
X140469Y277872D01*
X140378Y277927D01*
X140284Y277979D01*
X140188Y278027D01*
X140091Y278072D01*
X139993Y278114D01*
X139893Y278151D01*
X139791Y278186D01*
X139689Y278216D01*
X139585Y278243D01*
X139481Y278266D01*
X139375Y278285D01*
X139269Y278300D01*
X139163Y278312D01*
X139056Y278320D01*
X138949Y278324D01*
X138843Y278324D01*
X138736Y278320D01*
X138629Y278312D01*
X138523Y278300D01*
X138417Y278285D01*
X138311Y278266D01*
X138207Y278243D01*
X138103Y278216D01*
X138001Y278186D01*
X137899Y278151D01*
X137799Y278114D01*
X137701Y278072D01*
X137604Y278027D01*
X137508Y277979D01*
X137415Y277927D01*
X137323Y277872D01*
X137233Y277813D01*
X137146Y277752D01*
X137061Y277687D01*
X136978Y277619D01*
X136898Y277549D01*
X136820Y277475D01*
X136745Y277399D01*
X136673Y277320D01*
X136603Y277238D01*
X136537Y277154D01*
X136474Y277068D01*
X136414Y276979D01*
X136357Y276889D01*
X136304Y276796D01*
X136254Y276701D01*
X136207Y276605D01*
X136164Y276507D01*
X136124Y276408D01*
X136088Y276307D01*
X136056Y276205D01*
X136027Y276102D01*
X136002Y275998D01*
X135981Y275893D01*
X135964Y275787D01*
X135950Y275681D01*
X135941Y275575D01*
X135935Y275468D01*
X135933Y275361D01*
X135932Y275361D02*
X135932Y272397D01*
X131191Y283607D02*
X141859Y283607D01*
X131191Y283607D02*
X131191Y288349D01*
X131191Y293479D02*
X141859Y293479D01*
X141859Y296443D01*
X141857Y296549D01*
X141851Y296654D01*
X141842Y296760D01*
X141829Y296865D01*
X141812Y296969D01*
X141791Y297073D01*
X141767Y297176D01*
X141739Y297278D01*
X141707Y297379D01*
X141672Y297478D01*
X141633Y297577D01*
X141591Y297674D01*
X141546Y297769D01*
X141497Y297863D01*
X141444Y297955D01*
X141389Y298045D01*
X141330Y298133D01*
X141268Y298219D01*
X141203Y298302D01*
X141135Y298383D01*
X141065Y298462D01*
X140991Y298538D01*
X140915Y298612D01*
X140836Y298682D01*
X140755Y298750D01*
X140672Y298815D01*
X140586Y298877D01*
X140498Y298936D01*
X140408Y298991D01*
X140316Y299044D01*
X140222Y299093D01*
X140127Y299138D01*
X140030Y299180D01*
X139931Y299219D01*
X139832Y299254D01*
X139731Y299286D01*
X139629Y299314D01*
X139526Y299338D01*
X139422Y299359D01*
X139318Y299376D01*
X139213Y299389D01*
X139107Y299398D01*
X139002Y299404D01*
X138896Y299406D01*
X134154Y299406D01*
X134048Y299404D01*
X133943Y299398D01*
X133837Y299389D01*
X133732Y299376D01*
X133628Y299359D01*
X133524Y299338D01*
X133421Y299314D01*
X133319Y299286D01*
X133218Y299254D01*
X133119Y299219D01*
X133020Y299180D01*
X132923Y299138D01*
X132828Y299093D01*
X132734Y299044D01*
X132642Y298991D01*
X132552Y298936D01*
X132464Y298877D01*
X132378Y298815D01*
X132295Y298750D01*
X132214Y298682D01*
X132135Y298612D01*
X132059Y298538D01*
X131985Y298462D01*
X131915Y298383D01*
X131847Y298302D01*
X131782Y298219D01*
X131720Y298133D01*
X131661Y298045D01*
X131606Y297955D01*
X131553Y297863D01*
X131504Y297769D01*
X131459Y297674D01*
X131417Y297577D01*
X131378Y297478D01*
X131343Y297379D01*
X131311Y297278D01*
X131283Y297176D01*
X131259Y297073D01*
X131238Y296969D01*
X131221Y296865D01*
X131208Y296760D01*
X131199Y296654D01*
X131193Y296549D01*
X131191Y296443D01*
X131191Y293479D01*
X122809Y130886D02*
X112141Y130886D01*
X122809Y130886D02*
X122809Y133850D01*
X122807Y133957D01*
X122801Y134064D01*
X122792Y134170D01*
X122778Y134276D01*
X122761Y134382D01*
X122740Y134487D01*
X122715Y134591D01*
X122686Y134694D01*
X122654Y134796D01*
X122618Y134897D01*
X122578Y134996D01*
X122535Y135094D01*
X122488Y135190D01*
X122438Y135285D01*
X122385Y135378D01*
X122328Y135468D01*
X122268Y135557D01*
X122205Y135643D01*
X122139Y135727D01*
X122069Y135809D01*
X121997Y135888D01*
X121922Y135964D01*
X121844Y136038D01*
X121764Y136108D01*
X121681Y136176D01*
X121596Y136241D01*
X121509Y136302D01*
X121419Y136361D01*
X121328Y136416D01*
X121234Y136468D01*
X121138Y136516D01*
X121041Y136561D01*
X120943Y136603D01*
X120843Y136640D01*
X120741Y136675D01*
X120639Y136705D01*
X120535Y136732D01*
X120431Y136755D01*
X120325Y136774D01*
X120219Y136789D01*
X120113Y136801D01*
X120006Y136809D01*
X119899Y136813D01*
X119793Y136813D01*
X119686Y136809D01*
X119579Y136801D01*
X119473Y136789D01*
X119367Y136774D01*
X119261Y136755D01*
X119157Y136732D01*
X119053Y136705D01*
X118951Y136675D01*
X118849Y136640D01*
X118749Y136603D01*
X118651Y136561D01*
X118554Y136516D01*
X118458Y136468D01*
X118365Y136416D01*
X118273Y136361D01*
X118183Y136302D01*
X118096Y136241D01*
X118011Y136176D01*
X117928Y136108D01*
X117848Y136038D01*
X117770Y135964D01*
X117695Y135888D01*
X117623Y135809D01*
X117553Y135727D01*
X117487Y135643D01*
X117424Y135557D01*
X117364Y135468D01*
X117307Y135378D01*
X117254Y135285D01*
X117204Y135190D01*
X117157Y135094D01*
X117114Y134996D01*
X117074Y134897D01*
X117038Y134796D01*
X117006Y134694D01*
X116977Y134591D01*
X116952Y134487D01*
X116931Y134382D01*
X116914Y134276D01*
X116900Y134170D01*
X116891Y134064D01*
X116885Y133957D01*
X116883Y133850D01*
X116882Y133850D02*
X116882Y130886D01*
X116882Y134442D02*
X112141Y136813D01*
X112141Y143815D02*
X112141Y146778D01*
X112141Y143815D02*
X112143Y143733D01*
X112149Y143651D01*
X112158Y143569D01*
X112171Y143488D01*
X112188Y143408D01*
X112209Y143328D01*
X112233Y143250D01*
X112261Y143173D01*
X112292Y143097D01*
X112327Y143022D01*
X112366Y142950D01*
X112407Y142879D01*
X112452Y142810D01*
X112500Y142744D01*
X112551Y142679D01*
X112605Y142617D01*
X112662Y142558D01*
X112721Y142501D01*
X112783Y142447D01*
X112848Y142396D01*
X112914Y142348D01*
X112983Y142303D01*
X113054Y142262D01*
X113126Y142223D01*
X113201Y142188D01*
X113277Y142157D01*
X113354Y142129D01*
X113432Y142105D01*
X113512Y142084D01*
X113592Y142067D01*
X113673Y142054D01*
X113755Y142045D01*
X113837Y142039D01*
X113919Y142037D01*
X116882Y142037D01*
X116882Y142036D02*
X116979Y142038D01*
X117075Y142044D01*
X117171Y142054D01*
X117267Y142068D01*
X117362Y142085D01*
X117457Y142107D01*
X117550Y142132D01*
X117642Y142161D01*
X117733Y142194D01*
X117823Y142231D01*
X117911Y142271D01*
X117997Y142315D01*
X118081Y142362D01*
X118164Y142412D01*
X118244Y142466D01*
X118322Y142524D01*
X118398Y142584D01*
X118471Y142647D01*
X118541Y142713D01*
X118609Y142783D01*
X118674Y142854D01*
X118736Y142929D01*
X118794Y143006D01*
X118850Y143085D01*
X118902Y143166D01*
X118951Y143250D01*
X118997Y143335D01*
X119039Y143422D01*
X119077Y143511D01*
X119112Y143601D01*
X119143Y143693D01*
X119170Y143786D01*
X119194Y143879D01*
X119213Y143974D01*
X119229Y144070D01*
X119241Y144166D01*
X119249Y144262D01*
X119253Y144359D01*
X119253Y144455D01*
X119249Y144552D01*
X119241Y144648D01*
X119229Y144744D01*
X119213Y144840D01*
X119194Y144935D01*
X119170Y145028D01*
X119143Y145121D01*
X119112Y145213D01*
X119077Y145303D01*
X119039Y145392D01*
X118997Y145479D01*
X118951Y145564D01*
X118902Y145648D01*
X118850Y145729D01*
X118794Y145808D01*
X118736Y145885D01*
X118674Y145960D01*
X118609Y146031D01*
X118541Y146101D01*
X118471Y146167D01*
X118398Y146230D01*
X118322Y146290D01*
X118244Y146348D01*
X118164Y146402D01*
X118081Y146452D01*
X117997Y146499D01*
X117911Y146543D01*
X117823Y146583D01*
X117733Y146620D01*
X117642Y146653D01*
X117550Y146682D01*
X117457Y146707D01*
X117362Y146729D01*
X117267Y146746D01*
X117171Y146760D01*
X117075Y146770D01*
X116979Y146776D01*
X116882Y146778D01*
X115697Y146778D01*
X115697Y142037D01*
X119253Y151562D02*
X112141Y153932D01*
X119253Y156303D01*
X112734Y160494D02*
X112141Y160494D01*
X112734Y160494D02*
X112734Y161087D01*
X112141Y161087D01*
X112141Y160494D01*
X112141Y171331D02*
X122809Y174887D01*
X112141Y178443D01*
X114808Y177554D02*
X114808Y172220D01*
X112141Y191059D02*
X112141Y194022D01*
X112141Y191059D02*
X112143Y190977D01*
X112149Y190895D01*
X112158Y190813D01*
X112171Y190732D01*
X112188Y190652D01*
X112209Y190572D01*
X112233Y190494D01*
X112261Y190417D01*
X112292Y190341D01*
X112327Y190266D01*
X112366Y190194D01*
X112407Y190123D01*
X112452Y190054D01*
X112500Y189988D01*
X112551Y189923D01*
X112605Y189861D01*
X112662Y189802D01*
X112721Y189745D01*
X112783Y189691D01*
X112848Y189640D01*
X112914Y189592D01*
X112983Y189547D01*
X113054Y189506D01*
X113126Y189467D01*
X113201Y189432D01*
X113277Y189401D01*
X113354Y189373D01*
X113432Y189349D01*
X113512Y189328D01*
X113592Y189311D01*
X113673Y189298D01*
X113755Y189289D01*
X113837Y189283D01*
X113919Y189281D01*
X116882Y189281D01*
X116882Y189280D02*
X116979Y189282D01*
X117075Y189288D01*
X117171Y189298D01*
X117267Y189312D01*
X117362Y189329D01*
X117457Y189351D01*
X117550Y189376D01*
X117642Y189405D01*
X117733Y189438D01*
X117823Y189475D01*
X117911Y189515D01*
X117997Y189559D01*
X118081Y189606D01*
X118164Y189656D01*
X118244Y189710D01*
X118322Y189768D01*
X118398Y189828D01*
X118471Y189891D01*
X118541Y189957D01*
X118609Y190027D01*
X118674Y190098D01*
X118736Y190173D01*
X118794Y190250D01*
X118850Y190329D01*
X118902Y190410D01*
X118951Y190494D01*
X118997Y190579D01*
X119039Y190666D01*
X119077Y190755D01*
X119112Y190845D01*
X119143Y190937D01*
X119170Y191030D01*
X119194Y191123D01*
X119213Y191218D01*
X119229Y191314D01*
X119241Y191410D01*
X119249Y191506D01*
X119253Y191603D01*
X119253Y191699D01*
X119249Y191796D01*
X119241Y191892D01*
X119229Y191988D01*
X119213Y192084D01*
X119194Y192179D01*
X119170Y192272D01*
X119143Y192365D01*
X119112Y192457D01*
X119077Y192547D01*
X119039Y192636D01*
X118997Y192723D01*
X118951Y192808D01*
X118902Y192892D01*
X118850Y192973D01*
X118794Y193052D01*
X118736Y193129D01*
X118674Y193204D01*
X118609Y193275D01*
X118541Y193345D01*
X118471Y193411D01*
X118398Y193474D01*
X118322Y193534D01*
X118244Y193592D01*
X118164Y193646D01*
X118081Y193696D01*
X117997Y193743D01*
X117911Y193787D01*
X117823Y193827D01*
X117733Y193864D01*
X117642Y193897D01*
X117550Y193926D01*
X117457Y193951D01*
X117362Y193973D01*
X117267Y193990D01*
X117171Y194004D01*
X117075Y194014D01*
X116979Y194020D01*
X116882Y194022D01*
X115697Y194022D01*
X115697Y189281D01*
X118068Y206087D02*
X118068Y209050D01*
X118067Y209050D02*
X118065Y209157D01*
X118059Y209264D01*
X118050Y209370D01*
X118036Y209476D01*
X118019Y209582D01*
X117998Y209687D01*
X117973Y209791D01*
X117944Y209894D01*
X117912Y209996D01*
X117876Y210097D01*
X117836Y210196D01*
X117793Y210294D01*
X117746Y210390D01*
X117696Y210485D01*
X117643Y210578D01*
X117586Y210668D01*
X117526Y210757D01*
X117463Y210843D01*
X117397Y210927D01*
X117327Y211009D01*
X117255Y211088D01*
X117180Y211164D01*
X117102Y211238D01*
X117022Y211308D01*
X116939Y211376D01*
X116854Y211441D01*
X116767Y211502D01*
X116677Y211561D01*
X116586Y211616D01*
X116492Y211668D01*
X116396Y211716D01*
X116299Y211761D01*
X116201Y211803D01*
X116101Y211840D01*
X115999Y211875D01*
X115897Y211905D01*
X115793Y211932D01*
X115689Y211955D01*
X115583Y211974D01*
X115477Y211989D01*
X115371Y212001D01*
X115264Y212009D01*
X115157Y212013D01*
X115051Y212013D01*
X114944Y212009D01*
X114837Y212001D01*
X114731Y211989D01*
X114625Y211974D01*
X114519Y211955D01*
X114415Y211932D01*
X114311Y211905D01*
X114209Y211875D01*
X114107Y211840D01*
X114007Y211803D01*
X113909Y211761D01*
X113812Y211716D01*
X113716Y211668D01*
X113623Y211616D01*
X113531Y211561D01*
X113441Y211502D01*
X113354Y211441D01*
X113269Y211376D01*
X113186Y211308D01*
X113106Y211238D01*
X113028Y211164D01*
X112953Y211088D01*
X112881Y211009D01*
X112811Y210927D01*
X112745Y210843D01*
X112682Y210757D01*
X112622Y210668D01*
X112565Y210578D01*
X112512Y210485D01*
X112462Y210390D01*
X112415Y210294D01*
X112372Y210196D01*
X112332Y210097D01*
X112296Y209996D01*
X112264Y209894D01*
X112235Y209791D01*
X112210Y209687D01*
X112189Y209582D01*
X112172Y209476D01*
X112158Y209370D01*
X112149Y209264D01*
X112143Y209157D01*
X112141Y209050D01*
X112141Y206087D01*
X122809Y206087D01*
X122809Y209050D01*
X122807Y209147D01*
X122801Y209243D01*
X122791Y209339D01*
X122777Y209435D01*
X122760Y209530D01*
X122738Y209625D01*
X122713Y209718D01*
X122684Y209810D01*
X122651Y209901D01*
X122614Y209991D01*
X122574Y210079D01*
X122530Y210165D01*
X122483Y210249D01*
X122433Y210332D01*
X122379Y210412D01*
X122321Y210490D01*
X122261Y210566D01*
X122198Y210639D01*
X122132Y210709D01*
X122062Y210777D01*
X121991Y210842D01*
X121916Y210904D01*
X121839Y210962D01*
X121760Y211018D01*
X121679Y211070D01*
X121595Y211119D01*
X121510Y211165D01*
X121423Y211207D01*
X121334Y211245D01*
X121244Y211280D01*
X121152Y211311D01*
X121059Y211338D01*
X120966Y211362D01*
X120871Y211381D01*
X120775Y211397D01*
X120679Y211409D01*
X120583Y211417D01*
X120486Y211421D01*
X120390Y211421D01*
X120293Y211417D01*
X120197Y211409D01*
X120101Y211397D01*
X120005Y211381D01*
X119910Y211362D01*
X119817Y211338D01*
X119724Y211311D01*
X119632Y211280D01*
X119542Y211245D01*
X119453Y211207D01*
X119366Y211165D01*
X119281Y211119D01*
X119197Y211070D01*
X119116Y211018D01*
X119037Y210962D01*
X118960Y210904D01*
X118885Y210842D01*
X118814Y210777D01*
X118744Y210709D01*
X118678Y210639D01*
X118615Y210566D01*
X118555Y210490D01*
X118497Y210412D01*
X118443Y210332D01*
X118393Y210249D01*
X118346Y210165D01*
X118302Y210079D01*
X118262Y209991D01*
X118225Y209901D01*
X118192Y209810D01*
X118163Y209718D01*
X118138Y209625D01*
X118116Y209530D01*
X118099Y209435D01*
X118085Y209339D01*
X118075Y209243D01*
X118069Y209147D01*
X118067Y209050D01*
X90170Y80010D02*
X90170Y67310D01*
M02*
