G04 EAGLE Gerber RS-274X export*
G75*
%MOMM*%
%FSLAX34Y34*%
%LPD*%
%INSoldermask Bottom*%
%IPPOS*%
%AMOC8*
5,1,8,0,0,1.08239X$1,22.5*%
G01*
%ADD10C,2.082800*%
%ADD11C,1.854200*%
%ADD12R,1.854200X1.854200*%

G36*
X108437Y355593D02*
X108437Y355593D01*
X108509Y355591D01*
X110345Y355796D01*
X110391Y355810D01*
X110466Y355822D01*
X112227Y356382D01*
X112269Y356405D01*
X112341Y356431D01*
X113958Y357324D01*
X113996Y357354D01*
X114061Y357394D01*
X115473Y358585D01*
X115504Y358622D01*
X115560Y358674D01*
X116713Y360118D01*
X116736Y360160D01*
X116780Y360222D01*
X117629Y361863D01*
X117644Y361909D01*
X117675Y361978D01*
X118188Y363753D01*
X118193Y363801D01*
X118211Y363876D01*
X118367Y365716D01*
X118363Y365760D01*
X118367Y365825D01*
X118207Y367656D01*
X118194Y367702D01*
X118184Y367778D01*
X117670Y369542D01*
X117649Y369586D01*
X117624Y369658D01*
X116775Y371288D01*
X116746Y371326D01*
X116707Y371392D01*
X115557Y372825D01*
X115521Y372857D01*
X115470Y372914D01*
X114062Y374095D01*
X114021Y374119D01*
X113960Y374165D01*
X112348Y375049D01*
X112303Y375064D01*
X112234Y375098D01*
X110481Y375650D01*
X110434Y375656D01*
X110360Y375676D01*
X108533Y375876D01*
X108487Y375872D01*
X108418Y375878D01*
X106742Y375755D01*
X106699Y375744D01*
X106633Y375738D01*
X105003Y375327D01*
X104963Y375308D01*
X104899Y375290D01*
X103366Y374602D01*
X103329Y374577D01*
X103269Y374548D01*
X101879Y373604D01*
X101847Y373573D01*
X101793Y373535D01*
X100587Y372364D01*
X100561Y372328D01*
X100515Y372280D01*
X99531Y370918D01*
X99512Y370877D01*
X99475Y370823D01*
X98742Y369310D01*
X98730Y369267D01*
X98703Y369207D01*
X98245Y367590D01*
X98240Y367545D01*
X98224Y367481D01*
X98053Y365809D01*
X98057Y365761D01*
X98053Y365682D01*
X98219Y364010D01*
X98231Y363967D01*
X98240Y363902D01*
X98694Y362284D01*
X98713Y362243D01*
X98733Y362180D01*
X99461Y360666D01*
X99487Y360630D01*
X99517Y360571D01*
X100498Y359206D01*
X100530Y359175D01*
X100570Y359122D01*
X101772Y357948D01*
X101809Y357923D01*
X101857Y357878D01*
X103245Y356931D01*
X103286Y356913D01*
X103342Y356877D01*
X104873Y356185D01*
X104916Y356174D01*
X104977Y356148D01*
X106606Y355733D01*
X106650Y355730D01*
X106715Y355715D01*
X108390Y355589D01*
X108437Y355593D01*
G37*
G36*
X108437Y327602D02*
X108437Y327602D01*
X108509Y327600D01*
X110345Y327805D01*
X110391Y327819D01*
X110466Y327831D01*
X112227Y328391D01*
X112269Y328414D01*
X112341Y328440D01*
X113958Y329333D01*
X113996Y329363D01*
X114061Y329403D01*
X115473Y330594D01*
X115504Y330631D01*
X115560Y330683D01*
X116713Y332127D01*
X116736Y332169D01*
X116780Y332231D01*
X117629Y333872D01*
X117644Y333918D01*
X117675Y333987D01*
X118188Y335762D01*
X118193Y335810D01*
X118211Y335885D01*
X118367Y337725D01*
X118363Y337769D01*
X118367Y337834D01*
X118207Y339665D01*
X118194Y339711D01*
X118184Y339787D01*
X117670Y341551D01*
X117649Y341595D01*
X117624Y341667D01*
X116775Y343297D01*
X116746Y343335D01*
X116707Y343401D01*
X115557Y344834D01*
X115521Y344866D01*
X115470Y344923D01*
X114062Y346104D01*
X114021Y346128D01*
X113960Y346174D01*
X112348Y347058D01*
X112303Y347073D01*
X112234Y347107D01*
X110481Y347659D01*
X110434Y347665D01*
X110360Y347685D01*
X108533Y347885D01*
X108487Y347881D01*
X108418Y347887D01*
X106742Y347764D01*
X106699Y347753D01*
X106633Y347747D01*
X105003Y347336D01*
X104963Y347317D01*
X104899Y347299D01*
X103366Y346611D01*
X103329Y346586D01*
X103269Y346557D01*
X101879Y345613D01*
X101847Y345582D01*
X101793Y345544D01*
X100587Y344373D01*
X100561Y344337D01*
X100515Y344289D01*
X99531Y342927D01*
X99512Y342886D01*
X99475Y342832D01*
X98742Y341319D01*
X98730Y341276D01*
X98703Y341216D01*
X98245Y339599D01*
X98240Y339554D01*
X98224Y339490D01*
X98053Y337818D01*
X98057Y337770D01*
X98053Y337691D01*
X98219Y336019D01*
X98231Y335976D01*
X98240Y335911D01*
X98694Y334293D01*
X98713Y334252D01*
X98733Y334189D01*
X99461Y332675D01*
X99487Y332639D01*
X99517Y332580D01*
X100498Y331215D01*
X100530Y331184D01*
X100570Y331131D01*
X101772Y329957D01*
X101809Y329932D01*
X101857Y329887D01*
X103245Y328940D01*
X103286Y328922D01*
X103342Y328886D01*
X104873Y328194D01*
X104916Y328183D01*
X104977Y328157D01*
X106606Y327742D01*
X106650Y327739D01*
X106715Y327724D01*
X108390Y327598D01*
X108437Y327602D01*
G37*
G36*
X160528Y296070D02*
X160528Y296070D01*
X160571Y296081D01*
X160637Y296087D01*
X162267Y296499D01*
X162307Y296517D01*
X162371Y296535D01*
X163904Y297223D01*
X163941Y297248D01*
X164001Y297277D01*
X165391Y298221D01*
X165423Y298252D01*
X165477Y298290D01*
X166683Y299461D01*
X166709Y299498D01*
X166755Y299545D01*
X167739Y300907D01*
X167758Y300948D01*
X167795Y301002D01*
X168528Y302515D01*
X168540Y302558D01*
X168567Y302618D01*
X169025Y304235D01*
X169030Y304280D01*
X169046Y304344D01*
X169217Y306016D01*
X169213Y306064D01*
X169217Y306143D01*
X169051Y307815D01*
X169039Y307858D01*
X169030Y307924D01*
X168576Y309541D01*
X168557Y309582D01*
X168537Y309645D01*
X167809Y311159D01*
X167783Y311195D01*
X167753Y311254D01*
X166772Y312619D01*
X166740Y312650D01*
X166700Y312703D01*
X165498Y313877D01*
X165461Y313902D01*
X165413Y313947D01*
X164025Y314894D01*
X163984Y314912D01*
X163928Y314948D01*
X162397Y315640D01*
X162354Y315651D01*
X162293Y315677D01*
X160664Y316092D01*
X160620Y316095D01*
X160555Y316110D01*
X158880Y316236D01*
X158833Y316232D01*
X158761Y316234D01*
X156926Y316029D01*
X156879Y316015D01*
X156804Y316003D01*
X155043Y315443D01*
X155001Y315420D01*
X154929Y315394D01*
X153312Y314501D01*
X153274Y314471D01*
X153209Y314431D01*
X151797Y313240D01*
X151766Y313203D01*
X151710Y313151D01*
X150557Y311707D01*
X150535Y311665D01*
X150490Y311603D01*
X149641Y309962D01*
X149627Y309916D01*
X149595Y309847D01*
X149082Y308072D01*
X149077Y308024D01*
X149060Y307949D01*
X148903Y306109D01*
X148907Y306065D01*
X148903Y306000D01*
X149063Y304169D01*
X149076Y304123D01*
X149084Y304062D01*
X149084Y304060D01*
X149086Y304047D01*
X149600Y302283D01*
X149621Y302239D01*
X149646Y302167D01*
X150495Y300537D01*
X150524Y300499D01*
X150563Y300433D01*
X151713Y299000D01*
X151749Y298968D01*
X151800Y298911D01*
X153208Y297730D01*
X153249Y297706D01*
X153310Y297660D01*
X154922Y296776D01*
X154967Y296761D01*
X155036Y296727D01*
X156789Y296175D01*
X156836Y296169D01*
X156910Y296149D01*
X158737Y295950D01*
X158783Y295953D01*
X158852Y295947D01*
X160528Y296070D01*
G37*
G36*
X198628Y296070D02*
X198628Y296070D01*
X198671Y296081D01*
X198737Y296087D01*
X200367Y296499D01*
X200407Y296517D01*
X200471Y296535D01*
X202004Y297223D01*
X202041Y297248D01*
X202101Y297277D01*
X203491Y298221D01*
X203523Y298252D01*
X203577Y298290D01*
X204783Y299461D01*
X204809Y299498D01*
X204855Y299545D01*
X205839Y300907D01*
X205858Y300948D01*
X205895Y301002D01*
X206628Y302515D01*
X206640Y302558D01*
X206667Y302618D01*
X207125Y304235D01*
X207130Y304280D01*
X207146Y304344D01*
X207317Y306016D01*
X207313Y306064D01*
X207317Y306143D01*
X207151Y307815D01*
X207139Y307858D01*
X207130Y307924D01*
X206676Y309541D01*
X206657Y309582D01*
X206637Y309645D01*
X205909Y311159D01*
X205883Y311195D01*
X205853Y311254D01*
X204872Y312619D01*
X204840Y312650D01*
X204800Y312703D01*
X203598Y313877D01*
X203561Y313902D01*
X203513Y313947D01*
X202125Y314894D01*
X202084Y314912D01*
X202028Y314948D01*
X200497Y315640D01*
X200454Y315651D01*
X200393Y315677D01*
X198764Y316092D01*
X198720Y316095D01*
X198655Y316110D01*
X196980Y316236D01*
X196933Y316232D01*
X196861Y316234D01*
X195026Y316029D01*
X194979Y316015D01*
X194904Y316003D01*
X193143Y315443D01*
X193101Y315420D01*
X193029Y315394D01*
X191412Y314501D01*
X191374Y314471D01*
X191309Y314431D01*
X189897Y313240D01*
X189866Y313203D01*
X189810Y313151D01*
X188657Y311707D01*
X188635Y311665D01*
X188590Y311603D01*
X187741Y309962D01*
X187727Y309916D01*
X187695Y309847D01*
X187182Y308072D01*
X187177Y308024D01*
X187160Y307949D01*
X187003Y306109D01*
X187007Y306065D01*
X187003Y306000D01*
X187163Y304169D01*
X187176Y304123D01*
X187184Y304062D01*
X187184Y304060D01*
X187186Y304047D01*
X187700Y302283D01*
X187721Y302239D01*
X187746Y302167D01*
X188595Y300537D01*
X188624Y300499D01*
X188663Y300433D01*
X189813Y299000D01*
X189849Y298968D01*
X189900Y298911D01*
X191308Y297730D01*
X191349Y297706D01*
X191410Y297660D01*
X193022Y296776D01*
X193067Y296761D01*
X193136Y296727D01*
X194889Y296175D01*
X194936Y296169D01*
X195010Y296149D01*
X196837Y295950D01*
X196883Y295953D01*
X196952Y295947D01*
X198628Y296070D01*
G37*
G36*
X160604Y219794D02*
X160604Y219794D01*
X160647Y219805D01*
X160713Y219811D01*
X162343Y220223D01*
X162383Y220241D01*
X162447Y220259D01*
X163980Y220947D01*
X164017Y220972D01*
X164077Y221001D01*
X165467Y221945D01*
X165499Y221976D01*
X165553Y222014D01*
X166759Y223185D01*
X166785Y223222D01*
X166831Y223269D01*
X167815Y224631D01*
X167834Y224672D01*
X167871Y224726D01*
X168604Y226239D01*
X168616Y226282D01*
X168643Y226342D01*
X169101Y227959D01*
X169106Y228004D01*
X169122Y228068D01*
X169293Y229740D01*
X169289Y229788D01*
X169293Y229867D01*
X169127Y231539D01*
X169115Y231582D01*
X169106Y231648D01*
X168652Y233265D01*
X168633Y233306D01*
X168613Y233369D01*
X167885Y234883D01*
X167859Y234919D01*
X167829Y234978D01*
X166848Y236343D01*
X166816Y236374D01*
X166776Y236427D01*
X165574Y237601D01*
X165537Y237626D01*
X165489Y237671D01*
X164101Y238618D01*
X164060Y238636D01*
X164004Y238672D01*
X162473Y239364D01*
X162430Y239375D01*
X162369Y239401D01*
X160740Y239816D01*
X160696Y239819D01*
X160631Y239834D01*
X158956Y239960D01*
X158909Y239956D01*
X158837Y239958D01*
X157002Y239753D01*
X156955Y239739D01*
X156880Y239727D01*
X155119Y239167D01*
X155077Y239144D01*
X155005Y239118D01*
X153388Y238225D01*
X153350Y238195D01*
X153285Y238155D01*
X151873Y236964D01*
X151842Y236927D01*
X151786Y236875D01*
X150633Y235431D01*
X150611Y235389D01*
X150566Y235327D01*
X149717Y233686D01*
X149703Y233640D01*
X149671Y233571D01*
X149158Y231796D01*
X149153Y231748D01*
X149136Y231673D01*
X148979Y229833D01*
X148983Y229789D01*
X148979Y229724D01*
X149139Y227893D01*
X149152Y227847D01*
X149160Y227786D01*
X149160Y227784D01*
X149162Y227771D01*
X149676Y226007D01*
X149697Y225963D01*
X149722Y225891D01*
X150571Y224261D01*
X150600Y224223D01*
X150639Y224157D01*
X151789Y222724D01*
X151825Y222692D01*
X151876Y222635D01*
X153284Y221454D01*
X153325Y221430D01*
X153386Y221384D01*
X154998Y220500D01*
X155043Y220485D01*
X155112Y220451D01*
X156865Y219899D01*
X156912Y219893D01*
X156986Y219873D01*
X158813Y219674D01*
X158859Y219677D01*
X158928Y219671D01*
X160604Y219794D01*
G37*
G36*
X198704Y219794D02*
X198704Y219794D01*
X198747Y219805D01*
X198813Y219811D01*
X200443Y220223D01*
X200483Y220241D01*
X200547Y220259D01*
X202080Y220947D01*
X202117Y220972D01*
X202177Y221001D01*
X203567Y221945D01*
X203599Y221976D01*
X203653Y222014D01*
X204859Y223185D01*
X204885Y223222D01*
X204931Y223269D01*
X205915Y224631D01*
X205934Y224672D01*
X205971Y224726D01*
X206704Y226239D01*
X206716Y226282D01*
X206743Y226342D01*
X207201Y227959D01*
X207206Y228004D01*
X207222Y228068D01*
X207393Y229740D01*
X207389Y229788D01*
X207393Y229867D01*
X207227Y231539D01*
X207215Y231582D01*
X207206Y231648D01*
X206752Y233265D01*
X206733Y233306D01*
X206713Y233369D01*
X205985Y234883D01*
X205959Y234919D01*
X205929Y234978D01*
X204948Y236343D01*
X204916Y236374D01*
X204876Y236427D01*
X203674Y237601D01*
X203637Y237626D01*
X203589Y237671D01*
X202201Y238618D01*
X202160Y238636D01*
X202104Y238672D01*
X200573Y239364D01*
X200530Y239375D01*
X200469Y239401D01*
X198840Y239816D01*
X198796Y239819D01*
X198731Y239834D01*
X197056Y239960D01*
X197009Y239956D01*
X196937Y239958D01*
X195102Y239753D01*
X195055Y239739D01*
X194980Y239727D01*
X193219Y239167D01*
X193177Y239144D01*
X193105Y239118D01*
X191488Y238225D01*
X191450Y238195D01*
X191385Y238155D01*
X189973Y236964D01*
X189942Y236927D01*
X189886Y236875D01*
X188733Y235431D01*
X188711Y235389D01*
X188666Y235327D01*
X187817Y233686D01*
X187803Y233640D01*
X187771Y233571D01*
X187258Y231796D01*
X187253Y231748D01*
X187236Y231673D01*
X187079Y229833D01*
X187083Y229789D01*
X187079Y229724D01*
X187239Y227893D01*
X187252Y227847D01*
X187260Y227786D01*
X187260Y227784D01*
X187262Y227771D01*
X187776Y226007D01*
X187797Y225963D01*
X187822Y225891D01*
X188671Y224261D01*
X188700Y224223D01*
X188739Y224157D01*
X189889Y222724D01*
X189925Y222692D01*
X189976Y222635D01*
X191384Y221454D01*
X191425Y221430D01*
X191486Y221384D01*
X193098Y220500D01*
X193143Y220485D01*
X193212Y220451D01*
X194965Y219899D01*
X195012Y219893D01*
X195086Y219873D01*
X196913Y219674D01*
X196959Y219677D01*
X197028Y219671D01*
X198704Y219794D01*
G37*
D10*
X304800Y50800D03*
X304800Y76200D03*
X304800Y101600D03*
X304800Y127000D03*
X304800Y152400D03*
X304800Y177800D03*
X304800Y203200D03*
X304800Y228600D03*
X304800Y254000D03*
X304800Y279400D03*
X304800Y304800D03*
X304800Y330200D03*
X304800Y355600D03*
X304800Y381000D03*
X304800Y406400D03*
X304800Y431800D03*
X304800Y457200D03*
X304800Y482600D03*
X279400Y50800D03*
X279400Y76200D03*
X279400Y101600D03*
X279400Y127000D03*
X279400Y152400D03*
X279400Y177800D03*
X279400Y203200D03*
X279400Y228600D03*
X279400Y254000D03*
X279400Y279400D03*
X279400Y304800D03*
X279400Y330200D03*
X279400Y355600D03*
X279400Y381000D03*
X279400Y406400D03*
X279400Y431800D03*
X279400Y457200D03*
X279400Y482600D03*
X203200Y482600D03*
X177800Y482600D03*
X152400Y482600D03*
X127000Y482600D03*
X101600Y482600D03*
X76200Y482600D03*
X50800Y482600D03*
X25400Y482600D03*
X73660Y73660D03*
X48260Y73660D03*
X73660Y99060D03*
X48260Y99060D03*
X73660Y124460D03*
X48260Y124460D03*
X73660Y149860D03*
X48260Y149860D03*
X73660Y175260D03*
X48260Y175260D03*
X73660Y200660D03*
X48260Y200660D03*
X73660Y226060D03*
X48260Y226060D03*
X73660Y251460D03*
X48260Y251460D03*
X73660Y276860D03*
X48260Y276860D03*
X73660Y302260D03*
X48260Y302260D03*
X254000Y507700D03*
X228600Y507700D03*
D11*
X202440Y359420D03*
D12*
X227440Y359420D03*
M02*
