G04 EAGLE Gerber RS-274X export*
G75*
%MOMM*%
%FSLAX34Y34*%
%LPD*%
%INSoldermask Top*%
%IPPOS*%
%AMOC8*
5,1,8,0,0,1.08239X$1,22.5*%
G01*
%ADD10C,2.082800*%
%ADD11R,11.003200X10.613200*%
%ADD12R,1.270000X2.362200*%
%ADD13R,3.203200X1.603200*%
%ADD14R,2.003200X1.803200*%
%ADD15C,1.854200*%
%ADD16R,1.854200X1.854200*%

G36*
X108408Y360673D02*
X108408Y360673D01*
X108499Y360672D01*
X109463Y360803D01*
X109511Y360819D01*
X109600Y360838D01*
X110511Y361180D01*
X110554Y361206D01*
X110638Y361245D01*
X111449Y361782D01*
X111485Y361817D01*
X111558Y361873D01*
X112230Y362577D01*
X112258Y362619D01*
X112316Y362690D01*
X112814Y363526D01*
X112815Y363529D01*
X112817Y363531D01*
X112823Y363550D01*
X112832Y363573D01*
X112872Y363655D01*
X113172Y364581D01*
X113179Y364631D01*
X113201Y364720D01*
X113287Y365689D01*
X113283Y365736D01*
X113286Y365811D01*
X113184Y366787D01*
X113170Y366835D01*
X113154Y366925D01*
X112838Y367854D01*
X112814Y367898D01*
X112777Y367983D01*
X112263Y368818D01*
X112229Y368855D01*
X112175Y368930D01*
X111487Y369630D01*
X111446Y369659D01*
X111377Y369719D01*
X110550Y370248D01*
X110504Y370267D01*
X110423Y370311D01*
X109500Y370643D01*
X109450Y370651D01*
X109361Y370676D01*
X108387Y370794D01*
X108337Y370791D01*
X108251Y370795D01*
X107249Y370700D01*
X107200Y370686D01*
X107110Y370670D01*
X106154Y370354D01*
X106109Y370330D01*
X106025Y370295D01*
X105164Y369773D01*
X105126Y369740D01*
X105051Y369687D01*
X104327Y368987D01*
X104298Y368946D01*
X104237Y368877D01*
X103687Y368034D01*
X103667Y367988D01*
X103623Y367907D01*
X103275Y366963D01*
X103266Y366913D01*
X103241Y366825D01*
X103111Y365827D01*
X103113Y365784D01*
X103112Y365658D01*
X103251Y364647D01*
X103267Y364599D01*
X103286Y364509D01*
X103648Y363554D01*
X103674Y363511D01*
X103713Y363427D01*
X104277Y362577D01*
X104312Y362540D01*
X104369Y362468D01*
X105109Y361764D01*
X105151Y361736D01*
X105222Y361678D01*
X106100Y361157D01*
X106147Y361139D01*
X106229Y361098D01*
X107201Y360785D01*
X107251Y360778D01*
X107340Y360757D01*
X108358Y360668D01*
X108408Y360673D01*
G37*
G36*
X108408Y332682D02*
X108408Y332682D01*
X108499Y332681D01*
X109463Y332812D01*
X109511Y332828D01*
X109600Y332847D01*
X110511Y333189D01*
X110554Y333215D01*
X110638Y333254D01*
X111449Y333791D01*
X111485Y333826D01*
X111558Y333882D01*
X112230Y334586D01*
X112258Y334628D01*
X112316Y334699D01*
X112814Y335535D01*
X112815Y335538D01*
X112817Y335540D01*
X112823Y335559D01*
X112832Y335582D01*
X112872Y335664D01*
X113172Y336590D01*
X113179Y336640D01*
X113201Y336729D01*
X113287Y337698D01*
X113283Y337745D01*
X113286Y337820D01*
X113184Y338796D01*
X113170Y338844D01*
X113154Y338934D01*
X112838Y339863D01*
X112814Y339907D01*
X112777Y339992D01*
X112263Y340827D01*
X112229Y340864D01*
X112175Y340939D01*
X111487Y341639D01*
X111446Y341668D01*
X111377Y341728D01*
X110550Y342257D01*
X110504Y342276D01*
X110423Y342320D01*
X109500Y342652D01*
X109450Y342660D01*
X109361Y342685D01*
X108387Y342803D01*
X108337Y342800D01*
X108251Y342804D01*
X107249Y342709D01*
X107200Y342695D01*
X107110Y342679D01*
X106154Y342363D01*
X106109Y342339D01*
X106025Y342304D01*
X105164Y341782D01*
X105126Y341749D01*
X105051Y341696D01*
X104327Y340996D01*
X104298Y340955D01*
X104237Y340886D01*
X103687Y340043D01*
X103667Y339997D01*
X103623Y339916D01*
X103275Y338972D01*
X103266Y338922D01*
X103241Y338834D01*
X103111Y337836D01*
X103113Y337793D01*
X103112Y337667D01*
X103251Y336656D01*
X103267Y336608D01*
X103286Y336518D01*
X103648Y335563D01*
X103674Y335520D01*
X103713Y335436D01*
X104277Y334586D01*
X104312Y334549D01*
X104369Y334477D01*
X105109Y333773D01*
X105151Y333745D01*
X105222Y333687D01*
X106100Y333166D01*
X106147Y333148D01*
X106229Y333107D01*
X107201Y332794D01*
X107251Y332787D01*
X107340Y332766D01*
X108358Y332677D01*
X108408Y332682D01*
G37*
G36*
X160021Y301125D02*
X160021Y301125D01*
X160070Y301139D01*
X160160Y301155D01*
X161116Y301471D01*
X161161Y301495D01*
X161245Y301531D01*
X162106Y302052D01*
X162144Y302085D01*
X162219Y302138D01*
X162943Y302838D01*
X162972Y302879D01*
X163033Y302948D01*
X163583Y303791D01*
X163603Y303837D01*
X163647Y303918D01*
X163995Y304862D01*
X164004Y304912D01*
X164029Y305000D01*
X164159Y305998D01*
X164157Y306041D01*
X164158Y306167D01*
X164019Y307178D01*
X164003Y307226D01*
X163984Y307316D01*
X163622Y308271D01*
X163596Y308314D01*
X163558Y308398D01*
X162993Y309248D01*
X162958Y309285D01*
X162901Y309357D01*
X162162Y310061D01*
X162119Y310089D01*
X162048Y310147D01*
X161170Y310668D01*
X161123Y310686D01*
X161041Y310727D01*
X160069Y311040D01*
X160019Y311047D01*
X159930Y311068D01*
X158912Y311157D01*
X158862Y311152D01*
X158771Y311153D01*
X157807Y311022D01*
X157759Y311006D01*
X157670Y310987D01*
X156759Y310645D01*
X156716Y310619D01*
X156633Y310580D01*
X155821Y310043D01*
X155785Y310008D01*
X155712Y309952D01*
X155040Y309248D01*
X155013Y309206D01*
X154954Y309135D01*
X154456Y308300D01*
X154438Y308252D01*
X154398Y308170D01*
X154098Y307245D01*
X154091Y307194D01*
X154069Y307105D01*
X153983Y306136D01*
X153987Y306089D01*
X153984Y306014D01*
X154086Y305038D01*
X154100Y304990D01*
X154116Y304900D01*
X154432Y303971D01*
X154457Y303927D01*
X154493Y303842D01*
X155007Y303007D01*
X155041Y302970D01*
X155095Y302895D01*
X155783Y302196D01*
X155824Y302166D01*
X155893Y302106D01*
X156720Y301577D01*
X156766Y301558D01*
X156847Y301514D01*
X157770Y301182D01*
X157820Y301174D01*
X157909Y301149D01*
X158883Y301031D01*
X158933Y301034D01*
X159019Y301030D01*
X160021Y301125D01*
G37*
G36*
X198121Y301125D02*
X198121Y301125D01*
X198170Y301139D01*
X198260Y301155D01*
X199216Y301471D01*
X199261Y301495D01*
X199345Y301531D01*
X200206Y302052D01*
X200244Y302085D01*
X200319Y302138D01*
X201043Y302838D01*
X201072Y302879D01*
X201133Y302948D01*
X201683Y303791D01*
X201703Y303837D01*
X201747Y303918D01*
X202095Y304862D01*
X202104Y304912D01*
X202129Y305000D01*
X202259Y305998D01*
X202257Y306041D01*
X202258Y306167D01*
X202119Y307178D01*
X202103Y307226D01*
X202084Y307316D01*
X201722Y308271D01*
X201696Y308314D01*
X201658Y308398D01*
X201093Y309248D01*
X201058Y309285D01*
X201001Y309357D01*
X200262Y310061D01*
X200219Y310089D01*
X200148Y310147D01*
X199270Y310668D01*
X199223Y310686D01*
X199141Y310727D01*
X198169Y311040D01*
X198119Y311047D01*
X198030Y311068D01*
X197012Y311157D01*
X196962Y311152D01*
X196871Y311153D01*
X195907Y311022D01*
X195859Y311006D01*
X195770Y310987D01*
X194859Y310645D01*
X194816Y310619D01*
X194733Y310580D01*
X193921Y310043D01*
X193885Y310008D01*
X193812Y309952D01*
X193140Y309248D01*
X193113Y309206D01*
X193054Y309135D01*
X192556Y308300D01*
X192538Y308252D01*
X192498Y308170D01*
X192198Y307245D01*
X192191Y307194D01*
X192169Y307105D01*
X192083Y306136D01*
X192087Y306089D01*
X192084Y306014D01*
X192186Y305038D01*
X192200Y304990D01*
X192216Y304900D01*
X192532Y303971D01*
X192557Y303927D01*
X192593Y303842D01*
X193107Y303007D01*
X193141Y302970D01*
X193195Y302895D01*
X193883Y302196D01*
X193924Y302166D01*
X193993Y302106D01*
X194820Y301577D01*
X194866Y301558D01*
X194947Y301514D01*
X195870Y301182D01*
X195920Y301174D01*
X196009Y301149D01*
X196983Y301031D01*
X197033Y301034D01*
X197119Y301030D01*
X198121Y301125D01*
G37*
G36*
X160097Y224849D02*
X160097Y224849D01*
X160146Y224863D01*
X160236Y224879D01*
X161192Y225195D01*
X161237Y225219D01*
X161321Y225255D01*
X162182Y225776D01*
X162220Y225809D01*
X162295Y225862D01*
X163019Y226562D01*
X163048Y226603D01*
X163109Y226672D01*
X163659Y227515D01*
X163679Y227561D01*
X163723Y227642D01*
X164071Y228586D01*
X164080Y228636D01*
X164105Y228724D01*
X164235Y229722D01*
X164233Y229765D01*
X164234Y229891D01*
X164095Y230902D01*
X164079Y230950D01*
X164060Y231040D01*
X163698Y231995D01*
X163672Y232038D01*
X163634Y232122D01*
X163069Y232972D01*
X163034Y233009D01*
X162977Y233081D01*
X162238Y233785D01*
X162195Y233813D01*
X162124Y233871D01*
X161246Y234392D01*
X161199Y234410D01*
X161117Y234451D01*
X160145Y234764D01*
X160095Y234771D01*
X160006Y234792D01*
X158988Y234881D01*
X158938Y234876D01*
X158847Y234877D01*
X157883Y234746D01*
X157835Y234730D01*
X157746Y234711D01*
X156835Y234369D01*
X156792Y234343D01*
X156709Y234304D01*
X155897Y233767D01*
X155861Y233732D01*
X155788Y233676D01*
X155116Y232972D01*
X155089Y232930D01*
X155030Y232859D01*
X154532Y232024D01*
X154514Y231976D01*
X154474Y231894D01*
X154174Y230969D01*
X154167Y230918D01*
X154145Y230829D01*
X154059Y229860D01*
X154063Y229813D01*
X154060Y229738D01*
X154162Y228762D01*
X154176Y228714D01*
X154192Y228624D01*
X154508Y227695D01*
X154533Y227651D01*
X154569Y227566D01*
X155083Y226731D01*
X155117Y226694D01*
X155171Y226619D01*
X155859Y225920D01*
X155900Y225890D01*
X155969Y225830D01*
X156796Y225301D01*
X156842Y225282D01*
X156923Y225238D01*
X157846Y224906D01*
X157896Y224898D01*
X157985Y224873D01*
X158959Y224755D01*
X159009Y224758D01*
X159095Y224754D01*
X160097Y224849D01*
G37*
G36*
X198197Y224849D02*
X198197Y224849D01*
X198246Y224863D01*
X198336Y224879D01*
X199292Y225195D01*
X199337Y225219D01*
X199421Y225255D01*
X200282Y225776D01*
X200320Y225809D01*
X200395Y225862D01*
X201119Y226562D01*
X201148Y226603D01*
X201209Y226672D01*
X201759Y227515D01*
X201779Y227561D01*
X201823Y227642D01*
X202171Y228586D01*
X202180Y228636D01*
X202205Y228724D01*
X202335Y229722D01*
X202333Y229765D01*
X202334Y229891D01*
X202195Y230902D01*
X202179Y230950D01*
X202160Y231040D01*
X201798Y231995D01*
X201772Y232038D01*
X201734Y232122D01*
X201169Y232972D01*
X201134Y233009D01*
X201077Y233081D01*
X200338Y233785D01*
X200295Y233813D01*
X200224Y233871D01*
X199346Y234392D01*
X199299Y234410D01*
X199217Y234451D01*
X198245Y234764D01*
X198195Y234771D01*
X198106Y234792D01*
X197088Y234881D01*
X197038Y234876D01*
X196947Y234877D01*
X195983Y234746D01*
X195935Y234730D01*
X195846Y234711D01*
X194935Y234369D01*
X194892Y234343D01*
X194809Y234304D01*
X193997Y233767D01*
X193961Y233732D01*
X193888Y233676D01*
X193216Y232972D01*
X193189Y232930D01*
X193130Y232859D01*
X192632Y232024D01*
X192614Y231976D01*
X192574Y231894D01*
X192274Y230969D01*
X192267Y230918D01*
X192245Y230829D01*
X192159Y229860D01*
X192163Y229813D01*
X192160Y229738D01*
X192262Y228762D01*
X192276Y228714D01*
X192292Y228624D01*
X192608Y227695D01*
X192633Y227651D01*
X192669Y227566D01*
X193183Y226731D01*
X193217Y226694D01*
X193271Y226619D01*
X193959Y225920D01*
X194000Y225890D01*
X194069Y225830D01*
X194896Y225301D01*
X194942Y225282D01*
X195023Y225238D01*
X195946Y224906D01*
X195996Y224898D01*
X196085Y224873D01*
X197059Y224755D01*
X197109Y224758D01*
X197195Y224754D01*
X198197Y224849D01*
G37*
D10*
X304800Y50800D03*
X304800Y76200D03*
X304800Y101600D03*
X304800Y127000D03*
X304800Y152400D03*
X304800Y177800D03*
X304800Y203200D03*
X304800Y228600D03*
X304800Y254000D03*
X304800Y279400D03*
X304800Y304800D03*
X304800Y330200D03*
X304800Y355600D03*
X304800Y381000D03*
X304800Y406400D03*
X304800Y431800D03*
X304800Y457200D03*
X304800Y482600D03*
X279400Y50800D03*
X279400Y76200D03*
X279400Y101600D03*
X279400Y127000D03*
X279400Y152400D03*
X279400Y177800D03*
X279400Y203200D03*
X279400Y228600D03*
X279400Y254000D03*
X279400Y279400D03*
X279400Y304800D03*
X279400Y330200D03*
X279400Y355600D03*
X279400Y381000D03*
X279400Y406400D03*
X279400Y431800D03*
X279400Y457200D03*
X279400Y482600D03*
X203200Y482600D03*
X177800Y482600D03*
X152400Y482600D03*
X127000Y482600D03*
X101600Y482600D03*
X76200Y482600D03*
X50800Y482600D03*
X25400Y482600D03*
X73660Y73660D03*
X48260Y73660D03*
X73660Y99060D03*
X48260Y99060D03*
X73660Y124460D03*
X48260Y124460D03*
X73660Y149860D03*
X48260Y149860D03*
X73660Y175260D03*
X48260Y175260D03*
X73660Y200660D03*
X48260Y200660D03*
X73660Y226060D03*
X48260Y226060D03*
X73660Y251460D03*
X48260Y251460D03*
X73660Y276860D03*
X48260Y276860D03*
X73660Y302260D03*
X48260Y302260D03*
X254000Y507700D03*
X228600Y507700D03*
D11*
X177800Y119380D03*
D12*
X211836Y202692D03*
X194818Y202692D03*
X177800Y202692D03*
X160782Y202692D03*
X143764Y202692D03*
D13*
X238940Y430540D03*
X190940Y430540D03*
D14*
X197160Y281980D03*
X197160Y253980D03*
X159060Y281980D03*
X159060Y253980D03*
X108260Y312460D03*
X108260Y284460D03*
D15*
X202440Y359420D03*
D16*
X227440Y359420D03*
M02*
